<svg version="1" xmlns="http://www.w3.org/2000/svg" width="500" height="500" viewBox="0 0 500 500">
<path d="M 76.51 186.164 L 76.51 128.786 L 221.337 87.249 C 221.337 73.014 227.807 64.474 240.747 61.627 C 253.688 58.78 265.011 63.05 274.716 74.438 L 418.623 27.465 L 418.623 91.488"
       stroke="#0379C4" style="fill: none; stroke-width: 20px;"></path><g
transform="matrix(1, 0, 0, 1, 1.642935, -56.955093)">
<polygon  stroke="#0379C4" fill="#0379C4"
         points="17.525 424.311 17.525 344.942 135.495 344.942 135.495 424.311"></polygon>
<path d="M 33.254 352.879 L 33.254 309.226 C 36.712 280.418 51.131 265.867 76.51 265.573 C 101.889 265.279 116.307 279.83 119.765 309.226 L 119.765 352.879"
       stroke="#0379C4" style="fill: none; stroke-width: 20px;"></path>
</g><g transform="matrix(1, 0, 0, 1, 1.285871, -66.876862)">
<path d="M 371.435 273.51 C 369.985 253.921 369.985 239.37 371.435 229.857 C 373.61 215.587 379.969 186.203 414.69 186.203 C 449.412 186.203 457.946 218.943 457.946 229.857"
       stroke="#0379C4" style="fill: none; stroke-width: 20px;"></path>
<g  fill="#0379C4" transform="matrix(4.904848, 0, 0, 4.904848, 17.524645, 20.892967)" style="">
    <polygon points="68.948 66.345 68.948 50.164 93 50.164 93 66.345"/>
    <polygon points="68.948 66.345 68.948 50.164 93 50.164 93 66.345"/>
</g>
</g><polygon  stroke="#0379C4" fill="#0379C4"
             points="147.65199279785156 425.7879943847656 117.76499938964844 450.16400146484375 382.54400634765625 450.16400146484375 349.8380126953125 425.7879943847656 326.0530090332031 425.7879943847656 296.3179931640625 419.9729919433594 268.135986328125 425.7879943847656 261.0169982910156 113.12799835205078 234.2830047607422 112.58000183105469 229.35400390625 425.7879943847656 201.17300415039062 419.9729919433594 170.7030029296875 425.7879943847656"
             style=""></polygon><g  stroke="#0379C4"
                                   transform="matrix(4.904848, 0, 0, 4.904848, 17.524645, 27.464705)">
<ellipse cx="47.094" cy="12.856" rx="4.947" ry="4.944" style="fill: none; stroke-width: 6.32028px;"></ellipse>
<ellipse cx="47.094" cy="12.856" rx="4.947" ry="4.944" style="fill: none; stroke-width: 6.32028px;"></ellipse>
</g>
</svg>
