<?xml version="1.0" encoding="UTF-8"?>
<!-- Generator: Adobe Illustrator 16.0.0, SVG Export Plug-In . SVG Version: 6.00 Build 0)  -->
<!DOCTYPE svg PUBLIC "-//W3C//DTD SVG 1.1//EN" "http://www.w3.org/Graphics/SVG/1.1/DTD/svg11.dtd">
<svg version="1.1" id="Logo" xmlns="http://www.w3.org/2000/svg"  x="0px" y="0px" width="737.008px" height="283.465px" viewBox="0 0 737.008 283.465" enable-background="new 0 0 737.008 283.465" xml:space="preserve">
<g>
	<g>
		<g>
			<path d="M0.808,117.939C0.269,115.604,0,113.807,0,106.89V70.864h3.503v35.846c0,7.906,0.538,10.781,1.976,13.746     c2.875,6.378,8.983,9.612,17.338,9.612c8.445,0,14.464-3.234,17.429-9.612c1.348-2.875,1.886-5.75,1.886-13.746V70.864h3.503     v36.026c0,6.828-0.269,8.625-0.808,11.05c-2.246,10.421-10.512,15.273-22.011,15.273C11.318,133.212,3.054,128.36,0.808,117.939z     "/>
			<path d="M89.908,131.954h-3.324v-23.358c0-10.511-1.257-17.428-11.679-17.428c-4.402,0-7.546,1.617-9.792,3.863     c-2.786,2.965-3.954,7.187-3.954,11.05v25.873h-3.324V89.191h3.324v7.995h0.09c1.527-4.222,6.109-9.074,14.464-9.074     c6.109,0,9.882,2.336,12.038,6.199c1.527,2.785,2.156,6.468,2.156,11.589V131.954z"/>
			<path d="M107.581,81.196h-3.324v-8.175h3.324v5.393V81.196z M107.581,131.954h-3.324V89.191h3.324v26.558V131.954z"/>
			<path d="M135.483,131.954h-2.695l-15.542-42.763h3.683l10.601,29.197c1.258,3.414,2.516,7.726,2.786,8.714h0.089     c0.27-0.988,1.618-5.121,3.056-8.804l11.139-29.108h3.503L135.483,131.954z"/>
			<path d="M194.737,109.584v0.809h-33.33v0.809c0,10.421,5.211,18.776,15.992,18.776c9.253,0,13.026-5.66,15.272-9.882l2.335,2.335     c-2.246,4.402-7.635,10.601-17.698,10.601c-11.769,0-19.495-8.354-19.495-22.28c0-13.476,7.367-22.64,18.866-22.64     C188.09,88.113,194.737,97.097,194.737,109.584z M161.498,107.518h29.556c-0.089-8.175-5.21-16.53-14.374-16.53     C168.146,90.988,162.576,97.187,161.498,107.518z"/>
			<path d="M226.491,91.617c-1.168-0.27-2.246-0.359-3.234-0.359c-8.086,0-12.578,7.906-12.578,15.093v25.604h-3.324V89.191h3.324     v8.804c1.259-4.762,6.11-9.883,12.309-9.883c1.078,0,2.335,0,3.503,0.449V91.617z"/>
			<path d="M259.396,97.187c-2.964-3.863-7.636-6.199-12.847-6.199c-6.108,0.09-10.87,2.875-10.87,8.176     c0,5.21,3.324,7.007,9.703,8.534l5.121,1.258c7.457,1.797,13.206,4.223,13.206,11.589c0,7.815-6.559,12.487-15.992,12.487     c-8.265,0-14.284-4.132-17.069-7.816l2.336-2.515c3.145,4.132,8.175,7.366,15.092,7.366c8.177-0.089,12.129-3.863,12.129-9.253     c-0.09-5.75-4.313-7.367-10.152-8.714l-6.199-1.527c-6.917-1.617-11.68-4.312-11.68-11.14c0-7.277,6.559-11.229,14.734-11.32     c7.007,0,11.588,2.875,14.554,6.469L259.396,97.187z"/>
			<path d="M278.403,81.196h-3.324v-8.175h3.324v5.041V81.196z M278.403,131.954h-3.324V89.191h3.324v31.474V131.954z"/>
			<path d="M311.799,130.787c-1.797,1.167-4.851,2.066-7.457,2.066c-2.516,0-4.762-0.719-6.019-2.605     c-0.989-1.438-1.438-3.054-1.438-7.007V92.246h-8.625v-3.054h8.625V72.75l3.324-0.718v17.159h10.602v3.054h-10.602v30.905     c0,2.246,0.181,3.683,0.719,4.761c0.628,1.168,1.797,1.887,4.043,1.887c2.516,0,5.3-1.079,6.828-2.246V130.787z"/>
			<path d="M320.49,101.05c-0.09-8.715,6.828-12.847,15.362-12.847c4.313,0,9.253,0.898,12.128,4.402     c1.528,1.887,2.516,4.492,2.516,8.625v22.729c0,3.773,0.628,5.84,4.223,5.84c1.168,0,2.066-0.18,2.875-0.449v2.695     c-0.719,0.27-2.246,0.539-3.773,0.539c-4.132,0-6.378-1.796-6.378-6.378c0-0.539,0-1.078,0.089-1.707h-0.089     c-1.888,4.402-6.378,8.535-14.644,8.535c-9.163,0-13.655-5.75-13.655-12.937c0-3.234,1.078-6.019,3.234-7.996     c2.336-2.156,5.929-3.504,10.871-4.312l11.679-1.977c2.067-0.359,2.516-0.808,2.516-2.515v-1.438     c0-7.367-3.594-10.78-11.769-10.78c-8.714,0-12.218,4.312-12.218,11.589L320.49,101.05z M347.441,107.788     c-0.629,0.449-2.875,0.898-5.929,1.438l-6.469,1.167c-6.02,1.078-12.398,2.426-12.398,9.703c0,6.379,4.402,10.062,11.05,10.062     c8.983,0,13.746-7.097,13.746-14.464V107.788z M327.062,73.021h3.4v4.807v3.369h-3.4V73.021z M343.309,73.021h3.399v4.572v3.603     h-3.399V73.021z"/>
			<path d="M384.072,130.787c-1.797,1.167-4.852,2.066-7.456,2.066c-2.517,0-4.763-0.719-6.02-2.605     c-0.989-1.438-1.438-3.054-1.438-7.007V92.246h-8.625v-3.054h8.625V72.75l3.324-0.718v17.159h10.603v3.054h-10.603v30.905     c0,2.246,0.181,3.683,0.719,4.761c0.629,1.168,1.797,1.887,4.043,1.887c2.517,0,5.301-1.079,6.828-2.246V130.787z"/>
		</g>
		<g>
			<path d="M104.05,212.597h-4.258l-24.399-34.791l-14.195,14.488v20.303h-3.362v-61.09h3.362v36.115l36.308-36.115h4.479     l-23.987,23.987L104.05,212.597z"/>
			<path d="M126.242,168.756c11.858,0,18.955,9.074,18.955,22.64c0,13.386-7.276,22.279-18.955,22.279     c-11.59,0-18.867-8.894-18.867-22.279C107.375,177.83,114.383,168.756,126.242,168.756z M126.242,210.8     c9.253,0,15.361-7.456,15.361-19.494c0-12.308-5.929-19.675-15.361-19.675c-9.344,0-15.273,7.457-15.273,19.675     C110.969,203.434,117.078,210.8,126.242,210.8z"/>
			<path d="M187.858,212.597h-3.324v-23.357c0-10.512-1.257-17.429-11.679-17.429c-4.402,0-7.547,1.617-9.793,3.863     c-2.784,2.965-3.953,7.187-3.953,11.05v25.873h-3.324v-42.762h3.324v7.995h0.089c1.528-4.222,6.109-9.074,14.464-9.074     c6.108,0,9.881,2.336,12.039,6.199c1.527,2.785,2.156,6.469,2.156,11.589V212.597z"/>
			<path d="M225.809,177.83c-2.964-3.863-7.635-6.199-12.847-6.199c-6.109,0.09-10.87,2.875-10.87,8.176     c0,5.21,3.324,7.007,9.702,8.534l5.121,1.258c7.457,1.797,13.206,4.223,13.206,11.589c0,7.815-6.559,12.487-15.992,12.487     c-8.266,0-14.284-4.132-17.069-7.815l2.336-2.516c3.145,4.133,8.175,7.367,15.092,7.367c8.177-0.09,12.129-3.863,12.129-9.254     c-0.09-5.749-4.313-7.367-10.152-8.714l-6.199-1.527c-6.918-1.617-11.68-4.312-11.68-11.141c0-7.276,6.559-11.229,14.734-11.319     c7.007,0,11.588,2.875,14.554,6.469L225.809,177.83z"/>
			<path d="M258.701,211.43c-1.797,1.167-4.853,2.065-7.458,2.065c-2.515,0-4.761-0.719-6.02-2.605     c-0.987-1.438-1.437-3.054-1.437-7.007v-30.994h-8.625v-3.054h8.625v-16.441l3.324-0.718v17.159h10.601v3.054h-10.601v30.904     c0,2.246,0.18,3.684,0.719,4.762c0.628,1.168,1.797,1.887,4.042,1.887c2.516,0,5.3-1.079,6.829-2.246V211.43z"/>
			<path d="M267.004,181.693c-0.09-8.715,6.828-12.847,15.362-12.847c4.312,0,9.253,0.898,12.128,4.402     c1.528,1.887,2.516,4.492,2.516,8.625v22.729c0,3.773,0.629,5.84,4.223,5.84c1.168,0,2.067-0.18,2.875-0.449v2.694     c-0.719,0.271-2.246,0.539-3.773,0.539c-4.132,0-6.378-1.796-6.378-6.378c0-0.539,0-1.078,0.089-1.707h-0.089     c-1.887,4.402-6.378,8.534-14.644,8.534c-9.163,0-13.655-5.749-13.655-12.937c0-3.234,1.078-6.019,3.234-7.995     c2.336-2.156,5.929-3.504,10.871-4.312l11.679-1.977c2.066-0.359,2.516-0.809,2.516-2.516v-1.438     c0-7.366-3.594-10.78-11.769-10.78c-8.713,0-12.218,4.312-12.218,11.588L267.004,181.693z M293.956,188.431     c-0.628,0.449-2.875,0.898-5.929,1.438l-6.468,1.168c-6.02,1.078-12.398,2.426-12.398,9.702c0,6.379,4.402,10.062,11.05,10.062     c8.983,0,13.745-7.097,13.745-14.464V188.431z"/>
			<path d="M344.766,212.597h-3.324v-23.357c0-10.512-1.257-17.429-11.679-17.429c-4.402,0-7.547,1.617-9.792,3.863     c-2.786,2.965-3.954,7.187-3.954,11.05v25.873h-3.324v-42.762h3.324v7.995h0.09c1.527-4.222,6.108-9.074,14.464-9.074     c6.108,0,9.882,2.336,12.038,6.199c1.527,2.785,2.156,6.469,2.156,11.589V212.597z"/>
			<path d="M384.68,212.597h-30.814v-2.515l24.977-37.193h-24.167v-3.054h28.119l0.089,2.515l-25.154,37.193h26.951V212.597z"/>
		</g>
	</g>
	<path d="M453.543,0v283.465h283.465V0H453.543z M596.177,1.798h68.616v68.616h-68.616V1.798z M676.412,195.364v15.885l-9.831-0.001   H654.75v-15.884h10.033v15.868h1.798v-15.868H676.412z M666.581,193.566v-15.798h9.831v15.798H666.581z M666.581,246.358v-33.312   h9.831v33.312H666.581z M676.412,248.156v15.793h-9.831v-15.793H676.412z M654.75,193.566v-15.798h10.033v15.798H654.75z    M664.783,175.971H654.75v-33.333h10.033V175.971z M654.644,140.84l-4.828-38.761l14.59,38.761H654.644z M631.29,246.358   l0.001-33.312h9.934l-0.002,33.312H631.29z M641.223,248.156l-0.001,15.793h-9.932v-15.793H641.223z M631.291,211.247v-15.883   h9.935l-0.001,15.884L631.291,211.247z M631.292,193.566v-15.798h9.935l-0.001,15.798H631.292z M631.292,175.971l0.001-33.333   h9.936l-0.002,33.333H631.292z M631.667,140.84l14.466-38.561l-4.798,38.561H631.667z M647.087,93.842h-15.792v-9.911l15.792-0.003   V93.842z M647.986,101.944l4.845,38.896h-9.684L647.986,101.944z M646.702,95.64l-3.729,9.943h-11.678V95.64H646.702z    M643.021,248.156h9.931v15.793h-9.932L643.021,248.156z M643.021,246.358l0.002-33.312h4.063v27.35h1.798v-27.35h4.067v33.312   H643.021z M648.885,211.248v-6.282h-1.798v6.282h-4.063l0.001-15.884h9.928v15.884H648.885z M643.024,193.566l0.001-15.798h9.927   v15.798H643.024z M643.025,175.971l0.002-33.333h9.925v33.333H643.025z M649.313,95.64h15.479v9.947h-11.735L649.313,95.64z    M648.885,93.842v-9.914l15.908-0.003v9.917H648.885z M631.295,82.132v-9.92h33.498v9.915L631.295,82.132z M596.177,72.211h33.32   v9.921l-33.32,0.006V72.211z M596.177,83.937l33.32-0.006v9.911h-33.32V83.937z M596.177,95.64h33.32v9.943h-33.32V95.64z    M596.177,177.769h9.855v15.798h-9.855V177.769z M596.177,195.364h9.855v15.883h-9.855V195.364z M596.177,213.045h9.855v33.313   h-9.855V213.045z M596.177,248.156h9.855v15.793h-9.855V248.156z M525.775,13.527l15.725,0.001v9.931h-15.726L525.775,13.527z    M525.774,25.258H541.5v9.934h-15.727L525.774,25.258z M541.5,36.99v9.168l-13.735-9.168H541.5z M525.773,37.823l13.63,9.099   h-13.63V37.823z M525.773,48.72H541.5v9.933h-15.728L525.773,48.72z M525.772,60.451H541.5v9.963h-15.729L525.772,60.451z    M525.771,72.211H541.5v9.915h-15.729L525.771,72.211z M525.771,83.924h33.325l-0.001,9.917h-33.324V83.924z M559.096,72.211v9.915   h-15.798v-9.915H559.096z M543.298,70.414v-9.963h15.799v9.963H543.298z M525.771,95.64h33.324l-0.001,9.943H525.77L525.771,95.64z    M525.77,107.381h33.324l-0.002,33.459h-33.324L525.77,107.381z M525.763,213.043l15.173,0.001l-15.175,30.315L525.763,213.043z    M542.375,214.186l16.156,32.173h-32.26L542.375,214.186z M472.928,25.259h15.774l0.002,9.933l-15.776,0.004V25.259z    M472.928,36.994l15.776-0.003l0.003,9.932h-15.779V36.994z M472.928,48.72h15.779l0.003,9.933h-15.782V48.72z M472.928,60.451   h15.782l0.002,9.963h-15.784V60.451z M472.928,72.211h15.785l0.002,9.902h-15.787V72.211z M455.341,1.798h15.789v9.933h-15.789   V1.798z M455.341,13.529h15.789v9.932h-15.789V13.529z M455.341,25.259h15.789v9.937l-15.789,0.003V25.259z M455.341,36.998   l15.789-0.004v9.928h-15.789V36.998z M455.341,48.72h15.789v9.933h-15.789V48.72z M455.341,60.451h15.789v9.963h-15.789V60.451z    M455.341,72.211h15.789v9.902h-15.789V72.211z M455.341,83.912h33.375l0.005,21.671h-33.38V83.912z M455.751,281.666   c2.533-7.47,9.138-12.538,16.35-12.525c7.888,0.048,14.505,5.15,16.417,12.525H455.751z M488.717,277.222   c-3.144-5.962-9.395-9.836-16.606-9.879c-0.03,0-0.061,0-0.092,0c-6.947,0-13.315,4.227-16.678,10.706v-12.301h33.376V277.222z    M490.789,281.666c2.49-7.461,9.164-12.547,16.453-12.525c7.941,0.057,14.6,5.158,16.519,12.525H490.789z M523.961,277.241   c-3.155-5.966-9.446-9.848-16.708-9.898c-0.029,0-0.057,0-0.087,0c-6.925,0-13.267,4.11-16.651,10.429v-12.023h33.447   L523.961,277.241z M523.962,263.949h-68.621v-50.907l68.624,0.001L523.962,263.949z M523.965,211.245l-68.624-0.002v-68.605h68.628   L523.965,211.245z M523.969,140.84h-68.628v-33.459h68.63L523.969,140.84z M523.972,105.583h-33.453l-0.002-9.943h33.455V105.583z    M523.972,93.842h-33.455l-0.005-20.895l16.689,11.147l16.771-11.192L523.972,93.842z M492.647,72.211h29.12l-14.566,9.72   L492.647,72.211z M523.973,70.414h-33.462l-0.002-9.963h33.465L523.973,70.414z M523.974,58.653h-33.466l-0.002-9.933h33.469   L523.974,58.653z M523.975,46.922h-33.47l-0.007-32.646l33.478,22.347L523.975,46.922z M523.976,34.46l-13.787-9.203h13.788   L523.976,34.46z M523.977,23.459h-16.482l-14.884-9.936l31.366,0.003V23.459z M523.977,11.729l-35.278-0.004l0.003,11.736h-15.773   V1.798h51.05L523.977,11.729z M526.03,281.666c2.498-7.569,8.923-12.567,16.293-12.567c0.031,0,0.063,0,0.095,0   c7.869,0.039,14.488,5.153,16.453,12.567H526.03z M559.106,277.318c-3.153-6.052-9.438-9.982-16.679-10.018   c-0.035-0.001-0.071-0.001-0.106-0.001c-6.989,0-13.202,4.029-16.562,10.411v-11.963h33.347V277.318z M559.106,263.949H525.76   l0.001-15.793h33.346V263.949z M559.106,243.495l-15.292-30.451h15.292V243.495z M561.193,281.666   c2.524-7.534,8.909-12.504,16.212-12.504c0.029,0,0.059,0,0.088,0c7.857,0.05,14.692,5.246,16.654,12.504H561.193z    M594.379,277.404c-3.2-5.988-9.646-9.994-16.875-10.04c-0.033,0-0.065,0-0.098,0c-6.95,0-13.139,4.027-16.501,10.409v-12.025   h33.474V277.404z M594.379,263.949h-33.474v-15.793h33.474V263.949z M560.905,243.429v-30.385l15.188,0.001L560.905,243.429z    M577.547,214.158l16.127,32.2h-32.223L577.547,214.158z M594.379,243.749l-15.378-30.704h15.378V243.749z M594.379,211.247   l-68.616-0.002l0.005-68.607h68.611V211.247z M594.379,140.84h-33.488v-10.006h33.488V140.84z M594.379,129.036h-33.488   l0.001-9.933h33.487V129.036z M594.379,117.305h-33.487l0.001-9.924h33.486V117.305z M594.379,105.583h-33.486l0.001-9.943h33.485   V105.583z M594.379,93.842h-33.485l0.001-20.859L577.608,84.1l16.771-11.237V93.842z M562.983,72.211h29.135l-14.514,9.726   L562.983,72.211z M594.379,70.414h-33.483v-9.963h33.483V70.414z M560.896,58.653l0.002-20.88l31.271,20.88H560.896z    M594.379,57.966l-35.28-23.557l-0.002,24.244h-15.799V11.73l-17.522-0.001V1.798h68.604V57.966z M629.491,281.666h-33.314v-15.918   h33.314V281.666z M617.763,195.364v15.883h-4.085v-6.293h-1.798v6.293h-4.05v-15.883H617.763z M607.83,193.566v-15.798h9.933   v15.798H607.83z M611.88,213.045v27.312h1.798v-27.312l4.085,0.001v33.312h-9.933v-33.313H611.88z M617.763,248.156v15.793h-9.933   v-15.793H617.763z M629.491,263.949h-9.931v-15.793h9.931V263.949z M629.491,246.358h-9.931v-33.312h9.932L629.491,246.358z    M629.492,211.247h-9.932v-15.883h9.933L629.492,211.247z M629.493,193.566h-9.933v-15.798h9.933V193.566z M629.493,175.971h-9.933   v-11.303h-1.798v11.303h-9.933v-11.303h-1.798v11.303h-9.855v-33.333h33.317L629.493,175.971z M629.494,140.84h-33.317v-33.459   h46.121l-11.005,29.336v-6.782h-1.799V140.84z M664.783,281.666H631.29v-15.918h33.493V281.666z M664.783,263.949H654.75v-15.793   h10.033V263.949z M664.783,246.358H654.75v-33.312l10.033,0.001V246.358z M699.871,281.666h-33.29v-15.918h33.29V281.666z    M688.142,195.364v15.885h-4.066v-6.295h-1.799v6.295h-4.066v-15.885H688.142z M678.21,193.566v-15.798h9.932v15.798H678.21z    M682.276,213.047v27.318h1.799v-27.318h4.066v33.312h-9.932v-33.312H682.276z M688.142,248.156v15.793h-9.932v-15.793H688.142z    M699.871,263.949h-9.932v-15.793h9.932V263.949z M699.871,246.358h-9.932v-33.312l9.932,0.001V246.358z M699.871,211.249h-9.932   v-15.885h9.932V211.249z M699.871,193.566h-9.932v-15.798h9.932V193.566z M699.871,175.971h-9.932v-11.303h-1.798v11.303h-9.932   v-11.303h-1.798v11.303h-9.831v-33.333h33.29V175.971z M699.871,140.84h-33.29v-10.9h-1.798v6.796l-11.049-29.351h46.137V140.84z    M699.871,105.587h-33.28V95.64h33.28V105.587z M699.871,93.842h-33.28V73.073l16.473,11.022l16.808-11.247V93.842z    M668.539,72.211h29.049l-14.524,9.719L668.539,72.211z M735.21,281.666h-33.54v-15.918h33.54V281.666z M735.21,263.949h-33.54   v-15.793h33.54V263.949z M735.21,246.358h-33.54v-33.311h33.54V246.358z M701.67,208.301v-30.532h15.099L701.67,208.301z    M718.226,178.879l16.132,32.371l-32.14-0.001L718.226,178.879z M735.21,208.927l-15.528-31.158h15.528V208.927z M735.21,175.971   h-33.54v-33.333h33.54V175.971z M735.21,140.84h-33.54v-21.736h33.54V140.84z M735.21,117.305h-33.54v-9.92h33.54V117.305z    M735.21,105.587h-33.54V95.64h33.54V105.587z M735.21,93.842h-33.54v-9.93h33.54V93.842z M735.21,82.114h-33.54v-9.902h33.54   V82.114z M735.21,70.414h-68.619V1.798h68.619V70.414z"/>
</g>
</svg>