<svg version="1" xmlns="http://www.w3.org/2000/svg" width="165" height="119.7" viewBox="0 0 165 119.7"><path d="M57.5 76.2c0 1.2-.8 1.6-1.4 1.6-.8 0-1.2-.6-1.2-1.4v-4.9h-1.1v5.4c0 1.2.7 1.8 1.9 1.8.7 0 1.4-.3 1.8-1v.9h1.2c0-.5-.1-1-.1-1.5v-5.6h-1.1v4.7zM65.7 78.6v-4.9c0-1.4-.4-2.3-1.9-2.3-.9 0-1.4.3-1.9 1h-.1v-.9h-1.2c0 .5.1 1 .1 1.5v5.6h1.2v-4.2c0-1 .2-2.1 1.4-2.1 1 0 1.2.6 1.2 1.4v4.9h1.2zM71.4 74.7c0 1.4 0 3-1.3 3-1.4 0-1.4-1.5-1.4-2.6 0-1.9.2-2.9 1.4-2.9 1.2.1 1.3 1.6 1.3 2.5m0-2.5c-.4-.6-.9-.9-1.6-.9-2.3 0-2.3 2-2.3 3.8 0 3.1 1.1 3.6 2.3 3.6.7 0 1.2-.3 1.6-1v.8h1.1v-10h-1.1v3.7zM78.6 78.6v-4.7h3.6v-1.1h-3.6v-3.2h3.7v-1.1h-5v10.1M85.9 77.8c-1.2 0-1.5-.8-1.5-3.1 0-1.9.6-2.4 1.5-2.4s1.5.4 1.5 2.4c0 2.2-.3 3.1-1.5 3.1m0 .9c1.5 0 2.7-.4 2.7-3.6 0-2.1-.2-3.8-2.7-3.8-2.4 0-2.7 1.7-2.7 3.8 0 3.2 1.2 3.6 2.7 3.6M91.5 71.5h-1.1v7.1h1.1v-4.2c0-1 .3-1.9 1.6-1.9.2 0 .4 0 .6.1v-1.2c-1.1 0-1.7.1-2.2 1.2v-1.1zM99.4 76.6c0-2.2-3.5-2.1-3.5-3.4 0-.6.5-1 1.1-1 .7 0 1.1.4 1.1 1.1h1.3c.1-1.4-1-2-2.2-2-2 0-2.4 1.2-2.4 1.9 0 2.1 3.5 2.1 3.5 3.4 0 .7-.5 1.1-1.2 1.1-1.2 0-1.2-1-1.2-1.4h-1.3c0 1.6.9 2.3 2.4 2.3 1.4.1 2.4-.5 2.4-2M105.8 73.8c.1-1.6-.8-2.4-2.2-2.4-2.4 0-2.7 1.7-2.7 3.8 0 3.1 1.2 3.6 2.7 3.6.8 0 2.3-.5 2.2-2.5h-1.2c0 1.3-.8 1.6-1 1.6-1.2 0-1.5-.8-1.5-3.1 0-1.9.6-2.4 1.5-2.4.4 0 1 .3 1 1.5l1.2-.1zM112.7 78.6v-5c0-1.6-.7-2.2-1.9-2.2-.9 0-1.5.2-1.9 1h-.1v-3.9h-1.1v10.1h1.1v-4.2c0-1.2.3-2.1 1.4-2.1 1 0 1.3.6 1.3 1.5v4.8h1.2zM118.5 76.2c0 1.2-.8 1.6-1.4 1.6-.8 0-1.2-.6-1.2-1.4v-4.9h-1.1v5.4c0 1.2.7 1.8 1.9 1.8.7 0 1.4-.3 1.8-1v.9h1.2c0-.5-.1-1-.1-1.5v-5.6h-1.1v4.7zM126.7 78.6v-4.9c0-1.4-.4-2.3-1.9-2.3-.9 0-1.4.3-1.9 1h-.1v-.9h-1.2c0 .5.1 1 .1 1.5v5.6h1.1v-4.2c0-1 .2-2.1 1.4-2.1 1 0 1.2.6 1.2 1.4v4.9h1.3zM132.3 75c0 1 0 2.6-1.3 2.6-.9 0-1.4-.5-1.4-2.8 0-.9 0-2.5 1.3-2.5 1.5 0 1.4 1.6 1.4 2.7m0-2.6c-.4-.7-.9-1-1.7-1-.6 0-2.2.2-2.2 3.5 0 2.1.4 3.8 2.3 3.8.6 0 1.3-.3 1.6-.9v1.5c0 .7-.4 1.2-1.2 1.2-.6 0-1.1-.4-1.1-1h-1.3c-.1 1.3 1 1.9 2.1 1.9 1.6 0 2.6-.4 2.6-2v-7.8h-1.1v.8zM53.3 56.5v.9h1.1v6.2h1.1v-6.2h1.4v-.9h-1.4v-1.2c0-.6.2-1.1 1.4-1v-.8h-.5c-1 0-2 .3-2 1.7v1.4h-1.1v-.1zM60 53.9h-1.3v1.5H60v-1.5zm2.4 0h-1.3v1.5h1.3v-1.5zm-.6 7.3c0 1.2-.8 1.6-1.4 1.6-.8 0-1.2-.6-1.2-1.4v-4.9h-1.1v5.4c0 1.2.7 1.8 1.9 1.8.7 0 1.4-.3 1.8-1v.9H63c0-.5-.1-1-.1-1.5v-5.6h-1.1v4.7zM66.2 56.5h-1.1v7.1h1.1v-4.2c0-1 .3-1.9 1.6-1.9.2 0 .4 0 .6.1v-1.2c-1.1 0-1.7.1-2.2 1.2v-1.1zM73.2 58.8h1.4c1.3 0 2.3.3 2.3 1.9 0 .7-.5 1.7-1.9 1.7h-1.8v-3.6zm0-4.2H75c1.1 0 1.6.7 1.6 1.5 0 1-.5 1.6-1.5 1.6h-1.9v-3.1zm2 9c1.1 0 3-.3 3-2.8 0-1.4-.6-2.3-2.1-2.4v-.1c1.3-.3 1.7-1.1 1.7-2.4 0-.2-.1-.8-.4-1.3-.4-.6-.9-1-2.3-1h-3.3v10.1l3.4-.1zM81.2 56.5h-1.1v7.1h1.1v-7.1zM80 54.7h1.3v-1.2H80v1.2zM83.3 53.5h1.1v10.1h-1.1zM90.2 59.7c0 1.4 0 3-1.3 3-1.4 0-1.4-1.5-1.4-2.6 0-1.9.2-2.9 1.4-2.9 1.2.1 1.3 1.6 1.3 2.5m0-2.5c-.4-.6-.9-.9-1.6-.9-2.3 0-2.3 2-2.3 3.8 0 3.1 1.1 3.6 2.3 3.6.7 0 1.2-.3 1.6-1v.8h1.1v-10h-1.1v3.7zM97.2 61.2c0 1.2-.8 1.6-1.4 1.6-.8 0-1.2-.6-1.2-1.4v-4.9h-1.2v5.4c0 1.2.7 1.8 1.9 1.8.7 0 1.4-.3 1.8-1v.9h1.2c0-.5-.1-1-.1-1.5v-5.6h-1.1l.1 4.7zM105.4 63.6v-4.9c0-1.4-.4-2.3-1.9-2.3-.9 0-1.4.3-1.9 1h-.1v-.9h-1.2c0 .5.1 1 .1 1.5v5.6h1.1v-4.2c0-1 .2-2.1 1.4-2.1 1 0 1.2.6 1.2 1.4v4.9h1.3zM111.1 60c0 1 0 2.6-1.3 2.6-.9 0-1.4-.5-1.4-2.8 0-.9 0-2.5 1.3-2.5 1.5 0 1.4 1.6 1.4 2.7m0-2.6c-.4-.7-.9-1-1.7-1-.6 0-2.2.2-2.2 3.5 0 2.1.4 3.8 2.3 3.8.6 0 1.3-.3 1.6-.9v1.5c0 .7-.4 1.2-1.2 1.2-.6 0-1.1-.4-1.1-1h-1.3c-.1 1.3 1 1.9 2.1 1.9 1.6 0 2.6-.4 2.6-2v-7.8h-1.1v.8zM55.1 43.8h1.4c1.3 0 2.3.3 2.3 1.9 0 .7-.5 1.7-1.9 1.7h-1.8v-3.6zm0-4.2h1.8c1.1 0 1.6.7 1.6 1.5 0 1-.5 1.6-1.5 1.6h-1.9v-3.1zm2 9c1.2 0 3-.3 3-2.8 0-1.4-.6-2.3-2.1-2.4v-.1c1.3-.3 1.7-1.1 1.7-2.4 0-.2-.1-.8-.4-1.3-.4-.6-.9-1-2.3-1h-3.3v10.1l3.4-.1zM65.5 46.2c0 1.2-.8 1.6-1.4 1.6-.8 0-1.2-.6-1.2-1.4v-4.9h-1.1v5.4c0 1.2.7 1.8 1.9 1.8.7 0 1.4-.3 1.8-1v.9h1.2c0-.5-.1-1-.1-1.5v-5.6h-1.1v4.7zM73.7 48.6v-4.9c0-1.4-.4-2.3-1.9-2.3-.9 0-1.4.3-1.9 1h-.1v-.9h-1.2c0 .5.1 1 .1 1.5v5.6h1.1v-4.2c0-1 .2-2.1 1.4-2.1 1 0 1.2.6 1.2 1.4v4.9h1.3zM79.4 44.7c0 1.4 0 3-1.3 3-1.4 0-1.4-1.5-1.4-2.6 0-1.9.2-2.9 1.4-2.9 1.2.1 1.3 1.6 1.3 2.5m0-2.5c-.4-.6-.9-.9-1.6-.9-2.3 0-2.3 2-2.3 3.8 0 3.1 1.1 3.6 2.3 3.6.7 0 1.2-.3 1.6-1v.8h1.1v-10h-1.1v3.7zM83.5 44.5c0-2 .6-2.3 1.3-2.3.8 0 1.4.3 1.4 2.3h-2.7zm4 .9v-.6c0-2.3-.5-3.4-2.5-3.4-2.4 0-2.7 1.7-2.7 3.8 0 3.1 1.2 3.6 2.7 3.6s2.4-.7 2.5-2.3h-1.3c0 .7-.4 1.3-1.2 1.3-.9 0-1.4-.4-1.4-2.4h3.9zM93.8 46.6c0-2.2-3.5-2.1-3.5-3.4 0-.6.5-1 1.1-1 .7 0 1.1.4 1.1 1.1h1.3c.1-1.4-1-2-2.2-2-2 0-2.4 1.2-2.4 1.9 0 2.1 3.5 2.1 3.5 3.4 0 .7-.5 1.1-1.2 1.1-1.2 0-1.2-1-1.2-1.4H89c0 1.6.9 2.3 2.4 2.3 1.3.1 2.4-.5 2.4-2M100.2 48.6v-4.8c0-.3.1-1 .4-1.2.3-.3.4-.3.9-.3.9 0 1.1.7 1.1 1.4v4.9h1.1v-5.4c0-1.7-1.2-1.8-1.9-1.8-.6 0-1.3.2-1.7.9-.3-.6-1-.9-1.7-.9-.8 0-1.4.3-1.8 1v-.9h-1.2c0 .5.1 1 .1 1.5v5.6h1.1v-4.8c0-.3.1-.7.3-1 .2-.3.6-.5 1-.5.9 0 1.1.7 1.1 1.4v4.9h1.2zM106.9 41.5h-1.1v7.1h1.1v-7.1zm-1.2-1.8h1.3v-1.2h-1.3v1.2zM114 48.6v-4.9c0-1.4-.4-2.3-1.9-2.3-.9 0-1.4.3-1.9 1h-.1v-.9h-1.2c0 .5.1 1 .1 1.5v5.6h1.1v-4.2c0-1 .2-2.1 1.4-2.1 1 0 1.2.6 1.2 1.4v4.9h1.3zM117.1 41.5H116v7.1h1.1v-7.1zm-1.2-1.8h1.3v-1.2h-1.3v1.2zM123.7 46.6c0-2.2-3.5-2.1-3.5-3.4 0-.6.5-1 1.1-1 .7 0 1.1.4 1.1 1.1h1.3c.1-1.4-1-2-2.2-2-2 0-2.4 1.2-2.4 1.9 0 2.1 3.5 2.1 3.5 3.4 0 .7-.5 1.1-1.2 1.1-1.2 0-1.2-1-1.2-1.4h-1.3c0 1.6.9 2.3 2.4 2.3 1.3.1 2.4-.5 2.4-2M124.4 41.5v.9h1.2v5c0 .8.5 1.3 1.6 1.3.4 0 .8-.1 1.1-.1v-.9c-.3 0-.4.1-.5.1-1 0-1-.6-1-1v-4.3h1.5v-.9h-1.5v-1.9l-1.2.5v1.4l-1.2-.1zM130.5 44.5c0-2 .6-2.3 1.3-2.3.8 0 1.4.3 1.4 2.3h-2.7zm4 .9v-.6c0-2.3-.5-3.4-2.5-3.4-2.5 0-2.7 1.7-2.7 3.8 0 3.1 1.2 3.6 2.7 3.6s2.4-.7 2.5-2.3h-1.3c0 .7-.4 1.3-1.2 1.3-.9 0-1.4-.4-1.4-2.4h3.9zM137.3 41.5h-1.1v7.1h1.1v-4.2c0-1 .3-1.9 1.6-1.9.2 0 .4 0 .6.1v-1.2c-1.1 0-1.7.1-2.2 1.2v-1.1zM141.9 41.5h-1.1v7.1h1.1v-7.1zm-1.2-1.8h1.3v-1.2h-1.3v1.2zM147.6 46.2c0 1.2-.8 1.6-1.4 1.6-.8 0-1.2-.6-1.2-1.4v-4.9h-1.1v5.4c0 1.2.7 1.8 1.9 1.8.7 0 1.4-.3 1.8-1v.9h1.2c0-.5-.1-1-.1-1.5v-5.6h-1.1v4.7zM155.5 48.6v-4.8c0-.3.1-1 .4-1.2.3-.3.4-.3.9-.3.9 0 1.1.7 1.1 1.4v4.9h1.2v-5.4c0-1.7-1.2-1.8-1.9-1.8-.6 0-1.3.2-1.7.9-.3-.6-1-.9-1.7-.9-.8 0-1.4.3-1.8 1v-.9h-1.2c0 .5.1 1 .1 1.5v5.6h1.1v-4.8c0-.3.1-.7.3-1s.6-.5 1-.5c.9 0 1.1.7 1.1 1.4v4.9h1.1z" fill="#1E1E1C"/><path fill="#F9D300" d="M40.5 88.6h4.4v25h-4.4z"/><path fill="#E20717" d="M40.5 63.5h4.4v25.1h-4.4z"/><path fill="#1E1E1C" d="M40.5 38.6h4.4v25h-4.4zM26.7 42.8c0-1.4-1-2.6-1.4-2.9l-.2.1c.4.5 1.1 1.3 1.1 2.3 0 2.1-2.2 3.9-4.7 3.9v.6c0 .3 0 .6-.1.9 2.8-.1 5.3-2.4 5.3-4.9m-3.9 17.1c-1.2 0-1.5-.1-1.8-.1-.2 0-.4 0-.4.3 0 .2.2.5.4.6.3-.3.7-.3 1.3-.3.3 0 .7.1.9.1 0 .2-.1.4-.1.7v.6c0 .7-.1 1.1-.4 1.4.1 0 .2.1.3.1.5 0 .6-.2.6-1.4v-.8c.6.5 1.3 1.4 1.3 2 .2-.1.5-.4.5-.7 0-.4-.7-1.1-1.5-1.9.1 0 .4-.1.6-.1.6 0 1.1.1 1.4.4.1-.1.2-.5.2-.7 0-.4-.2-.3-.4-.3-.6 0-1.4.1-2 .2-.2-.3-1.5-2.1-1.9-3-.1 0-.2-.1-.3-.1-.3 0-.4.2-.5.5.9.9 1.6 1.8 1.8 2.5m-7.2-2.5c-.1-.3-.2-.5-.5-.5-.2 0-.2 0-.3.1-.3.9-1.7 2.7-1.9 3-.6-.1-1.4-.2-2-.2-.2 0-.4 0-.4.3 0 .2.1.6.2.7.3-.3.8-.4 1.4-.4.2 0 .5.1.6.1-.8.8-1.5 1.4-1.5 1.9 0 .2.2.6.5.7 0-.6.7-1.5 1.3-2v.8c0 1.2.1 1.4.6 1.4.1 0 .2 0 .3-.1-.2-.3-.4-.7-.4-1.4v-.6c0-.3 0-.5-.1-.7.2 0 .6-.1.9-.1.6 0 1 .1 1.3.3.2-.2.4-.4.4-.6 0-.3-.2-.3-.4-.3-.3 0-.6.1-1.8.1.4-.7 1.1-1.6 1.8-2.5m-5-15.1c0-1 .7-1.8 1.1-2.3l-.3-.1c-.4.3-1.4 1.4-1.4 2.9 0 2.5 2.5 4.8 5.4 4.8v-.9-.6c-2.5.1-4.8-1.7-4.8-3.8m7.7-1.9c.1-.3.3-.7.3-1 0-1.1-.9-1.6-2.1-1.6-.6 0-.9.2-.9.4s.2.6.3.8c.2-.1.6-.2.9-.2.8-.1 1.4.8 1.5 1.6m.6-1.4c.7.1 1.2-.8.5-.9.1.3-.4.5-.4.5s-.2-.4 0-.6c-.4-.2-.5 0-.5.3.3.2.4.4.4.7m2.3 6.1h.3c2 0 3.9-1.3 3.9-2.9 0-.9-.4-1.5-.9-2.2-.3 0-.5.1-.7.1-.9 0-1.4-.5-1.4-1 0-.4.3-.7.9-.7.8 0 2.3.8 3.9.8-.2.1-.4.2-.7.3.9.8 1.5 1.9 1.7 3l2.3 3.7c.4.6 1.2 1.9 2.5 2.8-1.5 0-2.5 0-3.8-2L28 45.3c-.1.2-.2.5-.3.7l2.4 3.8c.4.6 1.2 1.9 2.5 2.8-1.5 0-2.5 0-3.8-2l-2.1-3.3-.5.5 2.9 4.6c.4.6 1.2 1.8 2.5 2.8-1.5 0-2.5 0-3.8-2L25 48.7l-.6.3 3.4 5.5c.4.6 1.2 1.8 2.5 2.8-1.5 0-2.5 0-3.8-2L23 49.6c-.2.1-.4.2-.6.2l4 6.4c.4.6 1.2 1.9 2.5 2.8-1.5 0-2.5 0-3.8-2l-4.3-6.8h-.1c-.1.4-.2.7-.2 1.1 0 2.1 1.4 4 3.1 5.5-.1 0-.3.1-.5.1h-.7c.4.9 1.2 2 1.7 2.6.6-.1 1.4-.2 1.9-.2.6 0 .6.3.6.6 0 .5-.2.9-.5 1.1-.1-.3-.3-.6-1.3-.6h-.1c.3.3 1.2 1.1 1.2 1.7 0 .4-.4 1-1 1v-.3c0-.5-.4-1.1-.8-1.5v.2c0 1.2-.1 1.7-.8 1.7-.4 0-.6-.2-.7-.3.5-.4.5-.8.5-1.4v-.6-.5h-.6s-1.1-.1-1.3.5c-.3-.3-.7-.6-.7-1 0-.3.1-.6.7-.6.2 0 .8.1 1.4.1-.1-.3-.8-1.3-1.3-2-.1.3-.2.6-.5.8 0-.4-.3-1.8-1-2.6-.1.5-.2 1.1-.2 2.3 0 2.9.7 5 2.2 5.4-.2.3-.6.6-1 .6-.5 0-.8-.6-1.1-1.2-.2.4-.6 1.5-1 1.5s-.9-1-1-1.5c-.3.6-.6 1.2-1.1 1.2-.4 0-.8-.3-1-.6 1.5-.4 2.2-2.5 2.2-5.4 0-1.2-.1-1.8-.2-2.3-.7.8-.9 2.2-1 2.6-.3-.2-.4-.5-.5-.8-.6.7-1.2 1.6-1.3 2 .5 0 1.2-.1 1.4-.1.5 0 .7.3.7.6 0 .4-.4.8-.7 1-.3-.5-1.3-.5-1.3-.5h-.6v1.1c0 .7 0 1 .5 1.4-.1.1-.3.3-.7.3-.7 0-.8-.5-.8-1.7v-.2c-.4.4-.8 1-.8 1.5v.3c-.6 0-1-.6-1-1 0-.6.9-1.4 1.2-1.7h-.1c-1 0-1.2.3-1.3.6-.3-.2-.5-.6-.5-1.1 0-.3.1-.6.6-.6s1.3.1 1.9.2c.4-.6 1.3-1.7 1.7-2.6h-.7c-.2 0-.4 0-.5-.1 1.7-1.5 3.1-3.4 3.1-5.5 0-.3-.1-.7-.2-1.1h-.1L12.3 57c-1.3 2-2.3 2-3.8 2 1.2-1 2.1-2.2 2.5-2.8l4-6.4c-.2-.1-.4-.1-.6-.2l-3.5 5.7c-1.3 2-2.3 2-3.8 2 1.3-1 2.1-2.2 2.5-2.8L13 49l-.6-.3L9 53.3c-1.3 2-2.3 2-3.8 2 1.3-1 2.1-2.2 2.5-2.8l2.9-4.6-.5-.5L8 50.6c-1.3 2-2.3 2-3.8 2 1.3-1 2.1-2.2 2.5-2.8L9.1 46c-.1-.2-.2-.5-.3-.7l-1.2 1.9c-1.3 2-2.3 2-3.8 2 1.3-1 2.1-2.2 2.5-2.8l2.3-3.7c.2-1.2.8-2.2 1.7-3-.3-.1-.5-.2-.7-.3 1.5 0 3-.8 3.9-.8.5 0 .9.3.9.7 0 .5-.5 1-1.4 1-.2 0-.5 0-.7-.1-.5.7-.9 1.3-.9 2.2 0 1.6 2 2.9 3.9 2.9h.3c.4-1.3 1.2-2.2 1.9-3-.8-.3-1.7-1-1.7-1.4.1-.1 1.6.4 1.8.5h.1c.2-.1.3-.3.3-.4-.2 0-1.1-.2-1.8-.4-.5-.2-.8-.5-.8-.6.2 0 .8.3 1.7.3.3 0 .4 0 .7-.1-.2-.5-.7-1-1.1-1-.2 0-.6.1-1 .3-.2-.4-.5-.9-.5-1.2s.3-.7 1.2-.7c.3 0 .5 0 .7.1.2 0 .3.1.5.1v-.1c0-.1.1-.3.5-.3.8 0 1.5.2 2.5.2.2 0 .4 0 .6-.1-.1.2-.3.5-.6.7.2.2.5.7.5 1.5 0 1.3-.8 2.4-.8 3.7.1.7.7 1.3.9 1.7M56.8 8.9c0-.7-.3-1.1-1.1-1.1-.3 0-1.2 0-1.2 1.4v2.1c0 1.4.4 1.7 1.2 1.7.6 0 1-.2 1.1-.3v-1.9h-1.2v-.7h2v3.1c-.5.3-1.1.5-1.9.5-1.3 0-2-.7-2-2.4V9.2c0-1.3.6-2.1 2-2.1s2 .5 2 1.8h-.9zM59.2 13.6V7.3h3.2V8H60v2h2.2v.7H60v2.2h2.5v.7M63.5 13.6V7.3h3.1V8h-2.3v2h2.2v.7h-2.2v2.9M67.4 11.3V9.2c0-1.3.6-2.1 2-2.1 1.3 0 2 .8 2 2.1v2.1c0 1.8-.6 2.4-2 2.4s-2-.7-2-2.4M69 6.5h-.8v-.9h.8v.9zm1.5 4.8V9.2c0-1.3-.9-1.4-1.2-1.4-.3 0-1.2 0-1.2 1.4v2.1c0 1.4.4 1.7 1.2 1.7.8 0 1.2-.3 1.2-1.7m.1-4.8h-.8v-.9h.8v.9zM73.5 10.7v2.9h-.8V7.3h2.2c1.1 0 1.5.8 1.5 1.6 0 .7-.4 1.3-1.2 1.4.7.1 1 .4 1 1.6 0 .3.1 1.3.2 1.7h-.8c-.2-.4-.2-1.3-.2-2.1-.1-.8-.7-.8-1-.8h-.9zm0-.7h1.2c.6 0 .9-.5.9-1.1 0-.5-.2-1-.8-1h-1.2l-.1 2.1zM77.6 7.3h1.9c.8 0 1.4.3 1.7 1 .3.5.3 1.8.3 2 0 1.3-.1 2.1-.4 2.5-.3.5-1 .8-2.1.8h-1.5l.1-6.3zm.8 5.6h.8c1.1 0 1.5-.4 1.5-1.9V9.7c0-1.3-.4-1.7-1.2-1.7h-1.1v4.9zM83 13.6V7.3h3.2V8h-2.4v2H86v.7h-2.2v2.2h2.5v.7M88.1 10.7v2.9h-.8V7.3h2.2c1.1 0 1.5.7 1.5 1.5 0 .7-.4 1.3-1.2 1.4.7.1 1 .4 1 1.6 0 .3.1 1.3.2 1.7h-.8c-.2-.4-.2-1.3-.2-2.1-.1-.8-.7-.8-1-.8h-.9v.1zm0-.7h1.2c.6 0 .9-.5.9-1.1 0-.5-.2-1-.8-1h-1.2l-.1 2.1zM95.8 7.3V8h-1.7v5.6h-.8V8h-1.7v-.7M100.7 13.6h-.9l-1.9-6.3h.9l1.4 5.5h.1l1.4-5.5h.9M103.4 11.3V9.2c0-1.3.6-2.1 2-2.1 1.3 0 2 .8 2 2.1v2.1c0 1.8-.6 2.4-2 2.4s-2-.7-2-2.4m3.1 0V9.2c0-1.3-.9-1.4-1.2-1.4s-1.2 0-1.2 1.4v2.1c0 1.4.4 1.7 1.2 1.7.8 0 1.2-.3 1.2-1.7M109.5 13.6h-.8V7.3h1.3l1.6 5.3h.1l1.6-5.3h1.3v6.3h-.8V8l-1.8 5.6h-.8L109.5 8"/></svg>