<svg version="1" xmlns="http://www.w3.org/2000/svg" xmlns:xlink="http://www.w3.org/1999/xlink" width="187.7" height="119.7" viewBox="0 0 187.7 119.7"><path fill="#FFF" d="M-547 284.6h211.5v150H-547z"/><path d="M-472.5 372.2c0 1.2-.8 1.6-1.4 1.6-.8 0-1.2-.6-1.2-1.4v-4.9h-1.1v5.4c0 1.2.7 1.8 1.9 1.8.7 0 1.4-.4 1.8-1v.9h1.2c0-.5-.1-1-.1-1.5v-5.6h-1.1v4.7zM-464.3 374.6v-4.9c0-1.4-.4-2.3-1.9-2.3-.9 0-1.4.3-1.9 1h-.1v-.9h-1.2c0 .5.1 1 .1 1.5v5.6h1.2v-4.2c0-1 .2-2.1 1.4-2.1 1 0 1.2.6 1.2 1.4v4.9h1.2zM-458.6 370.7c0 1.4 0 3-1.3 3-1.4 0-1.4-1.5-1.4-2.6 0-1.9.2-2.9 1.4-2.9 1.2.1 1.3 1.6 1.3 2.5m0-2.5c-.4-.6-.9-.9-1.6-.9-2.3 0-2.3 2-2.3 3.8 0 3.1 1.1 3.6 2.3 3.6.7 0 1.2-.3 1.6-1v.8h1.1v-10.1h-1.1v3.8zM-451.4 374.6v-4.7h3.6v-1.1h-3.6v-3.2h3.7v-1.1h-5v10.1M-444.1 373.8c-1.2 0-1.5-.8-1.5-3.1 0-1.9.6-2.4 1.5-2.4s1.5.4 1.5 2.4c0 2.2-.3 3.1-1.5 3.1m0 .9c1.5 0 2.7-.4 2.7-3.6 0-2.1-.2-3.8-2.7-3.8s-2.7 1.7-2.7 3.8c0 3.2 1.2 3.6 2.7 3.6M-438.5 367.5h-1.1v7.1h1.1v-4.2c0-1 .3-1.9 1.6-1.9.2 0 .4 0 .6.1v-1.2c-1.1 0-1.7.1-2.2 1.2v-1.1zM-430.6 372.6c0-2.2-3.5-2.1-3.5-3.4 0-.6.5-1 1.1-1 .7 0 1.1.4 1.1 1.1h1.3c.1-1.4-1-2-2.2-2-2 0-2.4 1.2-2.4 1.9 0 2.1 3.5 2.1 3.5 3.4 0 .7-.5 1.1-1.2 1.1-1.2 0-1.2-1-1.2-1.4h-1.3c0 1.6.9 2.3 2.4 2.3 1.4.1 2.4-.5 2.4-2M-424.2 369.8c.1-1.6-.8-2.4-2.2-2.4-2.4 0-2.7 1.7-2.7 3.8 0 3.1 1.2 3.6 2.7 3.6.8 0 2.3-.5 2.2-2.5h-1.2c0 1.3-.8 1.6-1 1.6-1.2 0-1.5-.8-1.5-3.1 0-1.9.6-2.4 1.5-2.4.4 0 1 .3 1 1.5h1.2zM-417.3 374.6v-5c0-1.6-.7-2.2-1.9-2.2-.9 0-1.5.2-1.9 1h-.1v-3.9h-1.1v10.1h1.1v-4.2c0-1.2.3-2.1 1.4-2.1 1 0 1.3.6 1.3 1.5v4.8h1.2zM-411.5 372.2c0 1.2-.8 1.6-1.4 1.6-.8 0-1.2-.6-1.2-1.4v-4.9h-1.1v5.4c0 1.2.7 1.8 1.9 1.8.7 0 1.4-.4 1.8-1v.9h1.2c0-.5-.1-1-.1-1.5v-5.6h-1.1v4.7zM-403.3 374.6v-4.9c0-1.4-.4-2.3-1.9-2.3-.9 0-1.4.3-1.9 1h-.1v-.9h-1.2c0 .5.1 1 .1 1.5v5.6h1.1v-4.2c0-1 .2-2.1 1.4-2.1 1 0 1.2.6 1.2 1.4v4.9h1.3zM-397.7 371c0 1 0 2.6-1.3 2.6-.9 0-1.4-.5-1.4-2.8 0-.9 0-2.5 1.3-2.5 1.5 0 1.4 1.6 1.4 2.7m0-2.6c-.4-.7-.9-1-1.7-1-.6 0-2.2.2-2.2 3.5 0 2.1.4 3.8 2.3 3.8.6 0 1.3-.3 1.6-.9v1.5c0 .7-.4 1.2-1.2 1.2-.6 0-1.1-.4-1.1-1h-1.3c-.1 1.3 1 1.9 2.1 1.9 1.6 0 2.6-.4 2.6-2v-7.8h-1.1v.8zM-476.7 352.5v.9h1.1v6.2h1.1v-6.2h1.4v-.9h-1.4v-1.2c0-.6.2-1.1 1.4-1v-.8h-.5c-1 0-2 .3-2 1.7v1.4h-1.1zM-470 349.9h-1.3v1.5h1.3v-1.5zm2.4 0h-1.3v1.5h1.3v-1.5zm-.6 7.3c0 1.2-.8 1.6-1.4 1.6-.8 0-1.2-.6-1.2-1.4v-4.9h-1.1v5.4c0 1.2.7 1.8 1.9 1.8.7 0 1.4-.3 1.8-1v.9h1.2c0-.5-.1-1-.1-1.5v-5.6h-1.1v4.7zM-463.8 352.5h-1.1v7.1h1.1v-4.2c0-1 .3-1.9 1.6-1.9.2 0 .4 0 .6.1v-1.2c-1.1 0-1.7.1-2.2 1.2v-1.1zM-456.8 354.8h1.4c1.3 0 2.3.3 2.3 1.9 0 .7-.5 1.7-1.9 1.7h-1.8v-3.6zm0-4.2h1.8c1.1 0 1.6.7 1.6 1.5 0 1-.5 1.6-1.5 1.6h-1.9v-3.1zm2 9c1.1 0 3-.3 3-2.8 0-1.4-.6-2.3-2.1-2.4v-.1c1.3-.3 1.7-1.1 1.7-2.4 0-.2-.1-.8-.4-1.3-.4-.6-.9-1-2.3-1h-3.3v10.1h3.4zM-448.8 352.5h-1.1v7.1h1.1v-7.1zm-1.2-1.8h1.3v-1.2h-1.3v1.2zM-446.7 349.5h1.1v10.1h-1.1zM-439.8 355.7c0 1.4 0 3-1.3 3-1.4 0-1.4-1.5-1.4-2.6 0-1.9.2-2.9 1.4-2.9 1.2.1 1.3 1.6 1.3 2.5m0-2.5c-.4-.6-.9-.9-1.6-.9-2.3 0-2.3 2-2.3 3.8 0 3.1 1.1 3.6 2.3 3.6.7 0 1.2-.3 1.6-1v.8h1.1v-10.1h-1.1v3.8zM-432.8 357.2c0 1.2-.8 1.6-1.4 1.6-.8 0-1.2-.6-1.2-1.4v-4.9h-1.2v5.4c0 1.2.7 1.8 1.9 1.8.7 0 1.4-.3 1.8-1v.9h1.2c0-.5-.1-1-.1-1.5v-5.6h-1.1v4.7zM-424.6 359.6v-4.9c0-1.4-.4-2.3-1.9-2.3-.9 0-1.4.3-1.9 1h-.1v-.9h-1.2c0 .5.1 1 .1 1.5v5.6h1.1v-4.2c0-1 .2-2.1 1.4-2.1 1 0 1.2.6 1.2 1.4v4.9h1.3zM-418.9 356c0 1 0 2.6-1.3 2.6-.9 0-1.4-.5-1.4-2.8 0-.9 0-2.5 1.3-2.5 1.5 0 1.4 1.6 1.4 2.7m0-2.6c-.4-.7-.9-1-1.7-1-.6 0-2.2.2-2.2 3.5 0 2.1.4 3.8 2.3 3.8.6 0 1.3-.3 1.6-.9v1.5c0 .7-.4 1.2-1.2 1.2-.6 0-1.1-.4-1.1-1h-1.3c-.1 1.3 1 1.9 2.1 1.9 1.6 0 2.6-.4 2.6-2v-7.8h-1.1v.8zM-474.9 339.8h1.4c1.3 0 2.3.3 2.3 1.9 0 .7-.5 1.7-1.9 1.7h-1.8v-3.6zm0-4.2h1.8c1.1 0 1.6.7 1.6 1.5 0 1-.5 1.6-1.5 1.6h-1.9v-3.1zm2 9c1.2 0 3-.3 3-2.8 0-1.4-.6-2.3-2.1-2.4v-.1c1.3-.3 1.7-1.1 1.7-2.4 0-.2-.1-.8-.4-1.3-.4-.6-.9-1-2.3-1h-3.3v10.1h3.4zM-464.5 342.2c0 1.2-.8 1.6-1.4 1.6-.8 0-1.2-.6-1.2-1.4v-4.9h-1.1v5.4c0 1.2.7 1.8 1.9 1.8.7 0 1.4-.3 1.8-1v.9h1.2c0-.5-.1-1-.1-1.5v-5.6h-1.1v4.7zM-456.3 344.6v-4.9c0-1.4-.4-2.3-1.9-2.3-.9 0-1.4.3-1.9 1h-.1v-.9h-1.2c0 .5.1 1 .1 1.5v5.6h1.1v-4.2c0-1 .2-2.1 1.4-2.1 1 0 1.2.6 1.2 1.4v4.9h1.3zM-450.6 340.7c0 1.4 0 3-1.3 3-1.4 0-1.4-1.5-1.4-2.6 0-1.9.2-2.9 1.4-2.9 1.2.1 1.3 1.6 1.3 2.5m0-2.5c-.4-.6-.9-.9-1.6-.9-2.3 0-2.3 2-2.3 3.8 0 3.1 1.1 3.6 2.3 3.6.7 0 1.2-.3 1.6-1v.8h1.1v-10.1h-1.1v3.8zM-446.5 340.5c0-2 .6-2.3 1.3-2.3.8 0 1.4.3 1.4 2.3h-2.7zm4 .9v-.6c0-2.3-.5-3.4-2.5-3.4-2.4 0-2.7 1.7-2.7 3.8 0 3.1 1.2 3.6 2.7 3.6 1.5 0 2.5-.7 2.5-2.3h-1.3c0 .7-.5 1.3-1.2 1.3-.9 0-1.4-.4-1.4-2.4h3.9zM-436.2 342.6c0-2.2-3.5-2.1-3.5-3.4 0-.6.5-1 1.1-1 .7 0 1.1.4 1.1 1.1h1.3c.1-1.4-1-2-2.2-2-2 0-2.4 1.2-2.4 1.9 0 2.1 3.5 2.1 3.5 3.4 0 .7-.5 1.1-1.2 1.1-1.2 0-1.2-1-1.2-1.4h-1.3c0 1.6.9 2.3 2.4 2.3 1.3.1 2.4-.5 2.4-2M-429.8 344.6v-4.8c0-.3.1-1 .4-1.2.3-.3.4-.3.9-.3.9 0 1.1.7 1.1 1.4v4.9h1.1v-5.4c0-1.7-1.2-1.8-1.9-1.8-.6 0-1.3.2-1.7.9-.3-.6-1-.9-1.7-.9-.8 0-1.4.3-1.8 1v-.9h-1.2c0 .5.1 1 .1 1.5v5.6h1.1v-4.8c0-.3.1-.7.3-1 .2-.3.6-.5 1-.5.9 0 1.1.7 1.1 1.4v4.9h1.2zM-423.1 337.5h-1.1v7.1h1.1v-7.1zm-1.2-1.8h1.3v-1.2h-1.3v1.2zM-416 344.6v-4.9c0-1.4-.4-2.3-1.9-2.3-.9 0-1.4.3-1.9 1h-.1v-.9h-1.2c0 .5.1 1 .1 1.5v5.6h1.1v-4.2c0-1 .2-2.1 1.4-2.1 1 0 1.2.6 1.2 1.4v4.9h1.3zM-412.9 337.5h-1.1v7.1h1.1v-7.1zm-1.2-1.8h1.3v-1.2h-1.3v1.2zM-406.3 342.6c0-2.2-3.5-2.1-3.5-3.4 0-.6.5-1 1.1-1 .7 0 1.1.4 1.1 1.1h1.3c.1-1.4-1-2-2.2-2-2 0-2.4 1.2-2.4 1.9 0 2.1 3.5 2.1 3.5 3.4 0 .7-.5 1.1-1.2 1.1-1.2 0-1.2-1-1.2-1.4h-1.3c0 1.6.9 2.3 2.4 2.3 1.3.1 2.4-.5 2.4-2M-405.6 337.5v.9h1.2v5c0 .8.5 1.3 1.6 1.3.4 0 .8-.1 1.1-.1v-.9c-.3 0-.4.1-.5.1-1 0-1-.6-1-1v-4.3h1.5v-.9h-1.5v-1.9l-1.2.5v1.4h-1.2zM-399.5 340.5c0-2 .6-2.3 1.3-2.3.8 0 1.4.3 1.4 2.3h-2.7zm4 .9v-.6c0-2.3-.5-3.4-2.5-3.4-2.5 0-2.7 1.7-2.7 3.8 0 3.1 1.2 3.6 2.7 3.6 1.5 0 2.4-.7 2.5-2.3h-1.3c0 .7-.4 1.3-1.2 1.3-.9 0-1.4-.4-1.4-2.4h3.9zM-392.7 337.5h-1.1v7.1h1.1v-4.2c0-1 .3-1.9 1.6-1.9.2 0 .4 0 .6.1v-1.2c-1.1 0-1.7.1-2.2 1.2v-1.1zM-388.1 337.5h-1.1v7.1h1.1v-7.1zm-1.2-1.8h1.3v-1.2h-1.3v1.2zM-382.4 342.2c0 1.2-.8 1.6-1.4 1.6-.8 0-1.2-.6-1.2-1.4v-4.9h-1.1v5.4c0 1.2.7 1.8 1.9 1.8.7 0 1.4-.3 1.8-1v.9h1.2c0-.5-.1-1-.1-1.5v-5.6h-1.1v4.7zM-374.5 344.6v-4.8c0-.3.1-1 .4-1.2.3-.3.4-.3.9-.3.9 0 1.1.7 1.1 1.4v4.9h1.1v-5.4c0-1.7-1.2-1.8-1.9-1.8-.6 0-1.3.2-1.7.9-.3-.6-1-.9-1.7-.9-.8 0-1.4.3-1.8 1v-.9h-1.2c0 .5.1 1 .1 1.5v5.6h1.1v-4.8c0-.3.1-.7.3-1 .2-.3.6-.5 1-.5.9 0 1.1.7 1.1 1.4v4.9h1.2z" fill="#1E1E1C"/><path fill="#F9D300" d="M-489.5 384.6h4.4v25h-4.4z"/><path fill="#E20717" d="M-489.5 359.5h4.4v25.1h-4.4z"/><path fill="#1E1E1C" d="M-489.5 334.6h4.4v25h-4.4zM-503.29999999999995 338.8c0-1.4-1-2.6-1.4-2.9l-.3.1c.4.5 1.1 1.3 1.1 2.3 0 2.1-2.2 3.9-4.7 3.9v.6c0 .3 0 .6-.1.9 2.9-.1 5.4-2.4 5.4-4.9m-3.9 17.1c-1.2 0-1.5-.1-1.8-.1-.2 0-.4 0-.4.3 0 .2.2.5.4.6.3-.3.7-.3 1.3-.3.3 0 .7.1.9.1 0 .2-.1.4-.1.7v.6c0 .7-.1 1.1-.4 1.4.1 0 .2.1.3.1.5 0 .6-.2.6-1.4v-.8c.6.5 1.3 1.4 1.3 2 .2-.1.5-.4.5-.7 0-.4-.7-1.1-1.5-1.9.1 0 .4-.1.6-.1.6 0 1.1.1 1.4.4.1-.1.2-.5.2-.7 0-.4-.2-.3-.4-.3-.6 0-1.4.1-2 .2-.2-.3-1.5-2.1-1.9-3-.1 0-.2-.1-.3-.1-.3 0-.4.2-.5.5.9.9 1.6 1.8 1.8 2.5m-7.2-2.5c-.1-.3-.2-.5-.5-.5-.2 0-.2 0-.3.1-.3.9-1.7 2.7-1.9 3-.6-.1-1.4-.2-2-.2-.2 0-.4 0-.4.3 0 .2.1.6.2.7.3-.3.8-.4 1.4-.4.2 0 .5.1.6.1-.8.8-1.5 1.4-1.5 1.9 0 .2.2.6.5.7 0-.6.7-1.5 1.3-2v.8c0 1.2.1 1.4.6 1.4.1 0 .2 0 .3-.1-.2-.3-.4-.7-.4-1.4v-.6c0-.3 0-.5-.1-.7.2 0 .6-.1.9-.1.6 0 1 .1 1.3.3.2-.2.4-.4.4-.6 0-.3-.2-.3-.4-.3-.3 0-.6.1-1.8.1.4-.7 1.1-1.6 1.8-2.5m-5-15.1c0-1 .7-1.8 1.1-2.3l-.3-.1c-.4.3-1.4 1.4-1.4 2.9 0 2.5 2.5 4.8 5.4 4.8v-.9-.6c-2.5.1-4.8-1.7-4.8-3.8m7.7-1.9c.1-.3.3-.7.3-1 0-1.1-.9-1.6-2.1-1.6-.6 0-.9.2-.9.4s.2.6.3.8c.2-.1.6-.2.9-.2.8-.1 1.4.8 1.5 1.6m.6-1.4c.7.1 1.2-.8.5-.9.1.3-.4.5-.4.5s-.2-.4 0-.6c-.4-.2-.5 0-.5.3.3.2.4.4.4.7m2.3 6.1h.3c2 0 3.9-1.3 3.9-2.9 0-.9-.4-1.5-.9-2.2-.3 0-.5.1-.7.1-.9 0-1.4-.5-1.4-1 0-.4.3-.7.9-.7.8 0 2.3.8 3.9.8-.1.1-.4.2-.7.3.9.8 1.5 1.9 1.7 3l2.3 3.7c.4.6 1.2 1.9 2.5 2.8-1.5 0-2.5 0-3.8-2l-1.2-1.9c-.1.2-.2.5-.3.7l2.4 3.8c.4.6 1.2 1.9 2.5 2.8-1.5 0-2.5 0-3.8-2l-2.1-3.3-.5.5 2.9 4.6c.4.6 1.2 1.8 2.5 2.8-1.5 0-2.5 0-3.8-2l-2.8-4.5-.6.3 3.4 5.5c.4.6 1.2 1.8 2.5 2.8-1.5 0-2.5 0-3.8-2l-3.5-5.7c-.2.1-.4.2-.6.2l4 6.4c.4.6 1.2 1.9 2.5 2.8-1.5 0-2.5 0-3.8-2l-4.3-6.8h-.1c-.1.4-.2.7-.2 1.1 0 2.1 1.4 4 3.1 5.5-.1 0-.3.1-.5.1h-.7c.4.9 1.2 2 1.7 2.6.6-.1 1.4-.2 1.9-.2.6 0 .6.3.6.6 0 .5-.2.9-.5 1.1-.1-.3-.3-.6-1.3-.6h-.1c.3.3 1.2 1.1 1.2 1.7 0 .4-.4 1-1 1v-.3c0-.5-.4-1.1-.8-1.5v.2c0 1.2-.1 1.7-.8 1.7-.4 0-.6-.2-.7-.3.5-.4.5-.8.5-1.4v-.6-.5h-.6s-1.1-.1-1.3.5c-.3-.3-.7-.6-.7-1 0-.3.1-.6.7-.6.2 0 .8.1 1.4.1-.1-.3-.8-1.3-1.3-2-.1.3-.2.6-.5.8 0-.4-.3-1.8-1-2.6-.1.5-.2 1.1-.2 2.3 0 2.9.7 5 2.2 5.4-.2.3-.6.6-1 .6-.5 0-.8-.6-1.1-1.2-.2.4-.6 1.5-1 1.5s-.9-1-1-1.5c-.3.6-.6 1.2-1.1 1.2-.4 0-.8-.3-1-.6 1.5-.4 2.2-2.5 2.2-5.4 0-1.2-.1-1.8-.2-2.3-.7.8-.9 2.2-1 2.6-.3-.2-.4-.5-.5-.8-.6.7-1.2 1.6-1.3 2 .5 0 1.2-.1 1.4-.1.5 0 .7.3.7.6 0 .4-.4.8-.7 1-.3-.5-1.3-.5-1.3-.5h-.6v1.1c0 .7 0 1 .5 1.4-.1.1-.3.3-.7.3-.7 0-.8-.5-.8-1.7v-.2c-.4.4-.8 1-.8 1.5v.3c-.6 0-1-.6-1-1 0-.6.9-1.4 1.2-1.7h-.1c-1 0-1.2.3-1.3.6-.3-.2-.5-.6-.5-1.1 0-.3.1-.6.6-.6s1.3.1 1.9.2c.4-.6 1.3-1.7 1.7-2.6h-.7c-.2 0-.4 0-.5-.1 1.7-1.5 3.1-3.4 3.1-5.5 0-.3-.1-.7-.2-1.1h-.1l-4.3 6.8c-1.3 2-2.3 2-3.8 2 1.2-1 2.1-2.2 2.5-2.8l4-6.4c-.2-.1-.4-.1-.6-.2l-3.5 5.7c-1.3 2-2.3 2-3.8 2 1.3-1 2.1-2.2 2.5-2.8l3.4-5.5-.6-.3-2.8 4.5c-1.3 2-2.3 2-3.8 2 1.3-1 2.1-2.2 2.5-2.8l2.9-4.6-.5-.5-2.1 3.3c-1.3 2-2.3 2-3.8 2 1.3-1 2.1-2.2 2.5-2.8l2.4-3.8c-.1-.2-.2-.5-.3-.7l-1.2 1.9c-1.3 2-2.3 2-3.8 2 1.3-1 2.1-2.2 2.5-2.8l2.3-3.7c.2-1.2.8-2.2 1.7-3-.3-.1-.5-.2-.7-.3 1.5 0 3-.8 3.9-.8.5 0 .9.3.9.7 0 .5-.5 1-1.4 1-.2 0-.5 0-.7-.1-.5.7-.9 1.3-.9 2.2 0 1.6 2 2.9 3.9 2.9h.3c.4-1.3 1.2-2.2 1.9-3-.8-.3-1.7-1-1.7-1.4.1-.1 1.6.4 1.8.5h.1c.2-.1.3-.3.3-.4-.2 0-1.1-.2-1.8-.4-.5-.2-.8-.5-.8-.6.2 0 .8.3 1.7.3.3 0 .4 0 .7-.1-.2-.5-.7-1-1.1-1-.2 0-.6.1-1 .3-.2-.4-.5-.9-.5-1.2 0-.3.3-.7 1.2-.7.3 0 .5 0 .7.1.2 0 .3.1.5.1v-.1c0-.1.1-.3.5-.3.8 0 1.5.2 2.5.2.2 0 .4 0 .6-.1-.1.2-.3.5-.6.7.1.2.5.7.5 1.5 0 1.3-.8 2.4-.8 3.7-.5.9.1 1.5.3 1.9M-473.2 304.9c0-.7-.3-1.1-1.1-1.1-.3 0-1.2 0-1.2 1.4v2.1c0 1.4.4 1.7 1.2 1.7.6 0 1-.2 1.1-.3v-1.9h-1.2v-.7h2v3.1c-.5.3-1.1.5-1.9.5-1.3 0-2-.7-2-2.4v-2.1c0-1.3.6-2.1 2-2.1s2 .5 2 1.8h-.9zM-470.8 309.6v-6.3h3.2v.7h-2.4v2h2.2v.7h-2.2v2.2h2.5v.7M-466.5 309.6v-6.3h3.1v.7h-2.3v2h2.2v.7h-2.2v2.9M-462.6 307.3v-2.1c0-1.3.6-2.1 2-2.1 1.3 0 2 .8 2 2.1v2.1c0 1.8-.6 2.4-2 2.4s-2-.7-2-2.4m1.6-4.8h-.8v-.9h.8v.9zm1.5 4.8v-2.1c0-1.3-.9-1.4-1.2-1.4-.3 0-1.2 0-1.2 1.4v2.1c0 1.4.4 1.7 1.2 1.7.8 0 1.2-.3 1.2-1.7m.1-4.8h-.8v-.9h.8v.9zM-456.5 306.7v2.9h-.8v-6.3h2.2c1.1 0 1.5.8 1.5 1.6 0 .7-.4 1.3-1.2 1.4.7.1 1 .4 1 1.6 0 .3.1 1.3.2 1.7h-.8c-.2-.4-.2-1.3-.2-2.1-.1-.8-.7-.8-1-.8h-.9zm0-.7h1.2c.6 0 .9-.5.9-1.1 0-.5-.2-1-.8-1h-1.2v2.1zM-452.4 303.3h1.9c.8 0 1.4.3 1.7 1 .3.5.3 1.8.3 2 0 1.3-.1 2.1-.4 2.5-.3.5-1 .8-2.1.8h-1.5v-6.3zm.8 5.6h.8c1.1 0 1.5-.4 1.5-1.9v-1.3c0-1.3-.4-1.8-1.2-1.8h-1.1v5zM-447 309.6v-6.3h3.2v.7h-2.4v2h2.2v.7h-2.2v2.2h2.5v.7M-441.9 306.7v2.9h-.8v-6.3h2.2c1.1 0 1.5.8 1.5 1.6 0 .7-.4 1.3-1.2 1.4.7.1 1 .4 1 1.6 0 .3.1 1.3.2 1.7h-.8c-.2-.4-.2-1.3-.2-2.1-.1-.8-.7-.8-1-.8h-.9zm0-.7h1.2c.6 0 .9-.5.9-1.1 0-.5-.2-1-.8-1h-1.2v2.1zM-434.2 303.3v.7h-1.7v5.6h-.8V304h-1.7v-.7M-429.3 309.6h-.9l-1.9-6.3h.9l1.4 5.5h.1l1.4-5.5h.9M-426.6 307.3v-2.1c0-1.3.6-2.1 2-2.1 1.3 0 2 .8 2 2.1v2.1c0 1.8-.6 2.4-2 2.4s-2-.7-2-2.4m3.1 0v-2.1c0-1.3-.9-1.4-1.2-1.4s-1.2 0-1.2 1.4v2.1c0 1.4.4 1.7 1.2 1.7.8 0 1.2-.3 1.2-1.7M-420.5 309.6h-.8v-6.3h1.3l1.6 5.3h.1l1.6-5.3h1.3v6.3h-.8V304l-1.8 5.6h-.8l-1.7-5.6"/><path fill="none" d="M-573.7-340.3h1280v800h-1280z"/><path fill="#FFF" d="M-531 291.6h211.5v150H-531z"/><path d="M-456.5 379.2c0 1.2-.8 1.6-1.4 1.6-.8 0-1.2-.6-1.2-1.4v-4.9h-1.1v5.4c0 1.2.7 1.8 1.9 1.8.7 0 1.4-.4 1.8-1v.9h1.2c0-.5-.1-1-.1-1.5v-5.6h-1.1v4.7zM-448.3 381.6v-4.9c0-1.4-.4-2.3-1.9-2.3-.9 0-1.4.3-1.9 1h-.1v-.9h-1.2c0 .5.1 1 .1 1.5v5.6h1.2v-4.2c0-1 .2-2.1 1.4-2.1 1 0 1.2.6 1.2 1.4v4.9h1.2zM-442.6 377.7c0 1.4 0 3-1.3 3-1.4 0-1.4-1.5-1.4-2.6 0-1.9.2-2.9 1.4-2.9 1.2.1 1.3 1.6 1.3 2.5m0-2.5c-.4-.6-.9-.9-1.6-.9-2.3 0-2.3 2-2.3 3.8 0 3.1 1.1 3.6 2.3 3.6.7 0 1.2-.3 1.6-1v.8h1.1v-10.1h-1.1v3.8zM-435.4 381.6v-4.7h3.6v-1.1h-3.6v-3.2h3.7v-1.1h-5v10.1M-428.1 380.8c-1.2 0-1.5-.8-1.5-3.1 0-1.9.6-2.4 1.5-2.4s1.5.4 1.5 2.4c0 2.2-.3 3.1-1.5 3.1m0 .9c1.5 0 2.7-.4 2.7-3.6 0-2.1-.2-3.8-2.7-3.8s-2.7 1.7-2.7 3.8c0 3.2 1.2 3.6 2.7 3.6M-422.5 374.5h-1.1v7.1h1.1v-4.2c0-1 .3-1.9 1.6-1.9.2 0 .4 0 .6.1v-1.2c-1.1 0-1.7.1-2.2 1.2v-1.1zM-414.6 379.6c0-2.2-3.5-2.1-3.5-3.4 0-.6.5-1 1.1-1 .7 0 1.1.4 1.1 1.1h1.3c.1-1.4-1-2-2.2-2-2 0-2.4 1.2-2.4 1.9 0 2.1 3.5 2.1 3.5 3.4 0 .7-.5 1.1-1.2 1.1-1.2 0-1.2-1-1.2-1.4h-1.3c0 1.6.9 2.3 2.4 2.3 1.4.1 2.4-.5 2.4-2M-408.2 376.8c.1-1.6-.8-2.4-2.2-2.4-2.4 0-2.7 1.7-2.7 3.8 0 3.1 1.2 3.6 2.7 3.6.8 0 2.3-.5 2.2-2.5h-1.2c0 1.3-.8 1.6-1 1.6-1.2 0-1.5-.8-1.5-3.1 0-1.9.6-2.4 1.5-2.4.4 0 1 .3 1 1.5h1.2zM-401.3 381.6v-5c0-1.6-.7-2.2-1.9-2.2-.9 0-1.5.2-1.9 1h-.1v-3.9h-1.1v10.1h1.1v-4.2c0-1.2.3-2.1 1.4-2.1 1 0 1.3.6 1.3 1.5v4.8h1.2zM-395.5 379.2c0 1.2-.8 1.6-1.4 1.6-.8 0-1.2-.6-1.2-1.4v-4.9h-1.1v5.4c0 1.2.7 1.8 1.9 1.8.7 0 1.4-.4 1.8-1v.9h1.2c0-.5-.1-1-.1-1.5v-5.6h-1.1v4.7zM-387.3 381.6v-4.9c0-1.4-.4-2.3-1.9-2.3-.9 0-1.4.3-1.9 1h-.1v-.9h-1.2c0 .5.1 1 .1 1.5v5.6h1.1v-4.2c0-1 .2-2.1 1.4-2.1 1 0 1.2.6 1.2 1.4v4.9h1.3zM-381.7 378c0 1 0 2.6-1.3 2.6-.9 0-1.4-.5-1.4-2.8 0-.9 0-2.5 1.3-2.5 1.5 0 1.4 1.6 1.4 2.7m0-2.6c-.4-.7-.9-1-1.7-1-.6 0-2.2.2-2.2 3.5 0 2.1.4 3.8 2.3 3.8.6 0 1.3-.3 1.6-.9v1.5c0 .7-.4 1.2-1.2 1.2-.6 0-1.1-.4-1.1-1h-1.3c-.1 1.3 1 1.9 2.1 1.9 1.6 0 2.6-.4 2.6-2v-7.8h-1.1v.8zM-460.7 359.5v.9h1.1v6.2h1.1v-6.2h1.4v-.9h-1.4v-1.2c0-.6.2-1.1 1.4-1v-.8h-.5c-1 0-2 .3-2 1.7v1.4h-1.1zM-454 356.9h-1.3v1.5h1.3v-1.5zm2.4 0h-1.3v1.5h1.3v-1.5zm-.6 7.3c0 1.2-.8 1.6-1.4 1.6-.8 0-1.2-.6-1.2-1.4v-4.9h-1.1v5.4c0 1.2.7 1.8 1.9 1.8.7 0 1.4-.3 1.8-1v.9h1.2c0-.5-.1-1-.1-1.5v-5.6h-1.1v4.7zM-447.8 359.5h-1.1v7.1h1.1v-4.2c0-1 .3-1.9 1.6-1.9.2 0 .4 0 .6.1v-1.2c-1.1 0-1.7.1-2.2 1.2v-1.1zM-440.8 361.8h1.4c1.3 0 2.3.3 2.3 1.9 0 .7-.5 1.7-1.9 1.7h-1.8v-3.6zm0-4.2h1.8c1.1 0 1.6.7 1.6 1.5 0 1-.5 1.6-1.5 1.6h-1.9v-3.1zm2 9c1.1 0 3-.3 3-2.8 0-1.4-.6-2.3-2.1-2.4v-.1c1.3-.3 1.7-1.1 1.7-2.4 0-.2-.1-.8-.4-1.3-.4-.6-.9-1-2.3-1h-3.3v10.1h3.4zM-432.8 359.5h-1.1v7.1h1.1v-7.1zm-1.2-1.8h1.3v-1.2h-1.3v1.2zM-430.7 356.5h1.1v10.1h-1.1zM-423.8 362.7c0 1.4 0 3-1.3 3-1.4 0-1.4-1.5-1.4-2.6 0-1.9.2-2.9 1.4-2.9 1.2.1 1.3 1.6 1.3 2.5m0-2.5c-.4-.6-.9-.9-1.6-.9-2.3 0-2.3 2-2.3 3.8 0 3.1 1.1 3.6 2.3 3.6.7 0 1.2-.3 1.6-1v.8h1.1v-10.1h-1.1v3.8zM-416.8 364.2c0 1.2-.8 1.6-1.4 1.6-.8 0-1.2-.6-1.2-1.4v-4.9h-1.2v5.4c0 1.2.7 1.8 1.9 1.8.7 0 1.4-.3 1.8-1v.9h1.2c0-.5-.1-1-.1-1.5v-5.6h-1.1v4.7zM-408.6 366.6v-4.9c0-1.4-.4-2.3-1.9-2.3-.9 0-1.4.3-1.9 1h-.1v-.9h-1.2c0 .5.1 1 .1 1.5v5.6h1.1v-4.2c0-1 .2-2.1 1.4-2.1 1 0 1.2.6 1.2 1.4v4.9h1.3zM-402.9 363c0 1 0 2.6-1.3 2.6-.9 0-1.4-.5-1.4-2.8 0-.9 0-2.5 1.3-2.5 1.5 0 1.4 1.6 1.4 2.7m0-2.6c-.4-.7-.9-1-1.7-1-.6 0-2.2.2-2.2 3.5 0 2.1.4 3.8 2.3 3.8.6 0 1.3-.3 1.6-.9v1.5c0 .7-.4 1.2-1.2 1.2-.6 0-1.1-.4-1.1-1h-1.3c-.1 1.3 1 1.9 2.1 1.9 1.6 0 2.6-.4 2.6-2v-7.8h-1.1v.8zM-458.9 346.8h1.4c1.3 0 2.3.3 2.3 1.9 0 .7-.5 1.7-1.9 1.7h-1.8v-3.6zm0-4.2h1.8c1.1 0 1.6.7 1.6 1.5 0 1-.5 1.6-1.5 1.6h-1.9v-3.1zm2 9c1.2 0 3-.3 3-2.8 0-1.4-.6-2.3-2.1-2.4v-.1c1.3-.3 1.7-1.1 1.7-2.4 0-.2-.1-.8-.4-1.3-.4-.6-.9-1-2.3-1h-3.3v10.1h3.4zM-448.5 349.2c0 1.2-.8 1.6-1.4 1.6-.8 0-1.2-.6-1.2-1.4v-4.9h-1.1v5.4c0 1.2.7 1.8 1.9 1.8.7 0 1.4-.3 1.8-1v.9h1.2c0-.5-.1-1-.1-1.5v-5.6h-1.1v4.7zM-440.3 351.6v-4.9c0-1.4-.4-2.3-1.9-2.3-.9 0-1.4.3-1.9 1h-.1v-.9h-1.2c0 .5.1 1 .1 1.5v5.6h1.1v-4.2c0-1 .2-2.1 1.4-2.1 1 0 1.2.6 1.2 1.4v4.9h1.3zM-434.6 347.7c0 1.4 0 3-1.3 3-1.4 0-1.4-1.5-1.4-2.6 0-1.9.2-2.9 1.4-2.9 1.2.1 1.3 1.6 1.3 2.5m0-2.5c-.4-.6-.9-.9-1.6-.9-2.3 0-2.3 2-2.3 3.8 0 3.1 1.1 3.6 2.3 3.6.7 0 1.2-.3 1.6-1v.8h1.1v-10.1h-1.1v3.8zM-430.5 347.5c0-2 .6-2.3 1.3-2.3.8 0 1.4.3 1.4 2.3h-2.7zm4 .9v-.6c0-2.3-.5-3.4-2.5-3.4-2.4 0-2.7 1.7-2.7 3.8 0 3.1 1.2 3.6 2.7 3.6 1.5 0 2.5-.7 2.5-2.3h-1.3c0 .7-.5 1.3-1.2 1.3-.9 0-1.4-.4-1.4-2.4h3.9zM-420.2 349.6c0-2.2-3.5-2.1-3.5-3.4 0-.6.5-1 1.1-1 .7 0 1.1.4 1.1 1.1h1.3c.1-1.4-1-2-2.2-2-2 0-2.4 1.2-2.4 1.9 0 2.1 3.5 2.1 3.5 3.4 0 .7-.5 1.1-1.2 1.1-1.2 0-1.2-1-1.2-1.4h-1.3c0 1.6.9 2.3 2.4 2.3 1.3.1 2.4-.5 2.4-2M-413.8 351.6v-4.8c0-.3.1-1 .4-1.2.3-.3.4-.3.9-.3.9 0 1.1.7 1.1 1.4v4.9h1.1v-5.4c0-1.7-1.2-1.8-1.9-1.8-.6 0-1.3.2-1.7.9-.3-.6-1-.9-1.7-.9-.8 0-1.4.3-1.8 1v-.9h-1.2c0 .5.1 1 .1 1.5v5.6h1.1v-4.8c0-.3.1-.7.3-1 .2-.3.6-.5 1-.5.9 0 1.1.7 1.1 1.4v4.9h1.2zM-407.1 344.5h-1.1v7.1h1.1v-7.1zm-1.2-1.8h1.3v-1.2h-1.3v1.2zM-400 351.6v-4.9c0-1.4-.4-2.3-1.9-2.3-.9 0-1.4.3-1.9 1h-.1v-.9h-1.2c0 .5.1 1 .1 1.5v5.6h1.1v-4.2c0-1 .2-2.1 1.4-2.1 1 0 1.2.6 1.2 1.4v4.9h1.3zM-396.9 344.5h-1.1v7.1h1.1v-7.1zm-1.2-1.8h1.3v-1.2h-1.3v1.2zM-390.3 349.6c0-2.2-3.5-2.1-3.5-3.4 0-.6.5-1 1.1-1 .7 0 1.1.4 1.1 1.1h1.3c.1-1.4-1-2-2.2-2-2 0-2.4 1.2-2.4 1.9 0 2.1 3.5 2.1 3.5 3.4 0 .7-.5 1.1-1.2 1.1-1.2 0-1.2-1-1.2-1.4h-1.3c0 1.6.9 2.3 2.4 2.3 1.3.1 2.4-.5 2.4-2M-389.6 344.5v.9h1.2v5c0 .8.5 1.3 1.6 1.3.4 0 .8-.1 1.1-.1v-.9c-.3 0-.4.1-.5.1-1 0-1-.6-1-1v-4.3h1.5v-.9h-1.5v-1.9l-1.2.5v1.4h-1.2zM-383.5 347.5c0-2 .6-2.3 1.3-2.3.8 0 1.4.3 1.4 2.3h-2.7zm4 .9v-.6c0-2.3-.5-3.4-2.5-3.4-2.5 0-2.7 1.7-2.7 3.8 0 3.1 1.2 3.6 2.7 3.6 1.5 0 2.4-.7 2.5-2.3h-1.3c0 .7-.4 1.3-1.2 1.3-.9 0-1.4-.4-1.4-2.4h3.9zM-376.7 344.5h-1.1v7.1h1.1v-4.2c0-1 .3-1.9 1.6-1.9.2 0 .4 0 .6.1v-1.2c-1.1 0-1.7.1-2.2 1.2v-1.1zM-372.1 344.5h-1.1v7.1h1.1v-7.1zm-1.2-1.8h1.3v-1.2h-1.3v1.2zM-366.4 349.2c0 1.2-.8 1.6-1.4 1.6-.8 0-1.2-.6-1.2-1.4v-4.9h-1.1v5.4c0 1.2.7 1.8 1.9 1.8.7 0 1.4-.3 1.8-1v.9h1.2c0-.5-.1-1-.1-1.5v-5.6h-1.1v4.7zM-358.5 351.6v-4.8c0-.3.1-1 .4-1.2.3-.3.4-.3.9-.3.9 0 1.1.7 1.1 1.4v4.9h1.1v-5.4c0-1.7-1.2-1.8-1.9-1.8-.6 0-1.3.2-1.7.9-.3-.6-1-.9-1.7-.9-.8 0-1.4.3-1.8 1v-.9h-1.2c0 .5.1 1 .1 1.5v5.6h1.1v-4.8c0-.3.1-.7.3-1 .2-.3.6-.5 1-.5.9 0 1.1.7 1.1 1.4v4.9h1.2z" fill="#1E1E1C"/><path fill="#F9D300" d="M-473.5 391.6h4.4v25h-4.4z"/><path fill="#E20717" d="M-473.5 366.5h4.4v25.1h-4.4z"/><path fill="#1E1E1C" d="M-473.5 341.6h4.4v25h-4.4zM-487.3 345.8c0-1.4-1-2.6-1.4-2.9l-.3.1c.4.5 1.1 1.3 1.1 2.3 0 2.1-2.2 3.9-4.7 3.9v.6c0 .3 0 .6-.1.9 2.9-.1 5.4-2.4 5.4-4.9m-3.9 17.1c-1.2 0-1.5-.1-1.8-.1-.2 0-.4 0-.4.3 0 .2.2.5.4.6.3-.3.7-.3 1.3-.3.3 0 .7.1.9.1 0 .2-.1.4-.1.7v.6c0 .7-.1 1.1-.4 1.4.1 0 .2.1.3.1.5 0 .6-.2.6-1.4v-.8c.6.5 1.3 1.4 1.3 2 .2-.1.5-.4.5-.7 0-.4-.7-1.1-1.5-1.9.1 0 .4-.1.6-.1.6 0 1.1.1 1.4.4.1-.1.2-.5.2-.7 0-.4-.2-.3-.4-.3-.6 0-1.4.1-2 .2-.2-.3-1.5-2.1-1.9-3-.1 0-.2-.1-.3-.1-.3 0-.4.2-.5.5.9.9 1.6 1.8 1.8 2.5m-7.2-2.5c-.1-.3-.2-.5-.5-.5-.2 0-.2 0-.3.1-.3.9-1.7 2.7-1.9 3-.6-.1-1.4-.2-2-.2-.2 0-.4 0-.4.3 0 .2.1.6.2.7.3-.3.8-.4 1.4-.4.2 0 .5.1.6.1-.8.8-1.5 1.4-1.5 1.9 0 .2.2.6.5.7 0-.6.7-1.5 1.3-2v.8c0 1.2.1 1.4.6 1.4.1 0 .2 0 .3-.1-.2-.3-.4-.7-.4-1.4v-.6c0-.3 0-.5-.1-.7.2 0 .6-.1.9-.1.6 0 1 .1 1.3.3.2-.2.4-.4.4-.6 0-.3-.2-.3-.4-.3-.3 0-.6.1-1.8.1.4-.7 1.1-1.6 1.8-2.5m-5-15.1c0-1 .7-1.8 1.1-2.3l-.3-.1c-.4.3-1.4 1.4-1.4 2.9 0 2.5 2.5 4.8 5.4 4.8v-.9-.6c-2.5.1-4.8-1.7-4.8-3.8m7.7-1.9c.1-.3.3-.7.3-1 0-1.1-.9-1.6-2.1-1.6-.6 0-.9.2-.9.4s.2.6.3.8c.2-.1.6-.2.9-.2.8-.1 1.4.8 1.5 1.6m.6-1.4c.7.1 1.2-.8.5-.9.1.3-.4.5-.4.5s-.2-.4 0-.6c-.4-.2-.5 0-.5.3.3.2.4.4.4.7m2.3 6.1h.3c2 0 3.9-1.3 3.9-2.9 0-.9-.4-1.5-.9-2.2-.3 0-.5.1-.7.1-.9 0-1.4-.5-1.4-1 0-.4.3-.7.9-.7.8 0 2.3.8 3.9.8-.1.1-.4.2-.7.3.9.8 1.5 1.9 1.7 3l2.3 3.7c.4.6 1.2 1.9 2.5 2.8-1.5 0-2.5 0-3.8-2l-1.2-1.9c-.1.2-.2.5-.3.7l2.4 3.8c.4.6 1.2 1.9 2.5 2.8-1.5 0-2.5 0-3.8-2l-2.1-3.3-.5.5 2.9 4.6c.4.6 1.2 1.8 2.5 2.8-1.5 0-2.5 0-3.8-2l-2.8-4.5-.6.3 3.4 5.5c.4.6 1.2 1.8 2.5 2.8-1.5 0-2.5 0-3.8-2l-3.5-5.7c-.2.1-.4.2-.6.2l4 6.4c.4.6 1.2 1.9 2.5 2.8-1.5 0-2.5 0-3.8-2l-4.3-6.8h-.1c-.1.4-.2.7-.2 1.1 0 2.1 1.4 4 3.1 5.5-.1 0-.3.1-.5.1h-.7c.4.9 1.2 2 1.7 2.6.6-.1 1.4-.2 1.9-.2.6 0 .6.3.6.6 0 .5-.2.9-.5 1.1-.1-.3-.3-.6-1.3-.6h-.1c.3.3 1.2 1.1 1.2 1.7 0 .4-.4 1-1 1v-.3c0-.5-.4-1.1-.8-1.5v.2c0 1.2-.1 1.7-.8 1.7-.4 0-.6-.2-.7-.3.5-.4.5-.8.5-1.4v-.6-.5h-.6s-1.1-.1-1.3.5c-.3-.3-.7-.6-.7-1 0-.3.1-.6.7-.6.2 0 .8.1 1.4.1-.1-.3-.8-1.3-1.3-2-.1.3-.2.6-.5.8 0-.4-.3-1.8-1-2.6-.1.5-.2 1.1-.2 2.3 0 2.9.7 5 2.2 5.4-.2.3-.6.6-1 .6-.5 0-.8-.6-1.1-1.2-.2.4-.6 1.5-1 1.5s-.9-1-1-1.5c-.3.6-.6 1.2-1.1 1.2-.4 0-.8-.3-1-.6 1.5-.4 2.2-2.5 2.2-5.4 0-1.2-.1-1.8-.2-2.3-.7.8-.9 2.2-1 2.6-.3-.2-.4-.5-.5-.8-.6.7-1.2 1.6-1.3 2 .5 0 1.2-.1 1.4-.1.5 0 .7.3.7.6 0 .4-.4.8-.7 1-.3-.5-1.3-.5-1.3-.5h-.6v1.1c0 .7 0 1 .5 1.4-.1.1-.3.3-.7.3-.7 0-.8-.5-.8-1.7v-.2c-.4.4-.8 1-.8 1.5v.3c-.6 0-1-.6-1-1 0-.6.9-1.4 1.2-1.7h-.1c-1 0-1.2.3-1.3.6-.3-.2-.5-.6-.5-1.1 0-.3.1-.6.6-.6s1.3.1 1.9.2c.4-.6 1.3-1.7 1.7-2.6h-.7c-.2 0-.4 0-.5-.1 1.7-1.5 3.1-3.4 3.1-5.5 0-.3-.1-.7-.2-1.1h-.1l-4.3 6.8c-1.3 2-2.3 2-3.8 2 1.2-1 2.1-2.2 2.5-2.8l4-6.4c-.2-.1-.4-.1-.6-.2l-3.5 5.7c-1.3 2-2.3 2-3.8 2 1.3-1 2.1-2.2 2.5-2.8l3.4-5.5-.6-.3-2.8 4.5c-1.3 2-2.3 2-3.8 2 1.3-1 2.1-2.2 2.5-2.8l2.9-4.6-.5-.5-2.1 3.3c-1.3 2-2.3 2-3.8 2 1.3-1 2.1-2.2 2.5-2.8l2.4-3.8c-.1-.2-.2-.5-.3-.7l-1.2 1.9c-1.3 2-2.3 2-3.8 2 1.3-1 2.1-2.2 2.5-2.8l2.3-3.7c.2-1.2.8-2.2 1.7-3-.3-.1-.6-.2-.7-.3 1.5 0 3-.8 3.9-.8.5 0 .9.3.9.7 0 .5-.5 1-1.4 1-.2 0-.5 0-.7-.1-.5.7-.9 1.3-.9 2.2 0 1.6 2 2.9 3.9 2.9h.3c.4-1.3 1.2-2.2 1.9-3-.8-.3-1.7-1-1.7-1.4.1-.1 1.6.4 1.8.5h.1c.2-.1.3-.3.3-.4-.2 0-1.1-.2-1.8-.4-.5-.2-.8-.5-.8-.6.2 0 .8.3 1.7.3.3 0 .4 0 .7-.1-.2-.5-.7-1-1.1-1-.2 0-.6.1-1 .3-.2-.4-.5-.9-.5-1.2 0-.3.3-.7 1.2-.7.3 0 .5 0 .7.1.2 0 .3.1.5.1v-.1c0-.1.1-.3.5-.3.8 0 1.5.2 2.5.2.2 0 .4 0 .6-.1-.1.2-.3.5-.6.7.1.2.5.7.5 1.5 0 1.3-.8 2.4-.8 3.7-.5.9.1 1.5.3 1.9M-457.2 311.9c0-.7-.3-1.1-1.1-1.1-.3 0-1.2 0-1.2 1.4v2.1c0 1.4.4 1.7 1.2 1.7.6 0 1-.2 1.1-.3v-1.9h-1.2v-.7h2v3.1c-.5.3-1.1.5-1.9.5-1.3 0-2-.7-2-2.4v-2.1c0-1.3.6-2.1 2-2.1s2 .5 2 1.8h-.9zM-454.8 316.6v-6.3h3.2v.7h-2.4v2h2.2v.7h-2.2v2.2h2.5v.7M-450.5 316.6v-6.3h3.1v.7h-2.3v2h2.2v.7h-2.2v2.9M-446.6 314.3v-2.1c0-1.3.6-2.1 2-2.1 1.3 0 2 .8 2 2.1v2.1c0 1.8-.6 2.4-2 2.4s-2-.7-2-2.4m1.6-4.8h-.8v-.9h.8v.9zm1.5 4.8v-2.1c0-1.3-.9-1.4-1.2-1.4-.3 0-1.2 0-1.2 1.4v2.1c0 1.4.4 1.7 1.2 1.7.8 0 1.2-.3 1.2-1.7m.1-4.8h-.8v-.9h.8v.9zM-440.5 313.7v2.9h-.8v-6.3h2.2c1.1 0 1.5.8 1.5 1.6 0 .7-.4 1.3-1.2 1.4.7.1 1 .4 1 1.6 0 .3.1 1.3.2 1.7h-.8c-.2-.4-.2-1.3-.2-2.1-.1-.8-.7-.8-1-.8h-.9zm0-.7h1.2c.6 0 .9-.5.9-1.1 0-.5-.2-1-.8-1h-1.2v2.1zM-436.4 310.3h1.9c.8 0 1.4.3 1.7 1 .3.5.3 1.8.3 2 0 1.3-.1 2.1-.4 2.5-.3.5-1 .8-2.1.8h-1.5v-6.3zm.8 5.6h.8c1.1 0 1.5-.4 1.5-1.9v-1.3c0-1.3-.4-1.8-1.2-1.8h-1.1v5zM-431 316.6v-6.3h3.2v.7h-2.4v2h2.2v.7h-2.2v2.2h2.5v.7M-425.9 313.7v2.9h-.8v-6.3h2.2c1.1 0 1.5.8 1.5 1.6 0 .7-.4 1.3-1.2 1.4.7.1 1 .4 1 1.6 0 .3.1 1.3.2 1.7h-.8c-.2-.4-.2-1.3-.2-2.1-.1-.8-.7-.8-1-.8h-.9zm0-.7h1.2c.6 0 .9-.5.9-1.1 0-.5-.2-1-.8-1h-1.2v2.1zM-418.2 310.3v.7h-1.7v5.6h-.8V311h-1.7v-.7M-413.3 316.6h-.9l-1.9-6.3h.9l1.4 5.5h.1l1.4-5.5h.9M-410.6 314.3v-2.1c0-1.3.6-2.1 2-2.1 1.3 0 2 .8 2 2.1v2.1c0 1.8-.6 2.4-2 2.4s-2-.7-2-2.4m3.1 0v-2.1c0-1.3-.9-1.4-1.2-1.4s-1.2 0-1.2 1.4v2.1c0 1.4.4 1.7 1.2 1.7.8 0 1.2-.3 1.2-1.7M-404.5 316.6h-.8v-6.3h1.3l1.6 5.3h.1l1.6-5.3h1.3v6.3h-.8V311l-1.8 5.6h-.8l-1.7-5.6"/><path fill="none" d="M-557.7-333.3h1280v800h-1280z"/><path fill="#FFF" d="M-531 291.6h211.5v150H-531z"/><path d="M-456.5 379.2c0 1.2-.8 1.6-1.4 1.6-.8 0-1.2-.6-1.2-1.4v-4.9h-1.1v5.4c0 1.2.7 1.8 1.9 1.8.7 0 1.4-.4 1.8-1v.9h1.2c0-.5-.1-1-.1-1.5v-5.6h-1.1v4.7zM-448.3 381.6v-4.9c0-1.4-.4-2.3-1.9-2.3-.9 0-1.4.3-1.9 1h-.1v-.9h-1.2c0 .5.1 1 .1 1.5v5.6h1.2v-4.2c0-1 .2-2.1 1.4-2.1 1 0 1.2.6 1.2 1.4v4.9h1.2zM-442.6 377.7c0 1.4 0 3-1.3 3-1.4 0-1.4-1.5-1.4-2.6 0-1.9.2-2.9 1.4-2.9 1.2.1 1.3 1.6 1.3 2.5m0-2.5c-.4-.6-.9-.9-1.6-.9-2.3 0-2.3 2-2.3 3.8 0 3.1 1.1 3.6 2.3 3.6.7 0 1.2-.3 1.6-1v.8h1.1v-10.1h-1.1v3.8zM-435.4 381.6v-4.7h3.6v-1.1h-3.6v-3.2h3.7v-1.1h-5v10.1M-428.1 380.8c-1.2 0-1.5-.8-1.5-3.1 0-1.9.6-2.4 1.5-2.4s1.5.4 1.5 2.4c0 2.2-.3 3.1-1.5 3.1m0 .9c1.5 0 2.7-.4 2.7-3.6 0-2.1-.2-3.8-2.7-3.8s-2.7 1.7-2.7 3.8c0 3.2 1.2 3.6 2.7 3.6M-422.5 374.5h-1.1v7.1h1.1v-4.2c0-1 .3-1.9 1.6-1.9.2 0 .4 0 .6.1v-1.2c-1.1 0-1.7.1-2.2 1.2v-1.1zM-414.6 379.6c0-2.2-3.5-2.1-3.5-3.4 0-.6.5-1 1.1-1 .7 0 1.1.4 1.1 1.1h1.3c.1-1.4-1-2-2.2-2-2 0-2.4 1.2-2.4 1.9 0 2.1 3.5 2.1 3.5 3.4 0 .7-.5 1.1-1.2 1.1-1.2 0-1.2-1-1.2-1.4h-1.3c0 1.6.9 2.3 2.4 2.3 1.4.1 2.4-.5 2.4-2M-408.2 376.8c.1-1.6-.8-2.4-2.2-2.4-2.4 0-2.7 1.7-2.7 3.8 0 3.1 1.2 3.6 2.7 3.6.8 0 2.3-.5 2.2-2.5h-1.2c0 1.3-.8 1.6-1 1.6-1.2 0-1.5-.8-1.5-3.1 0-1.9.6-2.4 1.5-2.4.4 0 1 .3 1 1.5h1.2zM-401.3 381.6v-5c0-1.6-.7-2.2-1.9-2.2-.9 0-1.5.2-1.9 1h-.1v-3.9h-1.1v10.1h1.1v-4.2c0-1.2.3-2.1 1.4-2.1 1 0 1.3.6 1.3 1.5v4.8h1.2zM-395.5 379.2c0 1.2-.8 1.6-1.4 1.6-.8 0-1.2-.6-1.2-1.4v-4.9h-1.1v5.4c0 1.2.7 1.8 1.9 1.8.7 0 1.4-.4 1.8-1v.9h1.2c0-.5-.1-1-.1-1.5v-5.6h-1.1v4.7zM-387.3 381.6v-4.9c0-1.4-.4-2.3-1.9-2.3-.9 0-1.4.3-1.9 1h-.1v-.9h-1.2c0 .5.1 1 .1 1.5v5.6h1.1v-4.2c0-1 .2-2.1 1.4-2.1 1 0 1.2.6 1.2 1.4v4.9h1.3zM-381.7 378c0 1 0 2.6-1.3 2.6-.9 0-1.4-.5-1.4-2.8 0-.9 0-2.5 1.3-2.5 1.5 0 1.4 1.6 1.4 2.7m0-2.6c-.4-.7-.9-1-1.7-1-.6 0-2.2.2-2.2 3.5 0 2.1.4 3.8 2.3 3.8.6 0 1.3-.3 1.6-.9v1.5c0 .7-.4 1.2-1.2 1.2-.6 0-1.1-.4-1.1-1h-1.3c-.1 1.3 1 1.9 2.1 1.9 1.6 0 2.6-.4 2.6-2v-7.8h-1.1v.8zM-460.7 359.5v.9h1.1v6.2h1.1v-6.2h1.4v-.9h-1.4v-1.2c0-.6.2-1.1 1.4-1v-.8h-.5c-1 0-2 .3-2 1.7v1.4h-1.1zM-454 356.9h-1.3v1.5h1.3v-1.5zm2.4 0h-1.3v1.5h1.3v-1.5zm-.6 7.3c0 1.2-.8 1.6-1.4 1.6-.8 0-1.2-.6-1.2-1.4v-4.9h-1.1v5.4c0 1.2.7 1.8 1.9 1.8.7 0 1.4-.3 1.8-1v.9h1.2c0-.5-.1-1-.1-1.5v-5.6h-1.1v4.7zM-447.8 359.5h-1.1v7.1h1.1v-4.2c0-1 .3-1.9 1.6-1.9.2 0 .4 0 .6.1v-1.2c-1.1 0-1.7.1-2.2 1.2v-1.1zM-440.8 361.8h1.4c1.3 0 2.3.3 2.3 1.9 0 .7-.5 1.7-1.9 1.7h-1.8v-3.6zm0-4.2h1.8c1.1 0 1.6.7 1.6 1.5 0 1-.5 1.6-1.5 1.6h-1.9v-3.1zm2 9c1.1 0 3-.3 3-2.8 0-1.4-.6-2.3-2.1-2.4v-.1c1.3-.3 1.7-1.1 1.7-2.4 0-.2-.1-.8-.4-1.3-.4-.6-.9-1-2.3-1h-3.3v10.1h3.4zM-432.8 359.5h-1.1v7.1h1.1v-7.1zm-1.2-1.8h1.3v-1.2h-1.3v1.2zM-430.7 356.5h1.1v10.1h-1.1zM-423.8 362.7c0 1.4 0 3-1.3 3-1.4 0-1.4-1.5-1.4-2.6 0-1.9.2-2.9 1.4-2.9 1.2.1 1.3 1.6 1.3 2.5m0-2.5c-.4-.6-.9-.9-1.6-.9-2.3 0-2.3 2-2.3 3.8 0 3.1 1.1 3.6 2.3 3.6.7 0 1.2-.3 1.6-1v.8h1.1v-10.1h-1.1v3.8zM-416.8 364.2c0 1.2-.8 1.6-1.4 1.6-.8 0-1.2-.6-1.2-1.4v-4.9h-1.2v5.4c0 1.2.7 1.8 1.9 1.8.7 0 1.4-.3 1.8-1v.9h1.2c0-.5-.1-1-.1-1.5v-5.6h-1.1v4.7zM-408.6 366.6v-4.9c0-1.4-.4-2.3-1.9-2.3-.9 0-1.4.3-1.9 1h-.1v-.9h-1.2c0 .5.1 1 .1 1.5v5.6h1.1v-4.2c0-1 .2-2.1 1.4-2.1 1 0 1.2.6 1.2 1.4v4.9h1.3zM-402.9 363c0 1 0 2.6-1.3 2.6-.9 0-1.4-.5-1.4-2.8 0-.9 0-2.5 1.3-2.5 1.5 0 1.4 1.6 1.4 2.7m0-2.6c-.4-.7-.9-1-1.7-1-.6 0-2.2.2-2.2 3.5 0 2.1.4 3.8 2.3 3.8.6 0 1.3-.3 1.6-.9v1.5c0 .7-.4 1.2-1.2 1.2-.6 0-1.1-.4-1.1-1h-1.3c-.1 1.3 1 1.9 2.1 1.9 1.6 0 2.6-.4 2.6-2v-7.8h-1.1v.8zM-458.9 346.8h1.4c1.3 0 2.3.3 2.3 1.9 0 .7-.5 1.7-1.9 1.7h-1.8v-3.6zm0-4.2h1.8c1.1 0 1.6.7 1.6 1.5 0 1-.5 1.6-1.5 1.6h-1.9v-3.1zm2 9c1.2 0 3-.3 3-2.8 0-1.4-.6-2.3-2.1-2.4v-.1c1.3-.3 1.7-1.1 1.7-2.4 0-.2-.1-.8-.4-1.3-.4-.6-.9-1-2.3-1h-3.3v10.1h3.4zM-448.5 349.2c0 1.2-.8 1.6-1.4 1.6-.8 0-1.2-.6-1.2-1.4v-4.9h-1.1v5.4c0 1.2.7 1.8 1.9 1.8.7 0 1.4-.3 1.8-1v.9h1.2c0-.5-.1-1-.1-1.5v-5.6h-1.1v4.7zM-440.3 351.6v-4.9c0-1.4-.4-2.3-1.9-2.3-.9 0-1.4.3-1.9 1h-.1v-.9h-1.2c0 .5.1 1 .1 1.5v5.6h1.1v-4.2c0-1 .2-2.1 1.4-2.1 1 0 1.2.6 1.2 1.4v4.9h1.3zM-434.6 347.7c0 1.4 0 3-1.3 3-1.4 0-1.4-1.5-1.4-2.6 0-1.9.2-2.9 1.4-2.9 1.2.1 1.3 1.6 1.3 2.5m0-2.5c-.4-.6-.9-.9-1.6-.9-2.3 0-2.3 2-2.3 3.8 0 3.1 1.1 3.6 2.3 3.6.7 0 1.2-.3 1.6-1v.8h1.1v-10.1h-1.1v3.8zM-430.5 347.5c0-2 .6-2.3 1.3-2.3.8 0 1.4.3 1.4 2.3h-2.7zm4 .9v-.6c0-2.3-.5-3.4-2.5-3.4-2.4 0-2.7 1.7-2.7 3.8 0 3.1 1.2 3.6 2.7 3.6 1.5 0 2.5-.7 2.5-2.3h-1.3c0 .7-.5 1.3-1.2 1.3-.9 0-1.4-.4-1.4-2.4h3.9zM-420.2 349.6c0-2.2-3.5-2.1-3.5-3.4 0-.6.5-1 1.1-1 .7 0 1.1.4 1.1 1.1h1.3c.1-1.4-1-2-2.2-2-2 0-2.4 1.2-2.4 1.9 0 2.1 3.5 2.1 3.5 3.4 0 .7-.5 1.1-1.2 1.1-1.2 0-1.2-1-1.2-1.4h-1.3c0 1.6.9 2.3 2.4 2.3 1.3.1 2.4-.5 2.4-2M-413.8 351.6v-4.8c0-.3.1-1 .4-1.2.3-.3.4-.3.9-.3.9 0 1.1.7 1.1 1.4v4.9h1.1v-5.4c0-1.7-1.2-1.8-1.9-1.8-.6 0-1.3.2-1.7.9-.3-.6-1-.9-1.7-.9-.8 0-1.4.3-1.8 1v-.9h-1.2c0 .5.1 1 .1 1.5v5.6h1.1v-4.8c0-.3.1-.7.3-1 .2-.3.6-.5 1-.5.9 0 1.1.7 1.1 1.4v4.9h1.2zM-407.1 344.5h-1.1v7.1h1.1v-7.1zm-1.2-1.8h1.3v-1.2h-1.3v1.2zM-400 351.6v-4.9c0-1.4-.4-2.3-1.9-2.3-.9 0-1.4.3-1.9 1h-.1v-.9h-1.2c0 .5.1 1 .1 1.5v5.6h1.1v-4.2c0-1 .2-2.1 1.4-2.1 1 0 1.2.6 1.2 1.4v4.9h1.3zM-396.9 344.5h-1.1v7.1h1.1v-7.1zm-1.2-1.8h1.3v-1.2h-1.3v1.2zM-390.3 349.6c0-2.2-3.5-2.1-3.5-3.4 0-.6.5-1 1.1-1 .7 0 1.1.4 1.1 1.1h1.3c.1-1.4-1-2-2.2-2-2 0-2.4 1.2-2.4 1.9 0 2.1 3.5 2.1 3.5 3.4 0 .7-.5 1.1-1.2 1.1-1.2 0-1.2-1-1.2-1.4h-1.3c0 1.6.9 2.3 2.4 2.3 1.3.1 2.4-.5 2.4-2M-389.6 344.5v.9h1.2v5c0 .8.5 1.3 1.6 1.3.4 0 .8-.1 1.1-.1v-.9c-.3 0-.4.1-.5.1-1 0-1-.6-1-1v-4.3h1.5v-.9h-1.5v-1.9l-1.2.5v1.4h-1.2zM-383.5 347.5c0-2 .6-2.3 1.3-2.3.8 0 1.4.3 1.4 2.3h-2.7zm4 .9v-.6c0-2.3-.5-3.4-2.5-3.4-2.5 0-2.7 1.7-2.7 3.8 0 3.1 1.2 3.6 2.7 3.6 1.5 0 2.4-.7 2.5-2.3h-1.3c0 .7-.4 1.3-1.2 1.3-.9 0-1.4-.4-1.4-2.4h3.9zM-376.7 344.5h-1.1v7.1h1.1v-4.2c0-1 .3-1.9 1.6-1.9.2 0 .4 0 .6.1v-1.2c-1.1 0-1.7.1-2.2 1.2v-1.1zM-372.1 344.5h-1.1v7.1h1.1v-7.1zm-1.2-1.8h1.3v-1.2h-1.3v1.2zM-366.4 349.2c0 1.2-.8 1.6-1.4 1.6-.8 0-1.2-.6-1.2-1.4v-4.9h-1.1v5.4c0 1.2.7 1.8 1.9 1.8.7 0 1.4-.3 1.8-1v.9h1.2c0-.5-.1-1-.1-1.5v-5.6h-1.1v4.7zM-358.5 351.6v-4.8c0-.3.1-1 .4-1.2.3-.3.4-.3.9-.3.9 0 1.1.7 1.1 1.4v4.9h1.1v-5.4c0-1.7-1.2-1.8-1.9-1.8-.6 0-1.3.2-1.7.9-.3-.6-1-.9-1.7-.9-.8 0-1.4.3-1.8 1v-.9h-1.2c0 .5.1 1 .1 1.5v5.6h1.1v-4.8c0-.3.1-.7.3-1 .2-.3.6-.5 1-.5.9 0 1.1.7 1.1 1.4v4.9h1.2z" fill="#1E1E1C"/><path fill="#F9D300" d="M-473.5 391.6h4.4v25h-4.4z"/><path fill="#E20717" d="M-473.5 366.5h4.4v25.1h-4.4z"/><path fill="#1E1E1C" d="M-473.5 341.6h4.4v25h-4.4zM-487.3 345.8c0-1.4-1-2.6-1.4-2.9l-.3.1c.4.5 1.1 1.3 1.1 2.3 0 2.1-2.2 3.9-4.7 3.9v.6c0 .3 0 .6-.1.9 2.9-.1 5.4-2.4 5.4-4.9m-3.9 17.1c-1.2 0-1.5-.1-1.8-.1-.2 0-.4 0-.4.3 0 .2.2.5.4.6.3-.3.7-.3 1.3-.3.3 0 .7.1.9.1 0 .2-.1.4-.1.7v.6c0 .7-.1 1.1-.4 1.4.1 0 .2.1.3.1.5 0 .6-.2.6-1.4v-.8c.6.5 1.3 1.4 1.3 2 .2-.1.5-.4.5-.7 0-.4-.7-1.1-1.5-1.9.1 0 .4-.1.6-.1.6 0 1.1.1 1.4.4.1-.1.2-.5.2-.7 0-.4-.2-.3-.4-.3-.6 0-1.4.1-2 .2-.2-.3-1.5-2.1-1.9-3-.1 0-.2-.1-.3-.1-.3 0-.4.2-.5.5.9.9 1.6 1.8 1.8 2.5m-7.2-2.5c-.1-.3-.2-.5-.5-.5-.2 0-.2 0-.3.1-.3.9-1.7 2.7-1.9 3-.6-.1-1.4-.2-2-.2-.2 0-.4 0-.4.3 0 .2.1.6.2.7.3-.3.8-.4 1.4-.4.2 0 .5.1.6.1-.8.8-1.5 1.4-1.5 1.9 0 .2.2.6.5.7 0-.6.7-1.5 1.3-2v.8c0 1.2.1 1.4.6 1.4.1 0 .2 0 .3-.1-.2-.3-.4-.7-.4-1.4v-.6c0-.3 0-.5-.1-.7.2 0 .6-.1.9-.1.6 0 1 .1 1.3.3.2-.2.4-.4.4-.6 0-.3-.2-.3-.4-.3-.3 0-.6.1-1.8.1.4-.7 1.1-1.6 1.8-2.5m-5-15.1c0-1 .7-1.8 1.1-2.3l-.3-.1c-.4.3-1.4 1.4-1.4 2.9 0 2.5 2.5 4.8 5.4 4.8v-.9-.6c-2.5.1-4.8-1.7-4.8-3.8m7.7-1.9c.1-.3.3-.7.3-1 0-1.1-.9-1.6-2.1-1.6-.6 0-.9.2-.9.4s.2.6.3.8c.2-.1.6-.2.9-.2.8-.1 1.4.8 1.5 1.6m.6-1.4c.7.1 1.2-.8.5-.9.1.3-.4.5-.4.5s-.2-.4 0-.6c-.4-.2-.5 0-.5.3.3.2.4.4.4.7m2.3 6.1h.3c2 0 3.9-1.3 3.9-2.9 0-.9-.4-1.5-.9-2.2-.3 0-.5.1-.7.1-.9 0-1.4-.5-1.4-1 0-.4.3-.7.9-.7.8 0 2.3.8 3.9.8-.1.1-.4.2-.7.3.9.8 1.5 1.9 1.7 3l2.3 3.7c.4.6 1.2 1.9 2.5 2.8-1.5 0-2.5 0-3.8-2l-1.2-1.9c-.1.2-.2.5-.3.7l2.4 3.8c.4.6 1.2 1.9 2.5 2.8-1.5 0-2.5 0-3.8-2l-2.1-3.3-.5.5 2.9 4.6c.4.6 1.2 1.8 2.5 2.8-1.5 0-2.5 0-3.8-2l-2.8-4.5-.6.3 3.4 5.5c.4.6 1.2 1.8 2.5 2.8-1.5 0-2.5 0-3.8-2l-3.5-5.7c-.2.1-.4.2-.6.2l4 6.4c.4.6 1.2 1.9 2.5 2.8-1.5 0-2.5 0-3.8-2l-4.3-6.8h-.1c-.1.4-.2.7-.2 1.1 0 2.1 1.4 4 3.1 5.5-.1 0-.3.1-.5.1h-.7c.4.9 1.2 2 1.7 2.6.6-.1 1.4-.2 1.9-.2.6 0 .6.3.6.6 0 .5-.2.9-.5 1.1-.1-.3-.3-.6-1.3-.6h-.1c.3.3 1.2 1.1 1.2 1.7 0 .4-.4 1-1 1v-.3c0-.5-.4-1.1-.8-1.5v.2c0 1.2-.1 1.7-.8 1.7-.4 0-.6-.2-.7-.3.5-.4.5-.8.5-1.4v-.6-.5h-.6s-1.1-.1-1.3.5c-.3-.3-.7-.6-.7-1 0-.3.1-.6.7-.6.2 0 .8.1 1.4.1-.1-.3-.8-1.3-1.3-2-.1.3-.2.6-.5.8 0-.4-.3-1.8-1-2.6-.1.5-.2 1.1-.2 2.3 0 2.9.7 5 2.2 5.4-.2.3-.6.6-1 .6-.5 0-.8-.6-1.1-1.2-.2.4-.6 1.5-1 1.5s-.9-1-1-1.5c-.3.6-.6 1.2-1.1 1.2-.4 0-.8-.3-1-.6 1.5-.4 2.2-2.5 2.2-5.4 0-1.2-.1-1.8-.2-2.3-.7.8-.9 2.2-1 2.6-.3-.2-.4-.5-.5-.8-.6.7-1.2 1.6-1.3 2 .5 0 1.2-.1 1.4-.1.5 0 .7.3.7.6 0 .4-.4.8-.7 1-.3-.5-1.3-.5-1.3-.5h-.6v1.1c0 .7 0 1 .5 1.4-.1.1-.3.3-.7.3-.7 0-.8-.5-.8-1.7v-.2c-.4.4-.8 1-.8 1.5v.3c-.6 0-1-.6-1-1 0-.6.9-1.4 1.2-1.7h-.1c-1 0-1.2.3-1.3.6-.3-.2-.5-.6-.5-1.1 0-.3.1-.6.6-.6s1.3.1 1.9.2c.4-.6 1.3-1.7 1.7-2.6h-.7c-.2 0-.4 0-.5-.1 1.7-1.5 3.1-3.4 3.1-5.5 0-.3-.1-.7-.2-1.1h-.1l-4.3 6.8c-1.3 2-2.3 2-3.8 2 1.2-1 2.1-2.2 2.5-2.8l4-6.4c-.2-.1-.4-.1-.6-.2l-3.5 5.7c-1.3 2-2.3 2-3.8 2 1.3-1 2.1-2.2 2.5-2.8l3.4-5.5-.6-.3-2.8 4.5c-1.3 2-2.3 2-3.8 2 1.3-1 2.1-2.2 2.5-2.8l2.9-4.6-.5-.5-2.1 3.3c-1.3 2-2.3 2-3.8 2 1.3-1 2.1-2.2 2.5-2.8l2.4-3.8c-.1-.2-.2-.5-.3-.7l-1.2 1.9c-1.3 2-2.3 2-3.8 2 1.3-1 2.1-2.2 2.5-2.8l2.3-3.7c.2-1.2.8-2.2 1.7-3-.3-.1-.6-.2-.7-.3 1.5 0 3-.8 3.9-.8.5 0 .9.3.9.7 0 .5-.5 1-1.4 1-.2 0-.5 0-.7-.1-.5.7-.9 1.3-.9 2.2 0 1.6 2 2.9 3.9 2.9h.3c.4-1.3 1.2-2.2 1.9-3-.8-.3-1.7-1-1.7-1.4.1-.1 1.6.4 1.8.5h.1c.2-.1.3-.3.3-.4-.2 0-1.1-.2-1.8-.4-.5-.2-.8-.5-.8-.6.2 0 .8.3 1.7.3.3 0 .4 0 .7-.1-.2-.5-.7-1-1.1-1-.2 0-.6.1-1 .3-.2-.4-.5-.9-.5-1.2 0-.3.3-.7 1.2-.7.3 0 .5 0 .7.1.2 0 .3.1.5.1v-.1c0-.1.1-.3.5-.3.8 0 1.5.2 2.5.2.2 0 .4 0 .6-.1-.1.2-.3.5-.6.7.1.2.5.7.5 1.5 0 1.3-.8 2.4-.8 3.7-.5.9.1 1.5.3 1.9M-457.2 311.9c0-.7-.3-1.1-1.1-1.1-.3 0-1.2 0-1.2 1.4v2.1c0 1.4.4 1.7 1.2 1.7.6 0 1-.2 1.1-.3v-1.9h-1.2v-.7h2v3.1c-.5.3-1.1.5-1.9.5-1.3 0-2-.7-2-2.4v-2.1c0-1.3.6-2.1 2-2.1s2 .5 2 1.8h-.9zM-454.8 316.6v-6.3h3.2v.7h-2.4v2h2.2v.7h-2.2v2.2h2.5v.7M-450.5 316.6v-6.3h3.1v.7h-2.3v2h2.2v.7h-2.2v2.9M-446.6 314.3v-2.1c0-1.3.6-2.1 2-2.1 1.3 0 2 .8 2 2.1v2.1c0 1.8-.6 2.4-2 2.4s-2-.7-2-2.4m1.6-4.8h-.8v-.9h.8v.9zm1.5 4.8v-2.1c0-1.3-.9-1.4-1.2-1.4-.3 0-1.2 0-1.2 1.4v2.1c0 1.4.4 1.7 1.2 1.7.8 0 1.2-.3 1.2-1.7m.1-4.8h-.8v-.9h.8v.9zM-440.5 313.7v2.9h-.8v-6.3h2.2c1.1 0 1.5.8 1.5 1.6 0 .7-.4 1.3-1.2 1.4.7.1 1 .4 1 1.6 0 .3.1 1.3.2 1.7h-.8c-.2-.4-.2-1.3-.2-2.1-.1-.8-.7-.8-1-.8h-.9zm0-.7h1.2c.6 0 .9-.5.9-1.1 0-.5-.2-1-.8-1h-1.2v2.1zM-436.4 310.3h1.9c.8 0 1.4.3 1.7 1 .3.5.3 1.8.3 2 0 1.3-.1 2.1-.4 2.5-.3.5-1 .8-2.1.8h-1.5v-6.3zm.8 5.6h.8c1.1 0 1.5-.4 1.5-1.9v-1.3c0-1.3-.4-1.8-1.2-1.8h-1.1v5zM-431 316.6v-6.3h3.2v.7h-2.4v2h2.2v.7h-2.2v2.2h2.5v.7M-425.9 313.7v2.9h-.8v-6.3h2.2c1.1 0 1.5.8 1.5 1.6 0 .7-.4 1.3-1.2 1.4.7.1 1 .4 1 1.6 0 .3.1 1.3.2 1.7h-.8c-.2-.4-.2-1.3-.2-2.1-.1-.8-.7-.8-1-.8h-.9zm0-.7h1.2c.6 0 .9-.5.9-1.1 0-.5-.2-1-.8-1h-1.2v2.1zM-418.2 310.3v.7h-1.7v5.6h-.8V311h-1.7v-.7M-413.3 316.6h-.9l-1.9-6.3h.9l1.4 5.5h.1l1.4-5.5h.9M-410.6 314.3v-2.1c0-1.3.6-2.1 2-2.1 1.3 0 2 .8 2 2.1v2.1c0 1.8-.6 2.4-2 2.4s-2-.7-2-2.4m3.1 0v-2.1c0-1.3-.9-1.4-1.2-1.4s-1.2 0-1.2 1.4v2.1c0 1.4.4 1.7 1.2 1.7.8 0 1.2-.3 1.2-1.7M-404.5 316.6h-.8v-6.3h1.3l1.6 5.3h.1l1.6-5.3h1.3v6.3h-.8V311l-1.8 5.6h-.8l-1.7-5.6"/><path fill="none" d="M-557.7-333.3h1280v800h-1280z"/><path fill="#FFF" d="M-531 291.6h211.5v150H-531z"/><path d="M-456.5 379.2c0 1.2-.8 1.6-1.4 1.6-.8 0-1.2-.6-1.2-1.4v-4.9h-1.1v5.4c0 1.2.7 1.8 1.9 1.8.7 0 1.4-.4 1.8-1v.9h1.2c0-.5-.1-1-.1-1.5v-5.6h-1.1v4.7zM-448.3 381.6v-4.9c0-1.4-.4-2.3-1.9-2.3-.9 0-1.4.3-1.9 1h-.1v-.9h-1.2c0 .5.1 1 .1 1.5v5.6h1.2v-4.2c0-1 .2-2.1 1.4-2.1 1 0 1.2.6 1.2 1.4v4.9h1.2zM-442.6 377.7c0 1.4 0 3-1.3 3-1.4 0-1.4-1.5-1.4-2.6 0-1.9.2-2.9 1.4-2.9 1.2.1 1.3 1.6 1.3 2.5m0-2.5c-.4-.6-.9-.9-1.6-.9-2.3 0-2.3 2-2.3 3.8 0 3.1 1.1 3.6 2.3 3.6.7 0 1.2-.3 1.6-1v.8h1.1v-10.1h-1.1v3.8zM-435.4 381.6v-4.7h3.6v-1.1h-3.6v-3.2h3.7v-1.1h-5v10.1M-428.1 380.8c-1.2 0-1.5-.8-1.5-3.1 0-1.9.6-2.4 1.5-2.4s1.5.4 1.5 2.4c0 2.2-.3 3.1-1.5 3.1m0 .9c1.5 0 2.7-.4 2.7-3.6 0-2.1-.2-3.8-2.7-3.8s-2.7 1.7-2.7 3.8c0 3.2 1.2 3.6 2.7 3.6M-422.5 374.5h-1.1v7.1h1.1v-4.2c0-1 .3-1.9 1.6-1.9.2 0 .4 0 .6.1v-1.2c-1.1 0-1.7.1-2.2 1.2v-1.1zM-414.6 379.6c0-2.2-3.5-2.1-3.5-3.4 0-.6.5-1 1.1-1 .7 0 1.1.4 1.1 1.1h1.3c.1-1.4-1-2-2.2-2-2 0-2.4 1.2-2.4 1.9 0 2.1 3.5 2.1 3.5 3.4 0 .7-.5 1.1-1.2 1.1-1.2 0-1.2-1-1.2-1.4h-1.3c0 1.6.9 2.3 2.4 2.3 1.4.1 2.4-.5 2.4-2M-408.2 376.8c.1-1.6-.8-2.4-2.2-2.4-2.4 0-2.7 1.7-2.7 3.8 0 3.1 1.2 3.6 2.7 3.6.8 0 2.3-.5 2.2-2.5h-1.2c0 1.3-.8 1.6-1 1.6-1.2 0-1.5-.8-1.5-3.1 0-1.9.6-2.4 1.5-2.4.4 0 1 .3 1 1.5h1.2zM-401.3 381.6v-5c0-1.6-.7-2.2-1.9-2.2-.9 0-1.5.2-1.9 1h-.1v-3.9h-1.1v10.1h1.1v-4.2c0-1.2.3-2.1 1.4-2.1 1 0 1.3.6 1.3 1.5v4.8h1.2zM-395.5 379.2c0 1.2-.8 1.6-1.4 1.6-.8 0-1.2-.6-1.2-1.4v-4.9h-1.1v5.4c0 1.2.7 1.8 1.9 1.8.7 0 1.4-.4 1.8-1v.9h1.2c0-.5-.1-1-.1-1.5v-5.6h-1.1v4.7zM-387.3 381.6v-4.9c0-1.4-.4-2.3-1.9-2.3-.9 0-1.4.3-1.9 1h-.1v-.9h-1.2c0 .5.1 1 .1 1.5v5.6h1.1v-4.2c0-1 .2-2.1 1.4-2.1 1 0 1.2.6 1.2 1.4v4.9h1.3zM-381.7 378c0 1 0 2.6-1.3 2.6-.9 0-1.4-.5-1.4-2.8 0-.9 0-2.5 1.3-2.5 1.5 0 1.4 1.6 1.4 2.7m0-2.6c-.4-.7-.9-1-1.7-1-.6 0-2.2.2-2.2 3.5 0 2.1.4 3.8 2.3 3.8.6 0 1.3-.3 1.6-.9v1.5c0 .7-.4 1.2-1.2 1.2-.6 0-1.1-.4-1.1-1h-1.3c-.1 1.3 1 1.9 2.1 1.9 1.6 0 2.6-.4 2.6-2v-7.8h-1.1v.8zM-460.7 359.5v.9h1.1v6.2h1.1v-6.2h1.4v-.9h-1.4v-1.2c0-.6.2-1.1 1.4-1v-.8h-.5c-1 0-2 .3-2 1.7v1.4h-1.1zM-454 356.9h-1.3v1.5h1.3v-1.5zm2.4 0h-1.3v1.5h1.3v-1.5zm-.6 7.3c0 1.2-.8 1.6-1.4 1.6-.8 0-1.2-.6-1.2-1.4v-4.9h-1.1v5.4c0 1.2.7 1.8 1.9 1.8.7 0 1.4-.3 1.8-1v.9h1.2c0-.5-.1-1-.1-1.5v-5.6h-1.1v4.7zM-447.8 359.5h-1.1v7.1h1.1v-4.2c0-1 .3-1.9 1.6-1.9.2 0 .4 0 .6.1v-1.2c-1.1 0-1.7.1-2.2 1.2v-1.1zM-440.8 361.8h1.4c1.3 0 2.3.3 2.3 1.9 0 .7-.5 1.7-1.9 1.7h-1.8v-3.6zm0-4.2h1.8c1.1 0 1.6.7 1.6 1.5 0 1-.5 1.6-1.5 1.6h-1.9v-3.1zm2 9c1.1 0 3-.3 3-2.8 0-1.4-.6-2.3-2.1-2.4v-.1c1.3-.3 1.7-1.1 1.7-2.4 0-.2-.1-.8-.4-1.3-.4-.6-.9-1-2.3-1h-3.3v10.1h3.4zM-432.8 359.5h-1.1v7.1h1.1v-7.1zm-1.2-1.8h1.3v-1.2h-1.3v1.2zM-430.7 356.5h1.1v10.1h-1.1zM-423.8 362.7c0 1.4 0 3-1.3 3-1.4 0-1.4-1.5-1.4-2.6 0-1.9.2-2.9 1.4-2.9 1.2.1 1.3 1.6 1.3 2.5m0-2.5c-.4-.6-.9-.9-1.6-.9-2.3 0-2.3 2-2.3 3.8 0 3.1 1.1 3.6 2.3 3.6.7 0 1.2-.3 1.6-1v.8h1.1v-10.1h-1.1v3.8zM-416.8 364.2c0 1.2-.8 1.6-1.4 1.6-.8 0-1.2-.6-1.2-1.4v-4.9h-1.2v5.4c0 1.2.7 1.8 1.9 1.8.7 0 1.4-.3 1.8-1v.9h1.2c0-.5-.1-1-.1-1.5v-5.6h-1.1v4.7zM-408.6 366.6v-4.9c0-1.4-.4-2.3-1.9-2.3-.9 0-1.4.3-1.9 1h-.1v-.9h-1.2c0 .5.1 1 .1 1.5v5.6h1.1v-4.2c0-1 .2-2.1 1.4-2.1 1 0 1.2.6 1.2 1.4v4.9h1.3zM-402.9 363c0 1 0 2.6-1.3 2.6-.9 0-1.4-.5-1.4-2.8 0-.9 0-2.5 1.3-2.5 1.5 0 1.4 1.6 1.4 2.7m0-2.6c-.4-.7-.9-1-1.7-1-.6 0-2.2.2-2.2 3.5 0 2.1.4 3.8 2.3 3.8.6 0 1.3-.3 1.6-.9v1.5c0 .7-.4 1.2-1.2 1.2-.6 0-1.1-.4-1.1-1h-1.3c-.1 1.3 1 1.9 2.1 1.9 1.6 0 2.6-.4 2.6-2v-7.8h-1.1v.8zM-458.9 346.8h1.4c1.3 0 2.3.3 2.3 1.9 0 .7-.5 1.7-1.9 1.7h-1.8v-3.6zm0-4.2h1.8c1.1 0 1.6.7 1.6 1.5 0 1-.5 1.6-1.5 1.6h-1.9v-3.1zm2 9c1.2 0 3-.3 3-2.8 0-1.4-.6-2.3-2.1-2.4v-.1c1.3-.3 1.7-1.1 1.7-2.4 0-.2-.1-.8-.4-1.3-.4-.6-.9-1-2.3-1h-3.3v10.1h3.4zM-448.5 349.2c0 1.2-.8 1.6-1.4 1.6-.8 0-1.2-.6-1.2-1.4v-4.9h-1.1v5.4c0 1.2.7 1.8 1.9 1.8.7 0 1.4-.3 1.8-1v.9h1.2c0-.5-.1-1-.1-1.5v-5.6h-1.1v4.7zM-440.3 351.6v-4.9c0-1.4-.4-2.3-1.9-2.3-.9 0-1.4.3-1.9 1h-.1v-.9h-1.2c0 .5.1 1 .1 1.5v5.6h1.1v-4.2c0-1 .2-2.1 1.4-2.1 1 0 1.2.6 1.2 1.4v4.9h1.3zM-434.6 347.7c0 1.4 0 3-1.3 3-1.4 0-1.4-1.5-1.4-2.6 0-1.9.2-2.9 1.4-2.9 1.2.1 1.3 1.6 1.3 2.5m0-2.5c-.4-.6-.9-.9-1.6-.9-2.3 0-2.3 2-2.3 3.8 0 3.1 1.1 3.6 2.3 3.6.7 0 1.2-.3 1.6-1v.8h1.1v-10.1h-1.1v3.8zM-430.5 347.5c0-2 .6-2.3 1.3-2.3.8 0 1.4.3 1.4 2.3h-2.7zm4 .9v-.6c0-2.3-.5-3.4-2.5-3.4-2.4 0-2.7 1.7-2.7 3.8 0 3.1 1.2 3.6 2.7 3.6 1.5 0 2.5-.7 2.5-2.3h-1.3c0 .7-.5 1.3-1.2 1.3-.9 0-1.4-.4-1.4-2.4h3.9zM-420.2 349.6c0-2.2-3.5-2.1-3.5-3.4 0-.6.5-1 1.1-1 .7 0 1.1.4 1.1 1.1h1.3c.1-1.4-1-2-2.2-2-2 0-2.4 1.2-2.4 1.9 0 2.1 3.5 2.1 3.5 3.4 0 .7-.5 1.1-1.2 1.1-1.2 0-1.2-1-1.2-1.4h-1.3c0 1.6.9 2.3 2.4 2.3 1.3.1 2.4-.5 2.4-2M-413.8 351.6v-4.8c0-.3.1-1 .4-1.2.3-.3.4-.3.9-.3.9 0 1.1.7 1.1 1.4v4.9h1.1v-5.4c0-1.7-1.2-1.8-1.9-1.8-.6 0-1.3.2-1.7.9-.3-.6-1-.9-1.7-.9-.8 0-1.4.3-1.8 1v-.9h-1.2c0 .5.1 1 .1 1.5v5.6h1.1v-4.8c0-.3.1-.7.3-1 .2-.3.6-.5 1-.5.9 0 1.1.7 1.1 1.4v4.9h1.2zM-407.1 344.5h-1.1v7.1h1.1v-7.1zm-1.2-1.8h1.3v-1.2h-1.3v1.2zM-400 351.6v-4.9c0-1.4-.4-2.3-1.9-2.3-.9 0-1.4.3-1.9 1h-.1v-.9h-1.2c0 .5.1 1 .1 1.5v5.6h1.1v-4.2c0-1 .2-2.1 1.4-2.1 1 0 1.2.6 1.2 1.4v4.9h1.3zM-396.9 344.5h-1.1v7.1h1.1v-7.1zm-1.2-1.8h1.3v-1.2h-1.3v1.2zM-390.3 349.6c0-2.2-3.5-2.1-3.5-3.4 0-.6.5-1 1.1-1 .7 0 1.1.4 1.1 1.1h1.3c.1-1.4-1-2-2.2-2-2 0-2.4 1.2-2.4 1.9 0 2.1 3.5 2.1 3.5 3.4 0 .7-.5 1.1-1.2 1.1-1.2 0-1.2-1-1.2-1.4h-1.3c0 1.6.9 2.3 2.4 2.3 1.3.1 2.4-.5 2.4-2M-389.6 344.5v.9h1.2v5c0 .8.5 1.3 1.6 1.3.4 0 .8-.1 1.1-.1v-.9c-.3 0-.4.1-.5.1-1 0-1-.6-1-1v-4.3h1.5v-.9h-1.5v-1.9l-1.2.5v1.4h-1.2zM-383.5 347.5c0-2 .6-2.3 1.3-2.3.8 0 1.4.3 1.4 2.3h-2.7zm4 .9v-.6c0-2.3-.5-3.4-2.5-3.4-2.5 0-2.7 1.7-2.7 3.8 0 3.1 1.2 3.6 2.7 3.6 1.5 0 2.4-.7 2.5-2.3h-1.3c0 .7-.4 1.3-1.2 1.3-.9 0-1.4-.4-1.4-2.4h3.9zM-376.7 344.5h-1.1v7.1h1.1v-4.2c0-1 .3-1.9 1.6-1.9.2 0 .4 0 .6.1v-1.2c-1.1 0-1.7.1-2.2 1.2v-1.1zM-372.1 344.5h-1.1v7.1h1.1v-7.1zm-1.2-1.8h1.3v-1.2h-1.3v1.2zM-366.4 349.2c0 1.2-.8 1.6-1.4 1.6-.8 0-1.2-.6-1.2-1.4v-4.9h-1.1v5.4c0 1.2.7 1.8 1.9 1.8.7 0 1.4-.3 1.8-1v.9h1.2c0-.5-.1-1-.1-1.5v-5.6h-1.1v4.7zM-358.5 351.6v-4.8c0-.3.1-1 .4-1.2.3-.3.4-.3.9-.3.9 0 1.1.7 1.1 1.4v4.9h1.1v-5.4c0-1.7-1.2-1.8-1.9-1.8-.6 0-1.3.2-1.7.9-.3-.6-1-.9-1.7-.9-.8 0-1.4.3-1.8 1v-.9h-1.2c0 .5.1 1 .1 1.5v5.6h1.1v-4.8c0-.3.1-.7.3-1 .2-.3.6-.5 1-.5.9 0 1.1.7 1.1 1.4v4.9h1.2z" fill="#1E1E1C"/><path fill="#F9D300" d="M-473.5 391.6h4.4v25h-4.4z"/><path fill="#E20717" d="M-473.5 366.5h4.4v25.1h-4.4z"/><path fill="#1E1E1C" d="M-473.5 341.6h4.4v25h-4.4zM-487.3 345.8c0-1.4-1-2.6-1.4-2.9l-.3.1c.4.5 1.1 1.3 1.1 2.3 0 2.1-2.2 3.9-4.7 3.9v.6c0 .3 0 .6-.1.9 2.9-.1 5.4-2.4 5.4-4.9m-3.9 17.1c-1.2 0-1.5-.1-1.8-.1-.2 0-.4 0-.4.3 0 .2.2.5.4.6.3-.3.7-.3 1.3-.3.3 0 .7.1.9.1 0 .2-.1.4-.1.7v.6c0 .7-.1 1.1-.4 1.4.1 0 .2.1.3.1.5 0 .6-.2.6-1.4v-.8c.6.5 1.3 1.4 1.3 2 .2-.1.5-.4.5-.7 0-.4-.7-1.1-1.5-1.9.1 0 .4-.1.6-.1.6 0 1.1.1 1.4.4.1-.1.2-.5.2-.7 0-.4-.2-.3-.4-.3-.6 0-1.4.1-2 .2-.2-.3-1.5-2.1-1.9-3-.1 0-.2-.1-.3-.1-.3 0-.4.2-.5.5.9.9 1.6 1.8 1.8 2.5m-7.2-2.5c-.1-.3-.2-.5-.5-.5-.2 0-.2 0-.3.1-.3.9-1.7 2.7-1.9 3-.6-.1-1.4-.2-2-.2-.2 0-.4 0-.4.3 0 .2.1.6.2.7.3-.3.8-.4 1.4-.4.2 0 .5.1.6.1-.8.8-1.5 1.4-1.5 1.9 0 .2.2.6.5.7 0-.6.7-1.5 1.3-2v.8c0 1.2.1 1.4.6 1.4.1 0 .2 0 .3-.1-.2-.3-.4-.7-.4-1.4v-.6c0-.3 0-.5-.1-.7.2 0 .6-.1.9-.1.6 0 1 .1 1.3.3.2-.2.4-.4.4-.6 0-.3-.2-.3-.4-.3-.3 0-.6.1-1.8.1.4-.7 1.1-1.6 1.8-2.5m-5-15.1c0-1 .7-1.8 1.1-2.3l-.3-.1c-.4.3-1.4 1.4-1.4 2.9 0 2.5 2.5 4.8 5.4 4.8v-.9-.6c-2.5.1-4.8-1.7-4.8-3.8m7.7-1.9c.1-.3.3-.7.3-1 0-1.1-.9-1.6-2.1-1.6-.6 0-.9.2-.9.4s.2.6.3.8c.2-.1.6-.2.9-.2.8-.1 1.4.8 1.5 1.6m.6-1.4c.7.1 1.2-.8.5-.9.1.3-.4.5-.4.5s-.2-.4 0-.6c-.4-.2-.5 0-.5.3.3.2.4.4.4.7m2.3 6.1h.3c2 0 3.9-1.3 3.9-2.9 0-.9-.4-1.5-.9-2.2-.3 0-.5.1-.7.1-.9 0-1.4-.5-1.4-1 0-.4.3-.7.9-.7.8 0 2.3.8 3.9.8-.1.1-.4.2-.7.3.9.8 1.5 1.9 1.7 3l2.3 3.7c.4.6 1.2 1.9 2.5 2.8-1.5 0-2.5 0-3.8-2l-1.2-1.9c-.1.2-.2.5-.3.7l2.4 3.8c.4.6 1.2 1.9 2.5 2.8-1.5 0-2.5 0-3.8-2l-2.1-3.3-.5.5 2.9 4.6c.4.6 1.2 1.8 2.5 2.8-1.5 0-2.5 0-3.8-2l-2.8-4.5-.6.3 3.4 5.5c.4.6 1.2 1.8 2.5 2.8-1.5 0-2.5 0-3.8-2l-3.5-5.7c-.2.1-.4.2-.6.2l4 6.4c.4.6 1.2 1.9 2.5 2.8-1.5 0-2.5 0-3.8-2l-4.3-6.8h-.1c-.1.4-.2.7-.2 1.1 0 2.1 1.4 4 3.1 5.5-.1 0-.3.1-.5.1h-.7c.4.9 1.2 2 1.7 2.6.6-.1 1.4-.2 1.9-.2.6 0 .6.3.6.6 0 .5-.2.9-.5 1.1-.1-.3-.3-.6-1.3-.6h-.1c.3.3 1.2 1.1 1.2 1.7 0 .4-.4 1-1 1v-.3c0-.5-.4-1.1-.8-1.5v.2c0 1.2-.1 1.7-.8 1.7-.4 0-.6-.2-.7-.3.5-.4.5-.8.5-1.4v-.6-.5h-.6s-1.1-.1-1.3.5c-.3-.3-.7-.6-.7-1 0-.3.1-.6.7-.6.2 0 .8.1 1.4.1-.1-.3-.8-1.3-1.3-2-.1.3-.2.6-.5.8 0-.4-.3-1.8-1-2.6-.1.5-.2 1.1-.2 2.3 0 2.9.7 5 2.2 5.4-.2.3-.6.6-1 .6-.5 0-.8-.6-1.1-1.2-.2.4-.6 1.5-1 1.5s-.9-1-1-1.5c-.3.6-.6 1.2-1.1 1.2-.4 0-.8-.3-1-.6 1.5-.4 2.2-2.5 2.2-5.4 0-1.2-.1-1.8-.2-2.3-.7.8-.9 2.2-1 2.6-.3-.2-.4-.5-.5-.8-.6.7-1.2 1.6-1.3 2 .5 0 1.2-.1 1.4-.1.5 0 .7.3.7.6 0 .4-.4.8-.7 1-.3-.5-1.3-.5-1.3-.5h-.6v1.1c0 .7 0 1 .5 1.4-.1.1-.3.3-.7.3-.7 0-.8-.5-.8-1.7v-.2c-.4.4-.8 1-.8 1.5v.3c-.6 0-1-.6-1-1 0-.6.9-1.4 1.2-1.7h-.1c-1 0-1.2.3-1.3.6-.3-.2-.5-.6-.5-1.1 0-.3.1-.6.6-.6s1.3.1 1.9.2c.4-.6 1.3-1.7 1.7-2.6h-.7c-.2 0-.4 0-.5-.1 1.7-1.5 3.1-3.4 3.1-5.5 0-.3-.1-.7-.2-1.1h-.1l-4.3 6.8c-1.3 2-2.3 2-3.8 2 1.2-1 2.1-2.2 2.5-2.8l4-6.4c-.2-.1-.4-.1-.6-.2l-3.5 5.7c-1.3 2-2.3 2-3.8 2 1.3-1 2.1-2.2 2.5-2.8l3.4-5.5-.6-.3-2.8 4.5c-1.3 2-2.3 2-3.8 2 1.3-1 2.1-2.2 2.5-2.8l2.9-4.6-.5-.5-2.1 3.3c-1.3 2-2.3 2-3.8 2 1.3-1 2.1-2.2 2.5-2.8l2.4-3.8c-.1-.2-.2-.5-.3-.7l-1.2 1.9c-1.3 2-2.3 2-3.8 2 1.3-1 2.1-2.2 2.5-2.8l2.3-3.7c.2-1.2.8-2.2 1.7-3-.3-.1-.6-.2-.7-.3 1.5 0 3-.8 3.9-.8.5 0 .9.3.9.7 0 .5-.5 1-1.4 1-.2 0-.5 0-.7-.1-.5.7-.9 1.3-.9 2.2 0 1.6 2 2.9 3.9 2.9h.3c.4-1.3 1.2-2.2 1.9-3-.8-.3-1.7-1-1.7-1.4.1-.1 1.6.4 1.8.5h.1c.2-.1.3-.3.3-.4-.2 0-1.1-.2-1.8-.4-.5-.2-.8-.5-.8-.6.2 0 .8.3 1.7.3.3 0 .4 0 .7-.1-.2-.5-.7-1-1.1-1-.2 0-.6.1-1 .3-.2-.4-.5-.9-.5-1.2 0-.3.3-.7 1.2-.7.3 0 .5 0 .7.1.2 0 .3.1.5.1v-.1c0-.1.1-.3.5-.3.8 0 1.5.2 2.5.2.2 0 .4 0 .6-.1-.1.2-.3.5-.6.7.1.2.5.7.5 1.5 0 1.3-.8 2.4-.8 3.7-.5.9.1 1.5.3 1.9M-457.2 311.9c0-.7-.3-1.1-1.1-1.1-.3 0-1.2 0-1.2 1.4v2.1c0 1.4.4 1.7 1.2 1.7.6 0 1-.2 1.1-.3v-1.9h-1.2v-.7h2v3.1c-.5.3-1.1.5-1.9.5-1.3 0-2-.7-2-2.4v-2.1c0-1.3.6-2.1 2-2.1s2 .5 2 1.8h-.9zM-454.8 316.6v-6.3h3.2v.7h-2.4v2h2.2v.7h-2.2v2.2h2.5v.7M-450.5 316.6v-6.3h3.1v.7h-2.3v2h2.2v.7h-2.2v2.9M-446.6 314.3v-2.1c0-1.3.6-2.1 2-2.1 1.3 0 2 .8 2 2.1v2.1c0 1.8-.6 2.4-2 2.4s-2-.7-2-2.4m1.6-4.8h-.8v-.9h.8v.9zm1.5 4.8v-2.1c0-1.3-.9-1.4-1.2-1.4-.3 0-1.2 0-1.2 1.4v2.1c0 1.4.4 1.7 1.2 1.7.8 0 1.2-.3 1.2-1.7m.1-4.8h-.8v-.9h.8v.9zM-440.5 313.7v2.9h-.8v-6.3h2.2c1.1 0 1.5.8 1.5 1.6 0 .7-.4 1.3-1.2 1.4.7.1 1 .4 1 1.6 0 .3.1 1.3.2 1.7h-.8c-.2-.4-.2-1.3-.2-2.1-.1-.8-.7-.8-1-.8h-.9zm0-.7h1.2c.6 0 .9-.5.9-1.1 0-.5-.2-1-.8-1h-1.2v2.1zM-436.4 310.3h1.9c.8 0 1.4.3 1.7 1 .3.5.3 1.8.3 2 0 1.3-.1 2.1-.4 2.5-.3.5-1 .8-2.1.8h-1.5v-6.3zm.8 5.6h.8c1.1 0 1.5-.4 1.5-1.9v-1.3c0-1.3-.4-1.8-1.2-1.8h-1.1v5zM-431 316.6v-6.3h3.2v.7h-2.4v2h2.2v.7h-2.2v2.2h2.5v.7M-425.9 313.7v2.9h-.8v-6.3h2.2c1.1 0 1.5.8 1.5 1.6 0 .7-.4 1.3-1.2 1.4.7.1 1 .4 1 1.6 0 .3.1 1.3.2 1.7h-.8c-.2-.4-.2-1.3-.2-2.1-.1-.8-.7-.8-1-.8h-.9zm0-.7h1.2c.6 0 .9-.5.9-1.1 0-.5-.2-1-.8-1h-1.2v2.1zM-418.2 310.3v.7h-1.7v5.6h-.8V311h-1.7v-.7M-413.3 316.6h-.9l-1.9-6.3h.9l1.4 5.5h.1l1.4-5.5h.9M-410.6 314.3v-2.1c0-1.3.6-2.1 2-2.1 1.3 0 2 .8 2 2.1v2.1c0 1.8-.6 2.4-2 2.4s-2-.7-2-2.4m3.1 0v-2.1c0-1.3-.9-1.4-1.2-1.4s-1.2 0-1.2 1.4v2.1c0 1.4.4 1.7 1.2 1.7.8 0 1.2-.3 1.2-1.7M-404.5 316.6h-.8v-6.3h1.3l1.6 5.3h.1l1.6-5.3h1.3v6.3h-.8V311l-1.8 5.6h-.8l-1.7-5.6"/><path fill="none" d="M-557.7-333.3h1280v800h-1280z"/><path fill="#FFF" d="M-531 291.6h211.5v150H-531z"/><path d="M-456.5 379.2c0 1.2-.8 1.6-1.4 1.6-.8 0-1.2-.6-1.2-1.4v-4.9h-1.1v5.4c0 1.2.7 1.8 1.9 1.8.7 0 1.4-.4 1.8-1v.9h1.2c0-.5-.1-1-.1-1.5v-5.6h-1.1v4.7zM-448.3 381.6v-4.9c0-1.4-.4-2.3-1.9-2.3-.9 0-1.4.3-1.9 1h-.1v-.9h-1.2c0 .5.1 1 .1 1.5v5.6h1.2v-4.2c0-1 .2-2.1 1.4-2.1 1 0 1.2.6 1.2 1.4v4.9h1.2zM-442.6 377.7c0 1.4 0 3-1.3 3-1.4 0-1.4-1.5-1.4-2.6 0-1.9.2-2.9 1.4-2.9 1.2.1 1.3 1.6 1.3 2.5m0-2.5c-.4-.6-.9-.9-1.6-.9-2.3 0-2.3 2-2.3 3.8 0 3.1 1.1 3.6 2.3 3.6.7 0 1.2-.3 1.6-1v.8h1.1v-10.1h-1.1v3.8zM-435.4 381.6v-4.7h3.6v-1.1h-3.6v-3.2h3.7v-1.1h-5v10.1M-428.1 380.8c-1.2 0-1.5-.8-1.5-3.1 0-1.9.6-2.4 1.5-2.4s1.5.4 1.5 2.4c0 2.2-.3 3.1-1.5 3.1m0 .9c1.5 0 2.7-.4 2.7-3.6 0-2.1-.2-3.8-2.7-3.8s-2.7 1.7-2.7 3.8c0 3.2 1.2 3.6 2.7 3.6M-422.5 374.5h-1.1v7.1h1.1v-4.2c0-1 .3-1.9 1.6-1.9.2 0 .4 0 .6.1v-1.2c-1.1 0-1.7.1-2.2 1.2v-1.1zM-414.6 379.6c0-2.2-3.5-2.1-3.5-3.4 0-.6.5-1 1.1-1 .7 0 1.1.4 1.1 1.1h1.3c.1-1.4-1-2-2.2-2-2 0-2.4 1.2-2.4 1.9 0 2.1 3.5 2.1 3.5 3.4 0 .7-.5 1.1-1.2 1.1-1.2 0-1.2-1-1.2-1.4h-1.3c0 1.6.9 2.3 2.4 2.3 1.4.1 2.4-.5 2.4-2M-408.2 376.8c.1-1.6-.8-2.4-2.2-2.4-2.4 0-2.7 1.7-2.7 3.8 0 3.1 1.2 3.6 2.7 3.6.8 0 2.3-.5 2.2-2.5h-1.2c0 1.3-.8 1.6-1 1.6-1.2 0-1.5-.8-1.5-3.1 0-1.9.6-2.4 1.5-2.4.4 0 1 .3 1 1.5h1.2zM-401.3 381.6v-5c0-1.6-.7-2.2-1.9-2.2-.9 0-1.5.2-1.9 1h-.1v-3.9h-1.1v10.1h1.1v-4.2c0-1.2.3-2.1 1.4-2.1 1 0 1.3.6 1.3 1.5v4.8h1.2zM-395.5 379.2c0 1.2-.8 1.6-1.4 1.6-.8 0-1.2-.6-1.2-1.4v-4.9h-1.1v5.4c0 1.2.7 1.8 1.9 1.8.7 0 1.4-.4 1.8-1v.9h1.2c0-.5-.1-1-.1-1.5v-5.6h-1.1v4.7zM-387.3 381.6v-4.9c0-1.4-.4-2.3-1.9-2.3-.9 0-1.4.3-1.9 1h-.1v-.9h-1.2c0 .5.1 1 .1 1.5v5.6h1.1v-4.2c0-1 .2-2.1 1.4-2.1 1 0 1.2.6 1.2 1.4v4.9h1.3zM-381.7 378c0 1 0 2.6-1.3 2.6-.9 0-1.4-.5-1.4-2.8 0-.9 0-2.5 1.3-2.5 1.5 0 1.4 1.6 1.4 2.7m0-2.6c-.4-.7-.9-1-1.7-1-.6 0-2.2.2-2.2 3.5 0 2.1.4 3.8 2.3 3.8.6 0 1.3-.3 1.6-.9v1.5c0 .7-.4 1.2-1.2 1.2-.6 0-1.1-.4-1.1-1h-1.3c-.1 1.3 1 1.9 2.1 1.9 1.6 0 2.6-.4 2.6-2v-7.8h-1.1v.8zM-460.7 359.5v.9h1.1v6.2h1.1v-6.2h1.4v-.9h-1.4v-1.2c0-.6.2-1.1 1.4-1v-.8h-.5c-1 0-2 .3-2 1.7v1.4h-1.1zM-454 356.9h-1.3v1.5h1.3v-1.5zm2.4 0h-1.3v1.5h1.3v-1.5zm-.6 7.3c0 1.2-.8 1.6-1.4 1.6-.8 0-1.2-.6-1.2-1.4v-4.9h-1.1v5.4c0 1.2.7 1.8 1.9 1.8.7 0 1.4-.3 1.8-1v.9h1.2c0-.5-.1-1-.1-1.5v-5.6h-1.1v4.7zM-447.8 359.5h-1.1v7.1h1.1v-4.2c0-1 .3-1.9 1.6-1.9.2 0 .4 0 .6.1v-1.2c-1.1 0-1.7.1-2.2 1.2v-1.1zM-440.8 361.8h1.4c1.3 0 2.3.3 2.3 1.9 0 .7-.5 1.7-1.9 1.7h-1.8v-3.6zm0-4.2h1.8c1.1 0 1.6.7 1.6 1.5 0 1-.5 1.6-1.5 1.6h-1.9v-3.1zm2 9c1.1 0 3-.3 3-2.8 0-1.4-.6-2.3-2.1-2.4v-.1c1.3-.3 1.7-1.1 1.7-2.4 0-.2-.1-.8-.4-1.3-.4-.6-.9-1-2.3-1h-3.3v10.1h3.4zM-432.8 359.5h-1.1v7.1h1.1v-7.1zm-1.2-1.8h1.3v-1.2h-1.3v1.2zM-430.7 356.5h1.1v10.1h-1.1zM-423.8 362.7c0 1.4 0 3-1.3 3-1.4 0-1.4-1.5-1.4-2.6 0-1.9.2-2.9 1.4-2.9 1.2.1 1.3 1.6 1.3 2.5m0-2.5c-.4-.6-.9-.9-1.6-.9-2.3 0-2.3 2-2.3 3.8 0 3.1 1.1 3.6 2.3 3.6.7 0 1.2-.3 1.6-1v.8h1.1v-10.1h-1.1v3.8zM-416.8 364.2c0 1.2-.8 1.6-1.4 1.6-.8 0-1.2-.6-1.2-1.4v-4.9h-1.2v5.4c0 1.2.7 1.8 1.9 1.8.7 0 1.4-.3 1.8-1v.9h1.2c0-.5-.1-1-.1-1.5v-5.6h-1.1v4.7zM-408.6 366.6v-4.9c0-1.4-.4-2.3-1.9-2.3-.9 0-1.4.3-1.9 1h-.1v-.9h-1.2c0 .5.1 1 .1 1.5v5.6h1.1v-4.2c0-1 .2-2.1 1.4-2.1 1 0 1.2.6 1.2 1.4v4.9h1.3zM-402.9 363c0 1 0 2.6-1.3 2.6-.9 0-1.4-.5-1.4-2.8 0-.9 0-2.5 1.3-2.5 1.5 0 1.4 1.6 1.4 2.7m0-2.6c-.4-.7-.9-1-1.7-1-.6 0-2.2.2-2.2 3.5 0 2.1.4 3.8 2.3 3.8.6 0 1.3-.3 1.6-.9v1.5c0 .7-.4 1.2-1.2 1.2-.6 0-1.1-.4-1.1-1h-1.3c-.1 1.3 1 1.9 2.1 1.9 1.6 0 2.6-.4 2.6-2v-7.8h-1.1v.8zM-458.9 346.8h1.4c1.3 0 2.3.3 2.3 1.9 0 .7-.5 1.7-1.9 1.7h-1.8v-3.6zm0-4.2h1.8c1.1 0 1.6.7 1.6 1.5 0 1-.5 1.6-1.5 1.6h-1.9v-3.1zm2 9c1.2 0 3-.3 3-2.8 0-1.4-.6-2.3-2.1-2.4v-.1c1.3-.3 1.7-1.1 1.7-2.4 0-.2-.1-.8-.4-1.3-.4-.6-.9-1-2.3-1h-3.3v10.1h3.4zM-448.5 349.2c0 1.2-.8 1.6-1.4 1.6-.8 0-1.2-.6-1.2-1.4v-4.9h-1.1v5.4c0 1.2.7 1.8 1.9 1.8.7 0 1.4-.3 1.8-1v.9h1.2c0-.5-.1-1-.1-1.5v-5.6h-1.1v4.7zM-440.3 351.6v-4.9c0-1.4-.4-2.3-1.9-2.3-.9 0-1.4.3-1.9 1h-.1v-.9h-1.2c0 .5.1 1 .1 1.5v5.6h1.1v-4.2c0-1 .2-2.1 1.4-2.1 1 0 1.2.6 1.2 1.4v4.9h1.3zM-434.6 347.7c0 1.4 0 3-1.3 3-1.4 0-1.4-1.5-1.4-2.6 0-1.9.2-2.9 1.4-2.9 1.2.1 1.3 1.6 1.3 2.5m0-2.5c-.4-.6-.9-.9-1.6-.9-2.3 0-2.3 2-2.3 3.8 0 3.1 1.1 3.6 2.3 3.6.7 0 1.2-.3 1.6-1v.8h1.1v-10.1h-1.1v3.8zM-430.5 347.5c0-2 .6-2.3 1.3-2.3.8 0 1.4.3 1.4 2.3h-2.7zm4 .9v-.6c0-2.3-.5-3.4-2.5-3.4-2.4 0-2.7 1.7-2.7 3.8 0 3.1 1.2 3.6 2.7 3.6 1.5 0 2.5-.7 2.5-2.3h-1.3c0 .7-.5 1.3-1.2 1.3-.9 0-1.4-.4-1.4-2.4h3.9zM-420.2 349.6c0-2.2-3.5-2.1-3.5-3.4 0-.6.5-1 1.1-1 .7 0 1.1.4 1.1 1.1h1.3c.1-1.4-1-2-2.2-2-2 0-2.4 1.2-2.4 1.9 0 2.1 3.5 2.1 3.5 3.4 0 .7-.5 1.1-1.2 1.1-1.2 0-1.2-1-1.2-1.4h-1.3c0 1.6.9 2.3 2.4 2.3 1.3.1 2.4-.5 2.4-2M-413.8 351.6v-4.8c0-.3.1-1 .4-1.2.3-.3.4-.3.9-.3.9 0 1.1.7 1.1 1.4v4.9h1.1v-5.4c0-1.7-1.2-1.8-1.9-1.8-.6 0-1.3.2-1.7.9-.3-.6-1-.9-1.7-.9-.8 0-1.4.3-1.8 1v-.9h-1.2c0 .5.1 1 .1 1.5v5.6h1.1v-4.8c0-.3.1-.7.3-1 .2-.3.6-.5 1-.5.9 0 1.1.7 1.1 1.4v4.9h1.2zM-407.1 344.5h-1.1v7.1h1.1v-7.1zm-1.2-1.8h1.3v-1.2h-1.3v1.2zM-400 351.6v-4.9c0-1.4-.4-2.3-1.9-2.3-.9 0-1.4.3-1.9 1h-.1v-.9h-1.2c0 .5.1 1 .1 1.5v5.6h1.1v-4.2c0-1 .2-2.1 1.4-2.1 1 0 1.2.6 1.2 1.4v4.9h1.3zM-396.9 344.5h-1.1v7.1h1.1v-7.1zm-1.2-1.8h1.3v-1.2h-1.3v1.2zM-390.3 349.6c0-2.2-3.5-2.1-3.5-3.4 0-.6.5-1 1.1-1 .7 0 1.1.4 1.1 1.1h1.3c.1-1.4-1-2-2.2-2-2 0-2.4 1.2-2.4 1.9 0 2.1 3.5 2.1 3.5 3.4 0 .7-.5 1.1-1.2 1.1-1.2 0-1.2-1-1.2-1.4h-1.3c0 1.6.9 2.3 2.4 2.3 1.3.1 2.4-.5 2.4-2M-389.6 344.5v.9h1.2v5c0 .8.5 1.3 1.6 1.3.4 0 .8-.1 1.1-.1v-.9c-.3 0-.4.1-.5.1-1 0-1-.6-1-1v-4.3h1.5v-.9h-1.5v-1.9l-1.2.5v1.4h-1.2zM-383.5 347.5c0-2 .6-2.3 1.3-2.3.8 0 1.4.3 1.4 2.3h-2.7zm4 .9v-.6c0-2.3-.5-3.4-2.5-3.4-2.5 0-2.7 1.7-2.7 3.8 0 3.1 1.2 3.6 2.7 3.6 1.5 0 2.4-.7 2.5-2.3h-1.3c0 .7-.4 1.3-1.2 1.3-.9 0-1.4-.4-1.4-2.4h3.9zM-376.7 344.5h-1.1v7.1h1.1v-4.2c0-1 .3-1.9 1.6-1.9.2 0 .4 0 .6.1v-1.2c-1.1 0-1.7.1-2.2 1.2v-1.1zM-372.1 344.5h-1.1v7.1h1.1v-7.1zm-1.2-1.8h1.3v-1.2h-1.3v1.2zM-366.4 349.2c0 1.2-.8 1.6-1.4 1.6-.8 0-1.2-.6-1.2-1.4v-4.9h-1.1v5.4c0 1.2.7 1.8 1.9 1.8.7 0 1.4-.3 1.8-1v.9h1.2c0-.5-.1-1-.1-1.5v-5.6h-1.1v4.7zM-358.5 351.6v-4.8c0-.3.1-1 .4-1.2.3-.3.4-.3.9-.3.9 0 1.1.7 1.1 1.4v4.9h1.1v-5.4c0-1.7-1.2-1.8-1.9-1.8-.6 0-1.3.2-1.7.9-.3-.6-1-.9-1.7-.9-.8 0-1.4.3-1.8 1v-.9h-1.2c0 .5.1 1 .1 1.5v5.6h1.1v-4.8c0-.3.1-.7.3-1 .2-.3.6-.5 1-.5.9 0 1.1.7 1.1 1.4v4.9h1.2z" fill="#1E1E1C"/><path fill="#F9D300" d="M-473.5 391.6h4.4v25h-4.4z"/><path fill="#E20717" d="M-473.5 366.5h4.4v25.1h-4.4z"/><path fill="#1E1E1C" d="M-473.5 341.6h4.4v25h-4.4zM-487.3 345.8c0-1.4-1-2.6-1.4-2.9l-.3.1c.4.5 1.1 1.3 1.1 2.3 0 2.1-2.2 3.9-4.7 3.9v.6c0 .3 0 .6-.1.9 2.9-.1 5.4-2.4 5.4-4.9m-3.9 17.1c-1.2 0-1.5-.1-1.8-.1-.2 0-.4 0-.4.3 0 .2.2.5.4.6.3-.3.7-.3 1.3-.3.3 0 .7.1.9.1 0 .2-.1.4-.1.7v.6c0 .7-.1 1.1-.4 1.4.1 0 .2.1.3.1.5 0 .6-.2.6-1.4v-.8c.6.5 1.3 1.4 1.3 2 .2-.1.5-.4.5-.7 0-.4-.7-1.1-1.5-1.9.1 0 .4-.1.6-.1.6 0 1.1.1 1.4.4.1-.1.2-.5.2-.7 0-.4-.2-.3-.4-.3-.6 0-1.4.1-2 .2-.2-.3-1.5-2.1-1.9-3-.1 0-.2-.1-.3-.1-.3 0-.4.2-.5.5.9.9 1.6 1.8 1.8 2.5m-7.2-2.5c-.1-.3-.2-.5-.5-.5-.2 0-.2 0-.3.1-.3.9-1.7 2.7-1.9 3-.6-.1-1.4-.2-2-.2-.2 0-.4 0-.4.3 0 .2.1.6.2.7.3-.3.8-.4 1.4-.4.2 0 .5.1.6.1-.8.8-1.5 1.4-1.5 1.9 0 .2.2.6.5.7 0-.6.7-1.5 1.3-2v.8c0 1.2.1 1.4.6 1.4.1 0 .2 0 .3-.1-.2-.3-.4-.7-.4-1.4v-.6c0-.3 0-.5-.1-.7.2 0 .6-.1.9-.1.6 0 1 .1 1.3.3.2-.2.4-.4.4-.6 0-.3-.2-.3-.4-.3-.3 0-.6.1-1.8.1.4-.7 1.1-1.6 1.8-2.5m-5-15.1c0-1 .7-1.8 1.1-2.3l-.3-.1c-.4.3-1.4 1.4-1.4 2.9 0 2.5 2.5 4.8 5.4 4.8v-.9-.6c-2.5.1-4.8-1.7-4.8-3.8m7.7-1.9c.1-.3.3-.7.3-1 0-1.1-.9-1.6-2.1-1.6-.6 0-.9.2-.9.4s.2.6.3.8c.2-.1.6-.2.9-.2.8-.1 1.4.8 1.5 1.6m.6-1.4c.7.1 1.2-.8.5-.9.1.3-.4.5-.4.5s-.2-.4 0-.6c-.4-.2-.5 0-.5.3.3.2.4.4.4.7m2.3 6.1h.3c2 0 3.9-1.3 3.9-2.9 0-.9-.4-1.5-.9-2.2-.3 0-.5.1-.7.1-.9 0-1.4-.5-1.4-1 0-.4.3-.7.9-.7.8 0 2.3.8 3.9.8-.1.1-.4.2-.7.3.9.8 1.5 1.9 1.7 3l2.3 3.7c.4.6 1.2 1.9 2.5 2.8-1.5 0-2.5 0-3.8-2l-1.2-1.9c-.1.2-.2.5-.3.7l2.4 3.8c.4.6 1.2 1.9 2.5 2.8-1.5 0-2.5 0-3.8-2l-2.1-3.3-.5.5 2.9 4.6c.4.6 1.2 1.8 2.5 2.8-1.5 0-2.5 0-3.8-2l-2.8-4.5-.6.3 3.4 5.5c.4.6 1.2 1.8 2.5 2.8-1.5 0-2.5 0-3.8-2l-3.5-5.7c-.2.1-.4.2-.6.2l4 6.4c.4.6 1.2 1.9 2.5 2.8-1.5 0-2.5 0-3.8-2l-4.3-6.8h-.1c-.1.4-.2.7-.2 1.1 0 2.1 1.4 4 3.1 5.5-.1 0-.3.1-.5.1h-.7c.4.9 1.2 2 1.7 2.6.6-.1 1.4-.2 1.9-.2.6 0 .6.3.6.6 0 .5-.2.9-.5 1.1-.1-.3-.3-.6-1.3-.6h-.1c.3.3 1.2 1.1 1.2 1.7 0 .4-.4 1-1 1v-.3c0-.5-.4-1.1-.8-1.5v.2c0 1.2-.1 1.7-.8 1.7-.4 0-.6-.2-.7-.3.5-.4.5-.8.5-1.4v-.6-.5h-.6s-1.1-.1-1.3.5c-.3-.3-.7-.6-.7-1 0-.3.1-.6.7-.6.2 0 .8.1 1.4.1-.1-.3-.8-1.3-1.3-2-.1.3-.2.6-.5.8 0-.4-.3-1.8-1-2.6-.1.5-.2 1.1-.2 2.3 0 2.9.7 5 2.2 5.4-.2.3-.6.6-1 .6-.5 0-.8-.6-1.1-1.2-.2.4-.6 1.5-1 1.5s-.9-1-1-1.5c-.3.6-.6 1.2-1.1 1.2-.4 0-.8-.3-1-.6 1.5-.4 2.2-2.5 2.2-5.4 0-1.2-.1-1.8-.2-2.3-.7.8-.9 2.2-1 2.6-.3-.2-.4-.5-.5-.8-.6.7-1.2 1.6-1.3 2 .5 0 1.2-.1 1.4-.1.5 0 .7.3.7.6 0 .4-.4.8-.7 1-.3-.5-1.3-.5-1.3-.5h-.6v1.1c0 .7 0 1 .5 1.4-.1.1-.3.3-.7.3-.7 0-.8-.5-.8-1.7v-.2c-.4.4-.8 1-.8 1.5v.3c-.6 0-1-.6-1-1 0-.6.9-1.4 1.2-1.7h-.1c-1 0-1.2.3-1.3.6-.3-.2-.5-.6-.5-1.1 0-.3.1-.6.6-.6s1.3.1 1.9.2c.4-.6 1.3-1.7 1.7-2.6h-.7c-.2 0-.4 0-.5-.1 1.7-1.5 3.1-3.4 3.1-5.5 0-.3-.1-.7-.2-1.1h-.1l-4.3 6.8c-1.3 2-2.3 2-3.8 2 1.2-1 2.1-2.2 2.5-2.8l4-6.4c-.2-.1-.4-.1-.6-.2l-3.5 5.7c-1.3 2-2.3 2-3.8 2 1.3-1 2.1-2.2 2.5-2.8l3.4-5.5-.6-.3-2.8 4.5c-1.3 2-2.3 2-3.8 2 1.3-1 2.1-2.2 2.5-2.8l2.9-4.6-.5-.5-2.1 3.3c-1.3 2-2.3 2-3.8 2 1.3-1 2.1-2.2 2.5-2.8l2.4-3.8c-.1-.2-.2-.5-.3-.7l-1.2 1.9c-1.3 2-2.3 2-3.8 2 1.3-1 2.1-2.2 2.5-2.8l2.3-3.7c.2-1.2.8-2.2 1.7-3-.3-.1-.6-.2-.7-.3 1.5 0 3-.8 3.9-.8.5 0 .9.3.9.7 0 .5-.5 1-1.4 1-.2 0-.5 0-.7-.1-.5.7-.9 1.3-.9 2.2 0 1.6 2 2.9 3.9 2.9h.3c.4-1.3 1.2-2.2 1.9-3-.8-.3-1.7-1-1.7-1.4.1-.1 1.6.4 1.8.5h.1c.2-.1.3-.3.3-.4-.2 0-1.1-.2-1.8-.4-.5-.2-.8-.5-.8-.6.2 0 .8.3 1.7.3.3 0 .4 0 .7-.1-.2-.5-.7-1-1.1-1-.2 0-.6.1-1 .3-.2-.4-.5-.9-.5-1.2 0-.3.3-.7 1.2-.7.3 0 .5 0 .7.1.2 0 .3.1.5.1v-.1c0-.1.1-.3.5-.3.8 0 1.5.2 2.5.2.2 0 .4 0 .6-.1-.1.2-.3.5-.6.7.1.2.5.7.5 1.5 0 1.3-.8 2.4-.8 3.7-.5.9.1 1.5.3 1.9M-457.2 311.9c0-.7-.3-1.1-1.1-1.1-.3 0-1.2 0-1.2 1.4v2.1c0 1.4.4 1.7 1.2 1.7.6 0 1-.2 1.1-.3v-1.9h-1.2v-.7h2v3.1c-.5.3-1.1.5-1.9.5-1.3 0-2-.7-2-2.4v-2.1c0-1.3.6-2.1 2-2.1s2 .5 2 1.8h-.9zM-454.8 316.6v-6.3h3.2v.7h-2.4v2h2.2v.7h-2.2v2.2h2.5v.7M-450.5 316.6v-6.3h3.1v.7h-2.3v2h2.2v.7h-2.2v2.9M-446.6 314.3v-2.1c0-1.3.6-2.1 2-2.1 1.3 0 2 .8 2 2.1v2.1c0 1.8-.6 2.4-2 2.4s-2-.7-2-2.4m1.6-4.8h-.8v-.9h.8v.9zm1.5 4.8v-2.1c0-1.3-.9-1.4-1.2-1.4-.3 0-1.2 0-1.2 1.4v2.1c0 1.4.4 1.7 1.2 1.7.8 0 1.2-.3 1.2-1.7m.1-4.8h-.8v-.9h.8v.9zM-440.5 313.7v2.9h-.8v-6.3h2.2c1.1 0 1.5.8 1.5 1.6 0 .7-.4 1.3-1.2 1.4.7.1 1 .4 1 1.6 0 .3.1 1.3.2 1.7h-.8c-.2-.4-.2-1.3-.2-2.1-.1-.8-.7-.8-1-.8h-.9zm0-.7h1.2c.6 0 .9-.5.9-1.1 0-.5-.2-1-.8-1h-1.2v2.1zM-436.4 310.3h1.9c.8 0 1.4.3 1.7 1 .3.5.3 1.8.3 2 0 1.3-.1 2.1-.4 2.5-.3.5-1 .8-2.1.8h-1.5v-6.3zm.8 5.6h.8c1.1 0 1.5-.4 1.5-1.9v-1.3c0-1.3-.4-1.8-1.2-1.8h-1.1v5zM-431 316.6v-6.3h3.2v.7h-2.4v2h2.2v.7h-2.2v2.2h2.5v.7M-425.9 313.7v2.9h-.8v-6.3h2.2c1.1 0 1.5.8 1.5 1.6 0 .7-.4 1.3-1.2 1.4.7.1 1 .4 1 1.6 0 .3.1 1.3.2 1.7h-.8c-.2-.4-.2-1.3-.2-2.1-.1-.8-.7-.8-1-.8h-.9zm0-.7h1.2c.6 0 .9-.5.9-1.1 0-.5-.2-1-.8-1h-1.2v2.1zM-418.2 310.3v.7h-1.7v5.6h-.8V311h-1.7v-.7M-413.3 316.6h-.9l-1.9-6.3h.9l1.4 5.5h.1l1.4-5.5h.9M-410.6 314.3v-2.1c0-1.3.6-2.1 2-2.1 1.3 0 2 .8 2 2.1v2.1c0 1.8-.6 2.4-2 2.4s-2-.7-2-2.4m3.1 0v-2.1c0-1.3-.9-1.4-1.2-1.4s-1.2 0-1.2 1.4v2.1c0 1.4.4 1.7 1.2 1.7.8 0 1.2-.3 1.2-1.7M-404.5 316.6h-.8v-6.3h1.3l1.6 5.3h.1l1.6-5.3h1.3v6.3h-.8V311l-1.8 5.6h-.8l-1.7-5.6"/><path fill="none" d="M-557.7-333.3h1280v800h-1280z"/><path fill="#FFF" d="M-531 291.6h211.5v150H-531z"/><path d="M-456.5 379.2c0 1.2-.8 1.6-1.4 1.6-.8 0-1.2-.6-1.2-1.4v-4.9h-1.1v5.4c0 1.2.7 1.8 1.9 1.8.7 0 1.4-.4 1.8-1v.9h1.2c0-.5-.1-1-.1-1.5v-5.6h-1.1v4.7zM-448.3 381.6v-4.9c0-1.4-.4-2.3-1.9-2.3-.9 0-1.4.3-1.9 1h-.1v-.9h-1.2c0 .5.1 1 .1 1.5v5.6h1.2v-4.2c0-1 .2-2.1 1.4-2.1 1 0 1.2.6 1.2 1.4v4.9h1.2zM-442.6 377.7c0 1.4 0 3-1.3 3-1.4 0-1.4-1.5-1.4-2.6 0-1.9.2-2.9 1.4-2.9 1.2.1 1.3 1.6 1.3 2.5m0-2.5c-.4-.6-.9-.9-1.6-.9-2.3 0-2.3 2-2.3 3.8 0 3.1 1.1 3.6 2.3 3.6.7 0 1.2-.3 1.6-1v.8h1.1v-10.1h-1.1v3.8zM-435.4 381.6v-4.7h3.6v-1.1h-3.6v-3.2h3.7v-1.1h-5v10.1M-428.1 380.8c-1.2 0-1.5-.8-1.5-3.1 0-1.9.6-2.4 1.5-2.4s1.5.4 1.5 2.4c0 2.2-.3 3.1-1.5 3.1m0 .9c1.5 0 2.7-.4 2.7-3.6 0-2.1-.2-3.8-2.7-3.8s-2.7 1.7-2.7 3.8c0 3.2 1.2 3.6 2.7 3.6M-422.5 374.5h-1.1v7.1h1.1v-4.2c0-1 .3-1.9 1.6-1.9.2 0 .4 0 .6.1v-1.2c-1.1 0-1.7.1-2.2 1.2v-1.1zM-414.6 379.6c0-2.2-3.5-2.1-3.5-3.4 0-.6.5-1 1.1-1 .7 0 1.1.4 1.1 1.1h1.3c.1-1.4-1-2-2.2-2-2 0-2.4 1.2-2.4 1.9 0 2.1 3.5 2.1 3.5 3.4 0 .7-.5 1.1-1.2 1.1-1.2 0-1.2-1-1.2-1.4h-1.3c0 1.6.9 2.3 2.4 2.3 1.4.1 2.4-.5 2.4-2M-408.2 376.8c.1-1.6-.8-2.4-2.2-2.4-2.4 0-2.7 1.7-2.7 3.8 0 3.1 1.2 3.6 2.7 3.6.8 0 2.3-.5 2.2-2.5h-1.2c0 1.3-.8 1.6-1 1.6-1.2 0-1.5-.8-1.5-3.1 0-1.9.6-2.4 1.5-2.4.4 0 1 .3 1 1.5h1.2zM-401.3 381.6v-5c0-1.6-.7-2.2-1.9-2.2-.9 0-1.5.2-1.9 1h-.1v-3.9h-1.1v10.1h1.1v-4.2c0-1.2.3-2.1 1.4-2.1 1 0 1.3.6 1.3 1.5v4.8h1.2zM-395.5 379.2c0 1.2-.8 1.6-1.4 1.6-.8 0-1.2-.6-1.2-1.4v-4.9h-1.1v5.4c0 1.2.7 1.8 1.9 1.8.7 0 1.4-.4 1.8-1v.9h1.2c0-.5-.1-1-.1-1.5v-5.6h-1.1v4.7zM-387.3 381.6v-4.9c0-1.4-.4-2.3-1.9-2.3-.9 0-1.4.3-1.9 1h-.1v-.9h-1.2c0 .5.1 1 .1 1.5v5.6h1.1v-4.2c0-1 .2-2.1 1.4-2.1 1 0 1.2.6 1.2 1.4v4.9h1.3zM-381.7 378c0 1 0 2.6-1.3 2.6-.9 0-1.4-.5-1.4-2.8 0-.9 0-2.5 1.3-2.5 1.5 0 1.4 1.6 1.4 2.7m0-2.6c-.4-.7-.9-1-1.7-1-.6 0-2.2.2-2.2 3.5 0 2.1.4 3.8 2.3 3.8.6 0 1.3-.3 1.6-.9v1.5c0 .7-.4 1.2-1.2 1.2-.6 0-1.1-.4-1.1-1h-1.3c-.1 1.3 1 1.9 2.1 1.9 1.6 0 2.6-.4 2.6-2v-7.8h-1.1v.8zM-460.7 359.5v.9h1.1v6.2h1.1v-6.2h1.4v-.9h-1.4v-1.2c0-.6.2-1.1 1.4-1v-.8h-.5c-1 0-2 .3-2 1.7v1.4h-1.1zM-454 356.9h-1.3v1.5h1.3v-1.5zm2.4 0h-1.3v1.5h1.3v-1.5zm-.6 7.3c0 1.2-.8 1.6-1.4 1.6-.8 0-1.2-.6-1.2-1.4v-4.9h-1.1v5.4c0 1.2.7 1.8 1.9 1.8.7 0 1.4-.3 1.8-1v.9h1.2c0-.5-.1-1-.1-1.5v-5.6h-1.1v4.7zM-447.8 359.5h-1.1v7.1h1.1v-4.2c0-1 .3-1.9 1.6-1.9.2 0 .4 0 .6.1v-1.2c-1.1 0-1.7.1-2.2 1.2v-1.1zM-440.8 361.8h1.4c1.3 0 2.3.3 2.3 1.9 0 .7-.5 1.7-1.9 1.7h-1.8v-3.6zm0-4.2h1.8c1.1 0 1.6.7 1.6 1.5 0 1-.5 1.6-1.5 1.6h-1.9v-3.1zm2 9c1.1 0 3-.3 3-2.8 0-1.4-.6-2.3-2.1-2.4v-.1c1.3-.3 1.7-1.1 1.7-2.4 0-.2-.1-.8-.4-1.3-.4-.6-.9-1-2.3-1h-3.3v10.1h3.4zM-432.8 359.5h-1.1v7.1h1.1v-7.1zm-1.2-1.8h1.3v-1.2h-1.3v1.2zM-430.7 356.5h1.1v10.1h-1.1zM-423.8 362.7c0 1.4 0 3-1.3 3-1.4 0-1.4-1.5-1.4-2.6 0-1.9.2-2.9 1.4-2.9 1.2.1 1.3 1.6 1.3 2.5m0-2.5c-.4-.6-.9-.9-1.6-.9-2.3 0-2.3 2-2.3 3.8 0 3.1 1.1 3.6 2.3 3.6.7 0 1.2-.3 1.6-1v.8h1.1v-10.1h-1.1v3.8zM-416.8 364.2c0 1.2-.8 1.6-1.4 1.6-.8 0-1.2-.6-1.2-1.4v-4.9h-1.2v5.4c0 1.2.7 1.8 1.9 1.8.7 0 1.4-.3 1.8-1v.9h1.2c0-.5-.1-1-.1-1.5v-5.6h-1.1v4.7zM-408.6 366.6v-4.9c0-1.4-.4-2.3-1.9-2.3-.9 0-1.4.3-1.9 1h-.1v-.9h-1.2c0 .5.1 1 .1 1.5v5.6h1.1v-4.2c0-1 .2-2.1 1.4-2.1 1 0 1.2.6 1.2 1.4v4.9h1.3zM-402.9 363c0 1 0 2.6-1.3 2.6-.9 0-1.4-.5-1.4-2.8 0-.9 0-2.5 1.3-2.5 1.5 0 1.4 1.6 1.4 2.7m0-2.6c-.4-.7-.9-1-1.7-1-.6 0-2.2.2-2.2 3.5 0 2.1.4 3.8 2.3 3.8.6 0 1.3-.3 1.6-.9v1.5c0 .7-.4 1.2-1.2 1.2-.6 0-1.1-.4-1.1-1h-1.3c-.1 1.3 1 1.9 2.1 1.9 1.6 0 2.6-.4 2.6-2v-7.8h-1.1v.8zM-458.9 346.8h1.4c1.3 0 2.3.3 2.3 1.9 0 .7-.5 1.7-1.9 1.7h-1.8v-3.6zm0-4.2h1.8c1.1 0 1.6.7 1.6 1.5 0 1-.5 1.6-1.5 1.6h-1.9v-3.1zm2 9c1.2 0 3-.3 3-2.8 0-1.4-.6-2.3-2.1-2.4v-.1c1.3-.3 1.7-1.1 1.7-2.4 0-.2-.1-.8-.4-1.3-.4-.6-.9-1-2.3-1h-3.3v10.1h3.4zM-448.5 349.2c0 1.2-.8 1.6-1.4 1.6-.8 0-1.2-.6-1.2-1.4v-4.9h-1.1v5.4c0 1.2.7 1.8 1.9 1.8.7 0 1.4-.3 1.8-1v.9h1.2c0-.5-.1-1-.1-1.5v-5.6h-1.1v4.7zM-440.3 351.6v-4.9c0-1.4-.4-2.3-1.9-2.3-.9 0-1.4.3-1.9 1h-.1v-.9h-1.2c0 .5.1 1 .1 1.5v5.6h1.1v-4.2c0-1 .2-2.1 1.4-2.1 1 0 1.2.6 1.2 1.4v4.9h1.3zM-434.6 347.7c0 1.4 0 3-1.3 3-1.4 0-1.4-1.5-1.4-2.6 0-1.9.2-2.9 1.4-2.9 1.2.1 1.3 1.6 1.3 2.5m0-2.5c-.4-.6-.9-.9-1.6-.9-2.3 0-2.3 2-2.3 3.8 0 3.1 1.1 3.6 2.3 3.6.7 0 1.2-.3 1.6-1v.8h1.1v-10.1h-1.1v3.8zM-430.5 347.5c0-2 .6-2.3 1.3-2.3.8 0 1.4.3 1.4 2.3h-2.7zm4 .9v-.6c0-2.3-.5-3.4-2.5-3.4-2.4 0-2.7 1.7-2.7 3.8 0 3.1 1.2 3.6 2.7 3.6 1.5 0 2.5-.7 2.5-2.3h-1.3c0 .7-.5 1.3-1.2 1.3-.9 0-1.4-.4-1.4-2.4h3.9zM-420.2 349.6c0-2.2-3.5-2.1-3.5-3.4 0-.6.5-1 1.1-1 .7 0 1.1.4 1.1 1.1h1.3c.1-1.4-1-2-2.2-2-2 0-2.4 1.2-2.4 1.9 0 2.1 3.5 2.1 3.5 3.4 0 .7-.5 1.1-1.2 1.1-1.2 0-1.2-1-1.2-1.4h-1.3c0 1.6.9 2.3 2.4 2.3 1.3.1 2.4-.5 2.4-2M-413.8 351.6v-4.8c0-.3.1-1 .4-1.2.3-.3.4-.3.9-.3.9 0 1.1.7 1.1 1.4v4.9h1.1v-5.4c0-1.7-1.2-1.8-1.9-1.8-.6 0-1.3.2-1.7.9-.3-.6-1-.9-1.7-.9-.8 0-1.4.3-1.8 1v-.9h-1.2c0 .5.1 1 .1 1.5v5.6h1.1v-4.8c0-.3.1-.7.3-1 .2-.3.6-.5 1-.5.9 0 1.1.7 1.1 1.4v4.9h1.2zM-407.1 344.5h-1.1v7.1h1.1v-7.1zm-1.2-1.8h1.3v-1.2h-1.3v1.2zM-400 351.6v-4.9c0-1.4-.4-2.3-1.9-2.3-.9 0-1.4.3-1.9 1h-.1v-.9h-1.2c0 .5.1 1 .1 1.5v5.6h1.1v-4.2c0-1 .2-2.1 1.4-2.1 1 0 1.2.6 1.2 1.4v4.9h1.3zM-396.9 344.5h-1.1v7.1h1.1v-7.1zm-1.2-1.8h1.3v-1.2h-1.3v1.2zM-390.3 349.6c0-2.2-3.5-2.1-3.5-3.4 0-.6.5-1 1.1-1 .7 0 1.1.4 1.1 1.1h1.3c.1-1.4-1-2-2.2-2-2 0-2.4 1.2-2.4 1.9 0 2.1 3.5 2.1 3.5 3.4 0 .7-.5 1.1-1.2 1.1-1.2 0-1.2-1-1.2-1.4h-1.3c0 1.6.9 2.3 2.4 2.3 1.3.1 2.4-.5 2.4-2M-389.6 344.5v.9h1.2v5c0 .8.5 1.3 1.6 1.3.4 0 .8-.1 1.1-.1v-.9c-.3 0-.4.1-.5.1-1 0-1-.6-1-1v-4.3h1.5v-.9h-1.5v-1.9l-1.2.5v1.4h-1.2zM-383.5 347.5c0-2 .6-2.3 1.3-2.3.8 0 1.4.3 1.4 2.3h-2.7zm4 .9v-.6c0-2.3-.5-3.4-2.5-3.4-2.5 0-2.7 1.7-2.7 3.8 0 3.1 1.2 3.6 2.7 3.6 1.5 0 2.4-.7 2.5-2.3h-1.3c0 .7-.4 1.3-1.2 1.3-.9 0-1.4-.4-1.4-2.4h3.9zM-376.7 344.5h-1.1v7.1h1.1v-4.2c0-1 .3-1.9 1.6-1.9.2 0 .4 0 .6.1v-1.2c-1.1 0-1.7.1-2.2 1.2v-1.1zM-372.1 344.5h-1.1v7.1h1.1v-7.1zm-1.2-1.8h1.3v-1.2h-1.3v1.2zM-366.4 349.2c0 1.2-.8 1.6-1.4 1.6-.8 0-1.2-.6-1.2-1.4v-4.9h-1.1v5.4c0 1.2.7 1.8 1.9 1.8.7 0 1.4-.3 1.8-1v.9h1.2c0-.5-.1-1-.1-1.5v-5.6h-1.1v4.7zM-358.5 351.6v-4.8c0-.3.1-1 .4-1.2.3-.3.4-.3.9-.3.9 0 1.1.7 1.1 1.4v4.9h1.1v-5.4c0-1.7-1.2-1.8-1.9-1.8-.6 0-1.3.2-1.7.9-.3-.6-1-.9-1.7-.9-.8 0-1.4.3-1.8 1v-.9h-1.2c0 .5.1 1 .1 1.5v5.6h1.1v-4.8c0-.3.1-.7.3-1 .2-.3.6-.5 1-.5.9 0 1.1.7 1.1 1.4v4.9h1.2z" fill="#1E1E1C"/><path fill="#F9D300" d="M-473.5 391.6h4.4v25h-4.4z"/><path fill="#E20717" d="M-473.5 366.5h4.4v25.1h-4.4z"/><path fill="#1E1E1C" d="M-473.5 341.6h4.4v25h-4.4zM-487.3 345.8c0-1.4-1-2.6-1.4-2.9l-.3.1c.4.5 1.1 1.3 1.1 2.3 0 2.1-2.2 3.9-4.7 3.9v.6c0 .3 0 .6-.1.9 2.9-.1 5.4-2.4 5.4-4.9m-3.9 17.1c-1.2 0-1.5-.1-1.8-.1-.2 0-.4 0-.4.3 0 .2.2.5.4.6.3-.3.7-.3 1.3-.3.3 0 .7.1.9.1 0 .2-.1.4-.1.7v.6c0 .7-.1 1.1-.4 1.4.1 0 .2.1.3.1.5 0 .6-.2.6-1.4v-.8c.6.5 1.3 1.4 1.3 2 .2-.1.5-.4.5-.7 0-.4-.7-1.1-1.5-1.9.1 0 .4-.1.6-.1.6 0 1.1.1 1.4.4.1-.1.2-.5.2-.7 0-.4-.2-.3-.4-.3-.6 0-1.4.1-2 .2-.2-.3-1.5-2.1-1.9-3-.1 0-.2-.1-.3-.1-.3 0-.4.2-.5.5.9.9 1.6 1.8 1.8 2.5m-7.2-2.5c-.1-.3-.2-.5-.5-.5-.2 0-.2 0-.3.1-.3.9-1.7 2.7-1.9 3-.6-.1-1.4-.2-2-.2-.2 0-.4 0-.4.3 0 .2.1.6.2.7.3-.3.8-.4 1.4-.4.2 0 .5.1.6.1-.8.8-1.5 1.4-1.5 1.9 0 .2.2.6.5.7 0-.6.7-1.5 1.3-2v.8c0 1.2.1 1.4.6 1.4.1 0 .2 0 .3-.1-.2-.3-.4-.7-.4-1.4v-.6c0-.3 0-.5-.1-.7.2 0 .6-.1.9-.1.6 0 1 .1 1.3.3.2-.2.4-.4.4-.6 0-.3-.2-.3-.4-.3-.3 0-.6.1-1.8.1.4-.7 1.1-1.6 1.8-2.5m-5-15.1c0-1 .7-1.8 1.1-2.3l-.3-.1c-.4.3-1.4 1.4-1.4 2.9 0 2.5 2.5 4.8 5.4 4.8v-.9-.6c-2.5.1-4.8-1.7-4.8-3.8m7.7-1.9c.1-.3.3-.7.3-1 0-1.1-.9-1.6-2.1-1.6-.6 0-.9.2-.9.4s.2.6.3.8c.2-.1.6-.2.9-.2.8-.1 1.4.8 1.5 1.6m.6-1.4c.7.1 1.2-.8.5-.9.1.3-.4.5-.4.5s-.2-.4 0-.6c-.4-.2-.5 0-.5.3.3.2.4.4.4.7m2.3 6.1h.3c2 0 3.9-1.3 3.9-2.9 0-.9-.4-1.5-.9-2.2-.3 0-.5.1-.7.1-.9 0-1.4-.5-1.4-1 0-.4.3-.7.9-.7.8 0 2.3.8 3.9.8-.1.1-.4.2-.7.3.9.8 1.5 1.9 1.7 3l2.3 3.7c.4.6 1.2 1.9 2.5 2.8-1.5 0-2.5 0-3.8-2l-1.2-1.9c-.1.2-.2.5-.3.7l2.4 3.8c.4.6 1.2 1.9 2.5 2.8-1.5 0-2.5 0-3.8-2l-2.1-3.3-.5.5 2.9 4.6c.4.6 1.2 1.8 2.5 2.8-1.5 0-2.5 0-3.8-2l-2.8-4.5-.6.3 3.4 5.5c.4.6 1.2 1.8 2.5 2.8-1.5 0-2.5 0-3.8-2l-3.5-5.7c-.2.1-.4.2-.6.2l4 6.4c.4.6 1.2 1.9 2.5 2.8-1.5 0-2.5 0-3.8-2l-4.3-6.8h-.1c-.1.4-.2.7-.2 1.1 0 2.1 1.4 4 3.1 5.5-.1 0-.3.1-.5.1h-.7c.4.9 1.2 2 1.7 2.6.6-.1 1.4-.2 1.9-.2.6 0 .6.3.6.6 0 .5-.2.9-.5 1.1-.1-.3-.3-.6-1.3-.6h-.1c.3.3 1.2 1.1 1.2 1.7 0 .4-.4 1-1 1v-.3c0-.5-.4-1.1-.8-1.5v.2c0 1.2-.1 1.7-.8 1.7-.4 0-.6-.2-.7-.3.5-.4.5-.8.5-1.4v-.6-.5h-.6s-1.1-.1-1.3.5c-.3-.3-.7-.6-.7-1 0-.3.1-.6.7-.6.2 0 .8.1 1.4.1-.1-.3-.8-1.3-1.3-2-.1.3-.2.6-.5.8 0-.4-.3-1.8-1-2.6-.1.5-.2 1.1-.2 2.3 0 2.9.7 5 2.2 5.4-.2.3-.6.6-1 .6-.5 0-.8-.6-1.1-1.2-.2.4-.6 1.5-1 1.5s-.9-1-1-1.5c-.3.6-.6 1.2-1.1 1.2-.4 0-.8-.3-1-.6 1.5-.4 2.2-2.5 2.2-5.4 0-1.2-.1-1.8-.2-2.3-.7.8-.9 2.2-1 2.6-.3-.2-.4-.5-.5-.8-.6.7-1.2 1.6-1.3 2 .5 0 1.2-.1 1.4-.1.5 0 .7.3.7.6 0 .4-.4.8-.7 1-.3-.5-1.3-.5-1.3-.5h-.6v1.1c0 .7 0 1 .5 1.4-.1.1-.3.3-.7.3-.7 0-.8-.5-.8-1.7v-.2c-.4.4-.8 1-.8 1.5v.3c-.6 0-1-.6-1-1 0-.6.9-1.4 1.2-1.7h-.1c-1 0-1.2.3-1.3.6-.3-.2-.5-.6-.5-1.1 0-.3.1-.6.6-.6s1.3.1 1.9.2c.4-.6 1.3-1.7 1.7-2.6h-.7c-.2 0-.4 0-.5-.1 1.7-1.5 3.1-3.4 3.1-5.5 0-.3-.1-.7-.2-1.1h-.1l-4.3 6.8c-1.3 2-2.3 2-3.8 2 1.2-1 2.1-2.2 2.5-2.8l4-6.4c-.2-.1-.4-.1-.6-.2l-3.5 5.7c-1.3 2-2.3 2-3.8 2 1.3-1 2.1-2.2 2.5-2.8l3.4-5.5-.6-.3-2.8 4.5c-1.3 2-2.3 2-3.8 2 1.3-1 2.1-2.2 2.5-2.8l2.9-4.6-.5-.5-2.1 3.3c-1.3 2-2.3 2-3.8 2 1.3-1 2.1-2.2 2.5-2.8l2.4-3.8c-.1-.2-.2-.5-.3-.7l-1.2 1.9c-1.3 2-2.3 2-3.8 2 1.3-1 2.1-2.2 2.5-2.8l2.3-3.7c.2-1.2.8-2.2 1.7-3-.3-.1-.6-.2-.7-.3 1.5 0 3-.8 3.9-.8.5 0 .9.3.9.7 0 .5-.5 1-1.4 1-.2 0-.5 0-.7-.1-.5.7-.9 1.3-.9 2.2 0 1.6 2 2.9 3.9 2.9h.3c.4-1.3 1.2-2.2 1.9-3-.8-.3-1.7-1-1.7-1.4.1-.1 1.6.4 1.8.5h.1c.2-.1.3-.3.3-.4-.2 0-1.1-.2-1.8-.4-.5-.2-.8-.5-.8-.6.2 0 .8.3 1.7.3.3 0 .4 0 .7-.1-.2-.5-.7-1-1.1-1-.2 0-.6.1-1 .3-.2-.4-.5-.9-.5-1.2 0-.3.3-.7 1.2-.7.3 0 .5 0 .7.1.2 0 .3.1.5.1v-.1c0-.1.1-.3.5-.3.8 0 1.5.2 2.5.2.2 0 .4 0 .6-.1-.1.2-.3.5-.6.7.1.2.5.7.5 1.5 0 1.3-.8 2.4-.8 3.7-.5.9.1 1.5.3 1.9M-457.2 311.9c0-.7-.3-1.1-1.1-1.1-.3 0-1.2 0-1.2 1.4v2.1c0 1.4.4 1.7 1.2 1.7.6 0 1-.2 1.1-.3v-1.9h-1.2v-.7h2v3.1c-.5.3-1.1.5-1.9.5-1.3 0-2-.7-2-2.4v-2.1c0-1.3.6-2.1 2-2.1s2 .5 2 1.8h-.9zM-454.8 316.6v-6.3h3.2v.7h-2.4v2h2.2v.7h-2.2v2.2h2.5v.7M-450.5 316.6v-6.3h3.1v.7h-2.3v2h2.2v.7h-2.2v2.9M-446.6 314.3v-2.1c0-1.3.6-2.1 2-2.1 1.3 0 2 .8 2 2.1v2.1c0 1.8-.6 2.4-2 2.4s-2-.7-2-2.4m1.6-4.8h-.8v-.9h.8v.9zm1.5 4.8v-2.1c0-1.3-.9-1.4-1.2-1.4-.3 0-1.2 0-1.2 1.4v2.1c0 1.4.4 1.7 1.2 1.7.8 0 1.2-.3 1.2-1.7m.1-4.8h-.8v-.9h.8v.9zM-440.5 313.7v2.9h-.8v-6.3h2.2c1.1 0 1.5.8 1.5 1.6 0 .7-.4 1.3-1.2 1.4.7.1 1 .4 1 1.6 0 .3.1 1.3.2 1.7h-.8c-.2-.4-.2-1.3-.2-2.1-.1-.8-.7-.8-1-.8h-.9zm0-.7h1.2c.6 0 .9-.5.9-1.1 0-.5-.2-1-.8-1h-1.2v2.1zM-436.4 310.3h1.9c.8 0 1.4.3 1.7 1 .3.5.3 1.8.3 2 0 1.3-.1 2.1-.4 2.5-.3.5-1 .8-2.1.8h-1.5v-6.3zm.8 5.6h.8c1.1 0 1.5-.4 1.5-1.9v-1.3c0-1.3-.4-1.8-1.2-1.8h-1.1v5zM-431 316.6v-6.3h3.2v.7h-2.4v2h2.2v.7h-2.2v2.2h2.5v.7M-425.9 313.7v2.9h-.8v-6.3h2.2c1.1 0 1.5.8 1.5 1.6 0 .7-.4 1.3-1.2 1.4.7.1 1 .4 1 1.6 0 .3.1 1.3.2 1.7h-.8c-.2-.4-.2-1.3-.2-2.1-.1-.8-.7-.8-1-.8h-.9zm0-.7h1.2c.6 0 .9-.5.9-1.1 0-.5-.2-1-.8-1h-1.2v2.1zM-418.2 310.3v.7h-1.7v5.6h-.8V311h-1.7v-.7M-413.3 316.6h-.9l-1.9-6.3h.9l1.4 5.5h.1l1.4-5.5h.9M-410.6 314.3v-2.1c0-1.3.6-2.1 2-2.1 1.3 0 2 .8 2 2.1v2.1c0 1.8-.6 2.4-2 2.4s-2-.7-2-2.4m3.1 0v-2.1c0-1.3-.9-1.4-1.2-1.4s-1.2 0-1.2 1.4v2.1c0 1.4.4 1.7 1.2 1.7.8 0 1.2-.3 1.2-1.7M-404.5 316.6h-.8v-6.3h1.3l1.6 5.3h.1l1.6-5.3h1.3v6.3h-.8V311l-1.8 5.6h-.8l-1.7-5.6"/><path fill="none" d="M-557.7-333.3h1280v800h-1280z"/><defs><path id="a" d="M4.9 20.9h176.6v80H4.9z"/></defs><clipPath id="b"><use xlink:href="#a" overflow="visible"/></clipPath><path d="M92 47.5c-1.8 0-3.1-1.3-3.1-3s1.2-3 3.1-3c1.8 0 3.1 1.3 3.1 3s-1.2 3-3.1 3m0-4.9c-1.1 0-1.7.7-1.7 1.9s.6 1.9 1.7 1.9c1 0 1.7-.7 1.7-1.9s-.6-1.9-1.7-1.9M98.9 45.5v2h-1.4v-5.9h2.1c1.7 0 2.4.8 2.4 1.9 0 1.2-.7 2-2.4 2h-.7zm0-1.1h.7c.7 0 1-.4 1-1 0-.5-.3-.9-1-.9h-.7v1.9zM108.3 41.5v1.1h-2.4V44h1.8v1h-1.8v1.4h2.4v1h-3.8v-5.9M112.4 41.7l2.8 3.6v-3.7h1.2v5.9h-.7c-.2 0-.3-.1-.5-.2l-2.8-3.5V47.6h-1.2v-5.9h.7c.3-.2.3-.2.5 0M90.6 54.9h.2c.2 0 .4-.1.4-.2l1.3-1.9c.1-.2.3-.3.6-.3h1.2l-1.8 2.4c-.1.2-.3.3-.4.4.2.1.4.2.5.4l1.8 2.7h-1.2c-.3 0-.4-.1-.5-.3L91.4 56c-.1-.2-.2-.2-.5-.2h-.3v2.5h-1.4v-5.9h1.4v2.5zM98.3 52.7l2.8 3.6v-3.7h1.2v5.9h-.7c-.2 0-.3-.1-.5-.2l-2.8-3.5V58.6h-1.2v-5.9h.7c.3-.2.4-.2.5 0M108 58.5c-1.8 0-3.1-1.3-3.1-3s1.2-3 3.1-3c1.8 0 3.1 1.3 3.1 3s-1.2 3-3.1 3m0-4.9c-1.1 0-1.7.7-1.7 1.9s.6 1.9 1.7 1.9c1 0 1.7-.7 1.7-1.9s-.6-1.9-1.7-1.9M112.6 52.5h1.2c.2 0 .4.1.5.3l.8 3.1c.1.2.1.4.1.7.1-.3.1-.5.2-.7l1-3.1c0-.2.2-.3.4-.3h.4c.2 0 .4.1.5.3l1 3.1c.1.2.1.4.2.6 0-.2.1-.5.1-.6l.8-3.1c0-.2.2-.3.4-.3h1.1l-1.8 5.9h-1.2l-1.1-3.7c0-.1-.1-.3-.1-.4 0 .2-.1.3-.1.4l-1.1 3.7h-1.2l-2.1-5.9zM125.1 57.3h2.2v1.1h-3.6v-5.9h1.4M134 52.5v1.1h-2.4v1.3h1.8V56h-1.8v1.4h2.4v1h-3.8v-5.9M139.2 58.4h-2.3v-5.9h2.3c1.8 0 3.1 1.3 3.1 3s-1.3 2.9-3.1 2.9m0-4.8h-.9v3.8h.9c1 0 1.7-.7 1.7-1.9s-.7-1.9-1.7-1.9M148.4 57.3v-.9h-.6c-.2 0-.3-.1-.3-.2v-.8h2.1v2.5c-.6.4-1.3.6-2.3.6-1.7 0-3-1.3-3-3 0-1.8 1.2-3 3.1-3 1 0 1.7.3 2.2.8l-.4.6c-.1.1-.2.2-.3.2-.1 0-.2 0-.3-.1-.4-.3-.7-.4-1.3-.4-1 0-1.7.8-1.7 1.9 0 1.3.7 2 1.7 2 .6-.1.9-.1 1.1-.2M156.2 52.5v1.1h-2.4v1.3h1.9V56h-1.9v1.4h2.4v1h-3.8v-5.9M93.1 63.5v1h-2.5V66h2v1.1h-2v2.3h-1.4v-5.9M102.1 66.4c0 .4-.1.8-.2 1.2-.1.4-.4.7-.6 1-.3.3-.6.5-1 .6-.4.2-.8.2-1.3.2s-.9-.1-1.3-.2c-.4-.2-.7-.4-1-.6-.3-.3-.5-.6-.6-1s-.2-.8-.2-1.2.1-.8.2-1.2c.1-.4.4-.7.6-1 .3-.3.6-.5 1-.6.4-.2.8-.2 1.3-.2s.9.1 1.3.2c.4.2.7.4 1 .6.3.3.5.6.6 1 .1.4.2.8.2 1.2m-1.5 0c0-.3 0-.6-.1-.8l-.3-.6s-.3-.3-.5-.4c-.2-.1-.4-.1-.7-.1-.3 0-.5 0-.7.1-.2.1-.4.2-.5.4-.1.2-.3.4-.3.6-.1.2-.1.5-.1.8 0 .3 0 .6.1.8l.3.6c.1.2.3.3.5.4s.4.1.7.1c.3 0 .5 0 .7-.1.2-.1.4-.2.5-.4.1-.2.3-.4.3-.6.1-.2.1-.5.1-.8M107.6 68.3c.2 0 .3 0 .5-.1.1-.1.3-.1.4-.3.1-.1.2-.3.2-.4.1-.2.1-.4.1-.6v-3.5h1.4V67c0 .4-.1.7-.2 1-.1.3-.3.6-.5.8-.2.2-.5.4-.8.5-.3.1-.7.2-1.1.2-.4 0-.8-.1-1.1-.2-.3-.1-.6-.3-.8-.5-.2-.2-.4-.5-.5-.8-.1-.3-.2-.6-.2-1v-3.5h1.4V67c0 .2 0 .4.1.6s.1.3.2.4c.1.1.2.2.4.3h.5M114.4 63.5h.1s.1 0 .1.1l.1.1 2.8 3.6V67v-3.4h1.2v5.9h-1c-.1 0-.1-.1-.2-.2l-2.8-3.5V69.6h-1.2v-5.9h.7c.1-.2.1-.2.2-.2M127.4 66.4c0 .4-.1.8-.2 1.2-.1.4-.4.7-.6.9s-.6.5-1 .6c-.4.1-.8.2-1.3.2H122v-5.9h2.3c.5 0 .9.1 1.3.2s.7.4 1 .6c.3.3.5.6.6.9.2.5.2.9.2 1.3m-1.4 0c0-.3 0-.6-.1-.8l-.3-.6s-.3-.3-.5-.4c-.2-.1-.4-.1-.7-.1h-.9v3.8h.9c.3 0 .5 0 .7-.1.2-.1.4-.2.5-.4.1-.2.3-.4.3-.6.1-.2.1-.5.1-.8M136.1 69.4H135c-.1 0-.2 0-.3-.1l-.2-.2-.3-1h-2.3l-.4 1c0 .1-.1.1-.2.2s-.2.1-.3.1h-1.1l2.3-5.9h1.4l2.5 5.9zm-3.8-2.3h1.6l-.5-1.6c0-.1-.1-.2-.1-.4 0-.1-.1-.3-.1-.5 0 .2-.1.3-.1.5 0 .1-.1.3-.1.4l-.7 1.6zM143.3 63.5v1.1h-1.7v4.8h-1.4v-4.8h-1.6v-1.1M146.4 63.5h1.4v5.9h-1.4zM157.2 66.4c0 .4-.1.8-.2 1.2-.1.4-.4.7-.6 1-.3.3-.6.5-1 .6-.4.2-.8.2-1.3.2s-.9-.1-1.3-.2c-.4-.2-.7-.4-1-.6-.3-.3-.5-.6-.6-1s-.2-.8-.2-1.2.1-.8.2-1.2c.1-.4.4-.7.6-1 .3-.3.6-.5 1-.6.4-.2.8-.2 1.3-.2s.9.1 1.3.2c.4.2.7.4 1 .6.3.3.5.6.6 1 .1.4.2.8.2 1.2m-1.4 0c0-.3 0-.6-.1-.8l-.3-.6s-.3-.3-.5-.4c-.2-.1-.4-.1-.7-.1-.3 0-.5 0-.7.1-.2.1-.4.2-.5.4s-.3.4-.3.6c-.1.2-.1.5-.1.8 0 .3 0 .6.1.8l.3.6c.1.2.3.3.5.4.2.1.4.1.7.1.3 0 .5 0 .7-.1.2-.1.4-.2.5-.4.1-.2.3-.4.3-.6 0-.2.1-.5.1-.8M161.1 63.5h.1s.1 0 .1.1l.1.1 2.8 3.6V67v-3.4h1.2v5.9h-1c-.1 0-.1-.1-.2-.2l-2.8-3.5V69.6h-1.2v-5.9h.7c.1-.2.2-.2.2-.2" clip-path="url(#b)" fill="#010202"/><path transform="rotate(-143.254 65.942 34.62)" clip-path="url(#b)" fill="#010202" d="M64.8 25.1h2.3v19h-2.3z"/><path transform="rotate(-153.525 58.732 35.937)" clip-path="url(#b)" fill="#010202" d="M57.6 31.4h2.3v9.2h-2.3z"/><path transform="rotate(-163.8 54.79 31.592)" clip-path="url(#b)" fill="#010202" d="M53.6 24.4h2.3v14.4h-2.3z"/><path transform="rotate(5.902 49.16 33.153)" clip-path="url(#b)" fill="#010202" d="M48 28.6h2.3v9.2H48z"/><path transform="rotate(85.616 44.082 32.528)" clip-path="url(#b)" fill="#010202" d="M39 31.4h10.3v2.3H39z"/><path transform="rotate(75.327 39.45 34.938)" clip-path="url(#b)" fill="#010202" d="M35.9 33.8h7v2.3h-7z"/><path transform="rotate(-114.948 35.4 37.618)" clip-path="url(#b)" fill="#010202" d="M33 36.5h4.7v2.3H33z"/><path transform="rotate(54.795 32.232 41.1)" clip-path="url(#b)" fill="#010202" d="M31.3 40h1.8v2.3h-1.8z"/><path transform="rotate(44.473 26.875 41.925)" clip-path="url(#b)" fill="#010202" d="M23.1 40.8h7.5v2.3h-7.5z"/><path clip-path="url(#b)" fill="#010202" d="M26.3 48.8L17.9 43l1.3-1.9 8.4 5.8"/><path transform="rotate(23.904 22.247 50.314)" clip-path="url(#b)" fill="#010202" d="M19.4 49.2h5.7v2.3h-5.7z"/><path transform="rotate(-166.385 15.75 53.563)" clip-path="url(#b)" fill="#010202" d="M7.8 52.4h16v2.3h-16z"/><path transform="rotate(-176.66 17.104 59.256)" clip-path="url(#b)" fill="#010202" d="M11.3 58.1h11.6v2.3H11.3z"/><path transform="rotate(-96.956 17.41 64.473)" clip-path="url(#b)" fill="#010202" d="M16.3 58.8h2.3v11.3h-2.3z"/><path transform="rotate(-107.254 22.648 68.278)" clip-path="url(#b)" fill="#010202" d="M21.5 67h2.3v2.6h-2.3z"/><path transform="rotate(-117.516 21.274 73.963)" clip-path="url(#b)" fill="#010202" d="M20.1 69.2h2.3v9.5h-2.3z"/><path transform="rotate(-127.82 23.703 78.44)" clip-path="url(#b)" fill="#010202" d="M22.6 73.3h2.3v10.3h-2.3z"/><path transform="rotate(-138.108 27.278 82.092)" clip-path="url(#b)" fill="#010202" d="M26.1 77.1h2.3v10h-2.3z"/><path transform="rotate(-148.386 32.764 82.845)" clip-path="url(#b)" fill="#010202" d="M31.6 80.5h2.3v4.6h-2.3z"/><path transform="rotate(21.346 36.096 86.945)" clip-path="url(#b)" fill="#010202" d="M34.9 82.4h2.3v9h-2.3z"/><path transform="rotate(-168.954 40.97 87.972)" clip-path="url(#b)" fill="#010202" d="M39.8 83.8h2.3v8.3h-2.3z"/><path transform="rotate(.81 45.95 87.194)" clip-path="url(#b)" fill="#010202" d="M44.7 84.4H47v5.7h-2.3z"/><path transform="rotate(80.474 51.03 89.51)" clip-path="url(#b)" fill="#010202" d="M45.5 88.4h11.1v2.3H45.5z"/><path transform="rotate(-109.81 55.31 86.134)" clip-path="url(#b)" fill="#010202" d="M52 85h6.7v2.3H52z"/><path clip-path="url(#b)" fill="#010202" d="M57 81.8L65.3 96l2-1.2L59 80.6M61.8 80.9l-1.2-1.3 1.6-1.6 1.3 1.3"/><path transform="rotate(39.33 67.2 78.15)" clip-path="url(#b)" fill="#010202" d="M63.5 77h7.4v2.3h-7.4z"/><path transform="rotate(29.046 69.624 73.965)" clip-path="url(#b)" fill="#010202" d="M66.3 72.8H73v2.3h-6.7z"/><path transform="rotate(18.773 69.8 68.965)" clip-path="url(#b)" fill="#010202" d="M68.3 67.8h3v2.3h-3z"/><path transform="rotate(-171.533 73.81 65.087)" clip-path="url(#b)" fill="#010202" d="M69.3 63.9h8.9v2.3h-8.9z"/><path transform="rotate(88.178 72.47 60.148)" clip-path="url(#b)" fill="#010202" d="M71.3 57.3h2.3V63h-2.3z"/><path transform="rotate(-102.088 72.635 55.324)" clip-path="url(#b)" fill="#010202" d="M71.5 51.7h2.3v7.2h-2.3z"/><path transform="rotate(67.6 70.146 51.135)" clip-path="url(#b)" fill="#010202" d="M69 48.7h2.3v4.9H69z"/><path transform="rotate(57.356 71.946 44.505)" clip-path="url(#b)" fill="#010202" d="M70.8 37.4h2.3v14.2h-2.3z"/><path transform="rotate(47.03 64.287 44.19)" clip-path="url(#b)" fill="#010202" d="M63.1 43h2.3v2.5h-2.3z"/><path d="M44.5 59.2c-.2-.2-.4-.4-.7-.5-.3-.1-.6-.2-.9-.2h-1.2v4.9h1.2c.3 0 .6-.1.9-.2.3-.1.5-.3.7-.5.2-.2.3-.5.4-.8s.1-.6.1-1 0-.7-.1-1-.2-.5-.4-.7" clip-path="url(#b)" fill="#010202"/><path d="M60.7 61.4l-.1-1.7-5.1.2 5-1.1-.4-1.6-5 1.1 4.7-1.9-.6-1.6-4.7 1.9 4.3-2.7-.9-1.4-4.3 2.8 3.7-3.5-1.1-1.2-3.7 3.3 3.1-4.1-1.3-1-3.2 4.1 2.3-4.6-1.5-.8-2.3 4.6 1.4-4.9-1.6-.5-1.4 5 .5-5.1-1.7-.2-.6 5.3-.4-5.3-1.7.1.4 5.1-1.3-4.9-1.6.4 1.3 4.9-2.2-4.6-1.5.7 2.2 4.6-2.9-4.2-1.4 1 3 4.2-3.6-3.6-1.2 1.2 3.6 3.6-4.2-2.9-.9 1.4 4.2 2.9-4.7-2.1-.7 1.5 4.7 2.1-5-1.2-.3 1.8 5 1.2-5.1-.3-.2 1.6 5.1.3-5 .7.2 1.7 5-.7-4.9 1.5.5 1.6 4.9-1.5L33 67l.8 1.5 4.5-2.4-4 3.1 1 1.3 4-3.1-3.4 3.8 1.3 1.1 3.4-3.8-2.7 4.3 1.4.9 2.7-4.3-1.9 4.8 1.6.6 1.9-4.8-1 5 1.7.3 1-5-.1 5.1h1.7l.1-5.1.8 5 1.7-.3-.8-5 1.7 4.8 1.6-.6-1.7-4.8 2.6 4.4 1.5-.8-2.6-4.4 3.3 3.9 1.3-1.1-3.3-3.9 3.9 3.2 1.1-1.3-4.1-3.1 4.5 2.5.8-1.5-4.5-2.5 4.8 1.6.5-1.6-4.8-1.6 5 .8.3-1.7-5-.8 5.1-.1zm-14.1 1.1c-.2.5-.5.9-.8 1.2-.3.3-.8.6-1.3.8-.5.2-1 .3-1.6.3h-3v-7.6h3c.6 0 1.1.1 1.6.3.5.2.9.5 1.3.8.3.3.6.7.8 1.2.2.5.3 1 .3 1.5 0 .6-.1 1.1-.3 1.5m6-3.9h-3.1v1.8h2.4v1.3h-2.4v1.8h3.1v1.4h-4.9v-7.6h4.9v1.3zM94.1 76.1c0 .4-.1.8-.2 1.2-.1.4-.3.7-.6.9-.3.3-.6.4-.9.6-.3.2-.7.2-1.1.2h-2.2v-5.8h2.2c.4 0 .8.1 1.2.2.4.1.7.3.9.6.3.3.4.6.6.9.1.4.1.8.1 1.2m-.8 0c0-.4 0-.7-.1-1-.1-.3-.2-.5-.4-.7-.2-.2-.4-.3-.6-.4-.3-.1-.5-.2-.8-.2H90v4.5h1.4c.3 0 .6-.1.8-.2.3-.1.5-.3.6-.4.2-.2.3-.4.4-.7.1-.2.1-.5.1-.9M101.2 73.2v.7h-2.8v1.9h2.2v.6h-2.2v2h2.8v.6h-3.6v-5.8M106.9 78.4c.2 0 .5 0 .6-.1s.3-.2.5-.3c.1-.1.2-.3.3-.5.1-.2.1-.4.1-.7v-3.5h.8v3.5c0 .3-.1.6-.2.9-.1.3-.3.5-.5.7s-.4.4-.7.5c-.3.1-.6.2-1 .2s-.7-.1-1-.2c-.3-.1-.5-.3-.7-.5-.2-.2-.4-.5-.5-.7-.1-.3-.2-.6-.2-.9v-3.5h.8v3.5c0 .2 0 .5.1.7.1.2.2.4.3.5.1.1.3.3.5.3s.6.1.8.1M116.9 73.2v.7h-1.8V79h-.8v-5.1h-1.9v-.7M123.1 74.1c0 .1 0 .1 0 0-.1.1-.1.1-.2.1 0 0-.1 0-.2-.1-.1 0-.1-.1-.2-.2s-.2-.1-.3-.2c-.1 0-.3-.1-.5-.1s-.3 0-.5.1c-.1 0-.2.1-.3.2s-.2.2-.2.3c0 .1-.1.2-.1.4s0 .3.1.4l.3.3c.1.1.3.1.4.2.2.1.3.1.5.2s.3.1.5.2.3.2.4.3c.1.1.2.3.3.4.1.2.1.4.1.6 0 .3 0 .5-.1.7-.1.2-.2.4-.4.6-.2.2-.4.3-.6.4-.2.1-.5.1-.8.1-.4 0-.7-.1-1-.2s-.6-.3-.8-.6l.2-.4s0-.1.1-.1h.1c.1 0 .1 0 .2.1s.2.1.3.2c.1.1.2.1.4.2s.3.1.6.1c.2 0 .4 0 .5-.1.1-.1.3-.1.4-.2.1-.1.2-.2.2-.3.1-.1.1-.3.1-.4 0-.2 0-.3-.1-.4l-.3-.3c-.1-.1-.3-.1-.4-.2-.2-.1-.3-.1-.5-.2s-.3-.1-.5-.2-.3-.2-.4-.3c-.1-.1-.2-.3-.3-.4-.1-.2-.1-.4-.1-.6 0-.2 0-.4.1-.6.1-.2.2-.4.3-.5.2-.1.3-.3.6-.4.2-.1.5-.1.8-.1.3 0 .6.1.9.2.3.1.5.3.7.4l-.3.4zM130.9 77.8s.1 0 .1.1l.3.3c-.2.3-.5.5-.9.6-.3.2-.7.2-1.2.2-.4 0-.8-.1-1.1-.2-.3-.1-.6-.3-.9-.6l-.6-.9c-.1-.4-.2-.8-.2-1.2 0-.4.1-.8.2-1.2.1-.4.3-.7.6-.9.3-.3.6-.5.9-.6.4-.1.8-.2 1.2-.2.4 0 .8.1 1.1.2.3.1.6.3.8.5l-.3.4s0 .1-.1.1h-.1-.1l-.1-.1c-.1 0-.1-.1-.2-.1s-.2-.1-.3-.1c-.1 0-.2-.1-.3-.1h-.5c-.3 0-.6.1-.9.2-.3.1-.5.3-.7.5-.2.2-.3.4-.4.7-.1.3-.2.6-.2 1s.1.7.2 1c.1.3.2.5.4.7.2.2.4.3.6.4.2.1.5.2.8.2h.5c.1 0 .3-.1.4-.1.1 0 .2-.1.3-.2.1-.1.2-.1.3-.2l.4-.4M139.5 79h-.8v-2.6h-3.1V79h-.8v-5.8h.8v2.6h3.1v-2.6h.8M144.1 78.4h2.5v.6h-3.3v-5.8h.8M154.6 79h-.6c-.1 0-.1 0-.2-.1l-.1-.1-.5-1.4h-2.6l-.5 1.4-.1.1s-.1.1-.2.1h-.6l2.3-5.8h.8l2.3 5.8zm-3.8-2.1h2.2l-.9-2.4c-.1-.1-.1-.3-.2-.5 0 .1-.1.2-.1.3 0 .1-.1.2-.1.2l-.9 2.4zM158.3 73.3l.1.1 3.4 4.4v-.2-4.3h.7V79h-.7l-.1-.1-3.4-4.4V79h-.7v-5.8h.4c.2 0 .3 0 .3.1M171.3 76.1c0 .4-.1.8-.2 1.2-.1.4-.3.7-.6.9-.3.3-.6.4-.9.6-.4.1-.7.2-1.2.2h-2.2v-5.8h2.2c.4 0 .8.1 1.2.2.4.1.7.3.9.6.3.3.4.6.6.9.1.4.2.8.2 1.2m-.9 0c0-.4 0-.7-.1-1-.1-.3-.2-.5-.4-.7-.2-.2-.4-.3-.6-.4-.3-.1-.5-.2-.8-.2H167v4.5h1.4c.3 0 .6-.1.8-.2.3-.1.5-.3.6-.4.2-.2.3-.4.4-.7.2-.2.2-.5.2-.9" clip-path="url(#b)" fill="#010202"/></svg>